/* XPM */
static char *xpm_[] = {
/* columns rows colors chars-per-pixel */
"64 64 4 1 ",
"  c black",
". c #B4B4B4",
"X c #FFA3B1",
"o c #569969",
/* pixels */
"oooooooooooooooooooooooooooooooooooooooooooooooooooooooooooooooo",
"ooooooooooooo          ooooooooooooooooooooooooooooooooooooooooo",
"ooooooooooooo          ooooooooooooooooooooooooooooooooooooooooo",
"ooooooooooo        ..    oooooooooooooooooooooooooo          ooo",
"ooooooooooo        ..    oooooooooooooooooooooooooo          ooo",
"ooooooooooo  ..    ..XX    oooooooooooooooooooooooo  ......  ooo",
"ooooooooooo  ..    ..XX    oooooooooooooooooooooooo  ......  ooo",
"ooooooooooo  ..    ..XXXX  oooooooooooooooooooooooo  ......  ooo",
"ooooooooooo  ..    ..XXXX  oooooooooooooooooooooooo  ......  ooo",
"ooooooooo          ..XXXX  oooooooooooooooooooooooo  ......  ooo",
"ooooooooo          ..XXXX  oooooooooooooooooooooooo  ......  ooo",
"ooooooo    ..............    oooooooooooooooooooooo  ......  ooo",
"ooooooo    ..............    oooooooooooooooooooooo  ......  ooo",
"ooooooo  ..................  oooooooooooooooooooooo  ......  ooo",
"ooooooo  ..................  oooooooooooooooooooooo  ......  ooo",
"ooooo  ....................    oooooooooooooooooooo  ......  ooo",
"ooooo  ....................    oooooooooooooooooooo  ......  ooo",
"ooooo  ..  ......  ..........  oooooooooooooooooooo  ......  ooo",
"ooooo  ..  ......  ..........  oooooooooooooooooooo  ......  ooo",
"ooo    ......  ......          oooooooooooooooooooo  ......  ooo",
"ooo    ......  ......          oooooooooooooooooooo  ......  ooo",
"ooooo  ....  ..  ............  oooooooooooooooooooo  ......  ooo",
"ooooo  ....  ..  ............  oooooooooooooooooooo  ......  ooo",
"ooo      ............      ..                        ......  ooo",
"ooo      ............      ..                        ......  ooo",
"ooooooo    ................................................  ooo",
"ooooooo    ................................................  ooo",
"ooooooooo        ..........................................  ooo",
"ooooooooo        ..........................................  ooo",
"ooooooooooooo  ............................................  ooo",
"ooooooooooooo  ............................................  ooo",
"ooooooooooooo  ............................................  ooo",
"ooooooooooooo  ............................................  ooo",
"ooooooooooooo  ............................................  ooo",
"ooooooooooooo  ............................................  ooo",
"ooooooooooooo  ............................................  ooo",
"ooooooooooooo  ............................................  ooo",
"ooooooooooooo  ............................................  ooo",
"ooooooooooooo  ............................................  ooo",
"ooooooooooooo  ............................................  ooo",
"ooooooooooooo  ............................................  ooo",
"ooooooooooooo  ............................................  ooo",
"ooooooooooooo  ............................................  ooo",
"ooooooooooooo  ............................................  ooo",
"ooooooooooooo  ............................................  ooo",
"ooooooooooooo  ............................................  ooo",
"ooooooooooooo  ............................................  ooo",
"ooooooooooooo  ............................................  ooo",
"ooooooooooooo  ............................................  ooo",
"ooooooooooooo  ............................................  ooo",
"ooooooooooooo  ............................................  ooo",
"ooooooooooooo  ......                                ......  ooo",
"ooooooooooooo  ......                                ......  ooo",
"ooooooooooooo  ......  ..  oooooooooooooooooooo  ..  ......  ooo",
"ooooooooooooo  ......  ..  oooooooooooooooooooo  ..  ......  ooo",
"ooooooooooooo  ......  ..  oooooooooooooooooooo  ..  ......  ooo",
"ooooooooooooo  ......  ..  oooooooooooooooooooo  ..  ......  ooo",
"ooooooooooooo  ......  ..  oooooooooooooooooooo  ..  ......  ooo",
"ooooooooooooo  ......  ..  oooooooooooooooooooo  ..  ......  ooo",
"ooooooooooooo  ......  ..  oooooooooooooooooooo  ..  ......  ooo",
"ooooooooooooo              oooooooooooooooooooo              ooo",
"ooooooooooooo              oooooooooooooooooooo              ooo",
"oooooooooooooooooooooooooooooooooooooooooooooooooooooooooooooooo",
"oooooooooooooooooooooooooooooooooooooooooooooooooooooooooooooooo"
};
