/* XPM */
static char *xpm_[] = {
/* columns rows colors chars-per-pixel */
"64 64 5 1 ",
"  c black",
". c #9C5A3C",
"X c #C26F42",
"o c #FFA3B1",
"O c None",
/* pixels */
"OOOOOOOOOOOOOOOOOOOOOOOOOOOOOOOOOOOOOOOOOOOOOOOOOOOOOOOOOOOOOOOO",
"OOOOOOOOOOOOOOOOOOOOOOOOOOOOOOOOOOOOOOOOOOOOOOOOOOOOOOOOOOOOOOOO",
"OOOOOOOOOOOOO          OOOOOOOOOOOOOOOOOOOOOOOOOOOOOOOOOOOOOOOOO",
"OOOOOOOOOOOOO          OOOOOOOOOOOOOOOOOOOOOOOOOOOOOOOOOOOOOOOOO",
"OOOOOOOOOOO        XX    OOOOOOOOOOOOOOOOOOOOOOOOOO          OOO",
"OOOOOOOOOOO        XX    OOOOOOOOOOOOOOOOOOOOOOOOOO          OOO",
"OOOOOOOOOOO  XX    XXoo    OOOOOOOOOOOOOOOOOOOOOOOO  XXXXXX  OOO",
"OOOOOOOOOOO  XX    XXoo    OOOOOOOOOOOOOOOOOOOOOOOO  XXXXXX  OOO",
"OOOOOOOOOOO  XX    XXoooo  OOOOOOOOOOOOOOOOOOOOOOOO  XXXXXX  OOO",
"OOOOOOOOOOO  XX    XXoooo  OOOOOOOOOOOOOOOOOOOOOOOO  XXXXXX  OOO",
"OOOOOOOOO          XXoooo  OOOOOOOOOOOOOOOOOOOOOOOO  XXXXXX  OOO",
"OOOOOOOOO          XXoooo  OOOOOOOOOOOOOOOOOOOOOOOO  XXXXXX  OOO",
"OOOOOOO    .X..X.XXXXXXXX    OOOOOOOOOOOOOOOOOOOOOO  XXXXXX  OOO",
"OOOOOOO    .X..X.XXXXXXXX    OOOOOOOOOOOOOOOOOOOOOO  XXXXXX  OOO",
"OOOOOOO  XX.X..X.XXXXXXXXXX  OOOOOOOOOOOOOOOOOOOOOO  XXXXXX  OOO",
"OOOOOOO  XXXX..XXXXXXXXXXXX  OOOOOOOOOOOOOOOOOOOOOO  XXXXXX  OOO",
"OOOOO  XXXXXXXXXXXXXXXXXXXX    OOOOOOOOOOOOOOOOOOOO  XXXXXX  OOO",
"OOOOO  XXXXXXXXXXXXXXXXXXXX    OOOOOOOOOOOOOOOOOOOO  XXXXXX  OOO",
"OOOOO  XX  XXXXXX  XXXXXXXXXX  OOOOOOOOOOOOOOOOOOOO  XXXXXX  OOO",
"OOOOO  XX  XXXXXX  XXXXXXXXXX  OOOOOOOOOOOOOOOOOOOO  XXXXXX  OOO",
"OOO    XXXXXX  XXXXXX          OOOOOOOOOOOOOOOOOOOO  XXXXXX  OOO",
"OOO    XXXXXX  XXXXXX          OOOOOOOOOOOOOOOOOOOO  XXXXXX  OOO",
"OOOOO  XXXX  XX  XXXXXXXXXXXX  OOOOOOOOOOOOOOOOOOOO  XXXXXX  OOO",
"OOOOO  XXXX  XX  XXXXXXXXXXXX  OOOOOOOOOOOOOOOOOOOO  XXXXXX  OOO",
"OOO      XXXXXXXXXXXX      XX                        XXXXXX  OOO",
"OOO      XXXXXXXXXXXX      XX                        XXXXXX  OOO",
"OOOOOOO    XXXXXXXXXXXXXXXXXXXXXXXXXXXXXXXXXXXXXXXXXXXXXXXX  OOO",
"OOOOOOO    XXXXXXXXXXXXXXXXXXXXXXXXXXXXXXXXXXXXXXXXXXXXXXXX  OOO",
"OOOOOOOOO        XXXXXXXXXXXXXXXXXXXXXXXXXXXXXXXXXXXXXXXXXX  OOO",
"OOOOOOOOO        XXXXXXXXXXXXXXXXXXXXXXXXXXXXXXXXXXXXXXXXXX  OOO",
"OOOOOOOOOOOOO  XXXXXXXXXXXXXXXXXXXXXXXXXXXXXXXXXXXXXXXXXXXX  OOO",
"OOOOOOOOOOOOO  XXXXXXXXXXXXXXXXXXXXXXXXXXXXXXXXXXXXXXXXXXXX  OOO",
"OOOOOOOOOOOOO  XXXXXXXXXXXXXXXXXXXXXXXXXXXXXXXXXXXXXXXXXXXX  OOO",
"OOOOOOOOOOOOO  XXXXXXXXXXXXXXXXXXXXXXXXXXXXXXXXXXXXXXXXXXXX  OOO",
"OOOOOOOOOOOOO  XXXXXXXXXXXXXXXXXXXXXXXXXXXXXXXXXXXXXXXXXXXX  OOO",
"OOOOOOOOOOOOO  XXXXXXXXXXXXXXXXXXXXXXXXXXXXXXXXXXXXXXXXXXXX  OOO",
"OOOOOOOOOOOOO  XXXXXXXXXXXXXXXXXXXXXXXXXXXXXXXXXXXXXXXXXXXX  OOO",
"OOOOOOOOOOOOO  XXXXXXXXXXXXXXXXXXXXXXXXXXXXXXXXXXXXXXXXXXXX  OOO",
"OOOOOOOOOOOOO  XXXXXXXXXXXXXXXXXXXXXXXXXXXXXXXXXXXXXXXXXXXX  OOO",
"OOOOOOOOOOOOO  XXXXXXXXXXXXXXXXXXXXXXXXXXXXXXXXXXXXXXXXXXXX  OOO",
"OOOOOOOOOOOOO  XXXXXXXXXXXXXXXXXXXXXXXXXXXXXXXXXXXXXXXXXXXX  OOO",
"OOOOOOOOOOOOO  XXXXXXXXXXXXXXXXXXXXXXXXXXXXXXXXXXXXXXXXXXXX  OOO",
"OOOOOOOOOOOOO  XXXXXXXXXXXXXXXXXXXXXXXXXXXXXXXXXXXXXXXXXXXX  OOO",
"OOOOOOOOOOOOO  XXXXXXXXXXXXXXXXXXXXXXXXXXXXXXXXXXXXXXXXXXXX  OOO",
"OOOOOOOOOOOOO  XXXXXXXXXXXXXXXXXXXXXXXXXXXXXXXXXXXXXXXXXXXX  OOO",
"OOOOOOOOOOOOO  XXXXXXXXXXXXXXXXXXXXXXXXXXXXXXXXXXXXXXXXXXXX  OOO",
"OOOOOOOOOOOOO  XXXXXXXXXXXXXXXXXXXXXXXXXXXXXXXXXXXXXXXXXXXX  OOO",
"OOOOOOOOOOOOO  XXXXXXXXXXXXXXXXXXXXXXXXXXXXXXXXXXXXXXXXXXXX  OOO",
"OOOOOOOOOOOOO  XXXXXXXXXXXXXXXXXXXXXXXXXXXXXXXXXXXXXXXXXXXX  OOO",
"OOOOOOOOOOOOO  XXXXXXXXXXXXXXXXXXXXXXXXXXXXXXXXXXXXXXXXXXXX  OOO",
"OOOOOOOOOOOO   XXXXXXXXXXXXXXXXXXXXXXXXXXXXXXXXXXXXXXXXXXXX  OOO",
"OOOOOOOOOOO   XXXXXXXXXXXXXXXXXXXXXXXXXXXXXXXXXXXXXXXXXX     OOO",
"OOOOOOOOOO   ..XXXXXXXXXXXXXXXXXXXXXXXXXXXXXXXXXXXXXXXXXX    OOO",
"OOOOOOOOO   XX..XXX   XXXXX..            ..XXXXX    XXXX..   OOO",
"OOOOOOOO   XXXX..X     XXX..XX          XX..XXX      XX..XX   OO",
"OOOOOOOO  ..XXXX.   O   X..XXX.   OOO  ..XX..X   O   X..XXX.   O",
"OOOOOOOO  X..XXX   OOO   .XXX..X  OOO  X..XX.   OOO   .XXX..X  O",
"OOOOOOOO   X..X   OOOOO   XX..XX  OOO   X..X   OOOOO   XX..XX  O",
"OOOOOOOOO   X.   OOOOOOO   ..XX   OOOO   X.   OOOOOOO   ..XX   O",
"OOOOOOOOOO      OOOOOOOOO   XX   OOOOOO      OOOOOOOOO   XX   OO",
"OOOOOOOOOOO    OOOOOOOOOOO      OOOOOOOO    OOOOOOOOOOO      OOO",
"OOOOOOOOOOOOOOOOOOOOOOOOOOO    OOOOOOOOOOOOOOOOOOOOOOOOO    OOOO",
"OOOOOOOOOOOOOOOOOOOOOOOOOOOOOOOOOOOOOOOOOOOOOOOOOOOOOOOOOOOOOOOO",
"OOOOOOOOOOOOOOOOOOOOOOOOOOOOOOOOOOOOOOOOOOOOOOOOOOOOOOOOOOOOOOOO"
};
