/* XPM */
static char *xpm_[] = {
/* columns rows colors chars-per-pixel */
"64 64 73 1 ",
"  c black",
". c #010000",
"X c #010101",
"o c #020101",
"O c gray1",
"+ c #101010",
"@ c #111111",
"# c #111212",
"$ c gray7",
"% c #131313",
"& c gray8",
"* c #141514",
"= c #151515",
"- c #161414",
"; c #161616",
": c #1A1011",
"> c #1A1012",
", c #1D1214",
"< c #1C1314",
"1 c #1E1214",
"2 c gray14",
"3 c #252525",
"4 c gray15",
"5 c #272626",
"6 c #282828",
"7 c gray16",
"8 c #312729",
"9 c #C67E89",
"0 c #8B8B8B",
"q c gray55",
"w c #8D8D8D",
"e c #8E8E8E",
"r c gray56",
"t c gray62",
"y c #9E9F9F",
"u c #9F9F9F",
"i c #A79E9F",
"p c #A99FA0",
"a c #9FA0A0",
"s c #A0A0A0",
"d c #A0A1A1",
"f c gray63",
"g c #A1A2A2",
"h c #A2A2A2",
"j c #A3A2A2",
"k c gray64",
"l c #A4A4A4",
"z c #AAA0A2",
"x c #B1B1B1",
"c c #B2B2B2",
"v c gray70",
"b c #B3B4B4",
"n c #B4B4B4",
"m c #B5B4B4",
"M c gray71",
"N c #B6B6B6",
"B c #B7B7B7",
"V c #BBB1B2",
"C c #BCB2B4",
"Z c #BDB3B5",
"A c #BEB3B5",
"S c #BFB4B5",
"D c #DA929D",
"F c #E18F9C",
"G c #E3909D",
"H c #DD95A0",
"J c #C0B5B6",
"K c #EDA4AF",
"L c #EFA7B2",
"P c #F8A6B3",
"I c #FAA7B4",
"U c #FAA8B4",
"Y c #569969",
/* pixels */
"YYYYYYYYYYYYYYYYYYYYYYYYYYYYYYYYYYYYYYYYYYYYYYYYYYYYYYYYYYYYYYYY",
"YYYYYYYYYYYYYYYYYYYYYYYYYYYYYYYYYYYYYYYYYYYYYYYYYYYYYYYYYYYYYYYY",
"YYYYYYYYYYYYYYYYYYYYYYYYYYYYYYYYYYYYYYYYYYYYYYYYYYYYYYYYYYYYYYYY",
"YYYYYYYYYYYYYYYYYYYYYYYYYYYYYYYYYYYYYYYYYYYYYYYYYYYYYYYYYYYYYYYY",
"YYYYYYYYYYYYYYYYYYYYYYYYYYYYYYYYYYYYYYYYYYYYYYYYYYYYYYYYYYYYYYYY",
"YYYYYYYYYYYYYYYYYYYYYYYYYYYYYYYYYYYYYYYYYYYYYYYYYYYYYYYYYYYYYYYY",
"YYYYYYYYYYYYYYYYYYYYYYYYYY          YYYYYYYYYYYYYYYYYYYYYYYYYYYY",
"YYYYYYYYYYYYYYYYYYYYYYYYYY O%==;==O YYYYYYYYYYYYYYYYYYYYYYYYYYYY",
"YYYYYYYYYYYYYYYYYYYYYYYY   %0stusq%   YYYYYYYYYYYYYYYYYYYYYYYYYY",
"YYYYYYYYYYYYYYYYYYYYYYYY O%7sBcBBs7%  YYYYYYYYYYYYYYYYYYYYYYYYYY",
"YYYYYYYYYYYYYYYYYYYYYYYY %0scnnnccsq= YYYYYYYYYYYYYYYYYYYYYYYYYY",
"YYYYYYYYYYYYYYYYYYYYYYYY =sBnnnnnBBs= YYYYYYYYYYYYYYYYYYYYYYYYYY",
"YYYYYYYYYYYYYYYYYYYYYYYY =sBnBncBnBs= YYYYYYYYYYYYYYYYYYYYYYYYYY",
"YYYYYYYYYYYYYYYYYYYYYYYY %qsuuuuuuu0% YYYYYYYYYYYYYYYYYYYYYYYYYY",
"YYYYYYYYYYYYYYYYYYYY      %=%=%%%%=%      YYYYYYYYYYYYYYYYYYYYYY",
"YYYYYYYYYYYYYYYYYYYY O=;===%=%%%%%%==;;=O YYYYYYYYYYYYYYYYYYYYYY",
"YYYYYYYYYYYYYYYYYY   %0suuuuttuuuuuuuusq%   YYYYYYYYYYYYYYYYYYYY",
"YYYYYYYYYYYYYYYYYY  %7sBnBcBBcnBcBcBcBBs7=  YYYYYYYYYYYYYYYYYYYY",
"YYYYYYYYYYYYYYYYYY %0scBnnnncnnncBBccBccsq% YYYYYYYYYYYYYYYYYYYY",
"YYYYYYYYYYYYYYYYYY=7sBBcnnnnnnnnccccBcBcBs7=YYYYYYYYYYYYYYYYYYYY",
"YYYYYYYYYYYYYYYY =qsccBcnnnnnnnnBccBccBcBxsq= YYYYYYYYYYYYYYYYYY",
"YYYYYYYYYYYYYYYY =uBcBBcnnnnnnnvcBBcBccBcBBu= YYYYYYYYYYYYYYYYYY",
"YYYYYYYYYYYYYY   =uBBccBnnBcBnBnBccBcBccBcBu=   YYYYYYYYYYYYYYYY",
"YYYYYYYYYYYYYY O%7uBcBccccyuuuusuuusccBBccBu7=  YYYYYYYYYYYYYYYY",
"YYYYYYYYYYYYYY =0scBBccBcu7%%&==%%=7scBccBccs0% YYYYYYYYYYYYYYYY",
"YYYYYYYYYYYYYY =uBcccBBcBu= %%  %% %uBBccBBcBs= YYYYYYYYYYYYYYYY",
"YYYYYYYYYYYYYY =ucBcccccBu=%qq%%0q%=sBcBBccBBt% YYYYYYYYYYYYYYYY",
"YYYYYYYYYYYYYY =uBcBBcBcs0%=ss%&ss=%0sccccBcBu= YYYYYYYYYYYYYYYY",
"YYYYYYYYYYYY   =ucBcBcBu7% =ys&&ss= %7sBccBcBu=   YYYYYYYYYYYYYY",
"YYYYYYYYYYYY  %7sBccBcct= ,8sa&&aj8: =uBBccBBs7%O YYYYYYYYYYYYYY",
"YYYYYYYYYYYY =qscccBccBu&:9DCu&&uVD9:%tccBBcccsq= YYYYYYYYYYYYYY",
"YYYYYYYYYYYY ;sBcBBcBcBu&,GIJu&&uSIF,%uBcBccBcBs= YYYYYYYYYYYYYY",
"YYYYYYYYYYYY =uBnnnncBBu%,FICu=%uCIF,&uBBccBccBu= YYYYYYYYYYYYYY",
"YYYYYYYYYYYY %ucnnnnncnu%,FICu%=uCIF,%uccBBccBcu= YYYYYYYYYYYYYY",
"YYYYYYYYYYYY =uBnnnnnnBs=,GUJs=%yJUG,*uBccBcBBBu= YYYYYYYYYYYYYY",
"YYYYYYYYYYYY =ucnncBccs0%:9Di0%%0iD9:%0sxBcccccu= YYYYYYYYYYYYYY",
"YYYYYYYYYYYY =uBnnnnBs7%  ,,%%  %%::  %7sBBBBcct= YYYYYYYYYYYYYY",
"YYYYYYYYYYYY =uBnnccs0& %=&&%%=;%&&%== %0sccccBt; YYYYYYYYYYYYYY",
"YYYYYYYYYYYY =unBcBs7% &0yyuuuuuuuuus0% %7snnnBu; YYYYYYYYYYYYYY",
"YYYYYYYYYYYY %uBccBu% %7sBBncBcBcBBBBs7% %uBnnct; YYYYYYYYYYYYYY",
"YYYYYYYYYYYY ;ucnnBs%+0scvbcvBBcnnnnBxs0%%uBcBnt; YYYYYYYYYYYYYY",
"YYYYYYYYYYYY ;unccsq47sBbbbBvcvcnnnnvcBs44qsccBu; YYYYYYYYYYYYYY",
"YYYYYYYYYYYY ;yBBu44qscBbbBBBvBBnnBncBvcsq47sBBu; YYYYYYYYYYYYYY",
"YYYYYYYYYYYY ;uBBu%%sBBccxisxccvncssccBvBu%%ucBu; YYYYYYYYYYYYYY",
"YYYYYYYYYYYY =sBBu%%ucnnBa44sBbbBs44sBBcBu&&uBBs; YYYYYYYYYYYYYY",
"YYYYYYYYYYYY =qscu=%uBnnCi44scBcBs46zCcBBu&&ucsq= YYYYYYYYYYYYYY",
"YYYYYYYYYYYYYY=7ss%%uBvCLKzscBBBccszKLVbBu%%yl7%YYYYYYYYYYYYYYYY",
"YYYYYYYYYYYYYY &qq%%tBbCLLzaccsaccszKLCbcu%%qq% YYYYYYYYYYYYYYYY",
"YYYYYYYYYYYYYY O=% =sBcBCi44kk66ll45iCnBBs; ==  YYYYYYYYYYYYYYYY",
"YYYYYYYYYYYYYY     =qscBBu42rq%+qq44sBncs0=     YYYYYYYYYYYYYYYY",
"YYYYYYYYYYYYYYYY    %7sBcxsq4+O %4qlcnBs7=    YYYYYYYYYYYYYYYYYY",
"YYYYYYYYYYYYYYYY  == %qscBBl6*;;%4sBccs0% %=  YYYYYYYYYYYYYYYYYY",
"YYYYYYYYYYYYYYYY %qr% %7sBbbssssiabBBs7% %qq= YYYYYYYYYYYYYYYYYY",
"YYYYYYYYYYYYYYYY %rq%  *0syissssaauusq%  %rr= YYYYYYYYYYYYYYYYYY",
"YYYYYYYYYYYYYYYY O%%O  O%==;;;;;==*=;=O   =%O YYYYYYYYYYYYYYYYYY",
"YYYYYYYYYYYYYYYY                              YYYYYYYYYYYYYYYYYY",
"YYYYYYYYYYYYYYYYYYYYYYYYYYYYYYYYYYYYYYYYYYYYYYYYYYYYYYYYYYYYYYYY",
"YYYYYYYYYYYYYYYYYYYYYYYYYYYYYYYYYYYYYYYYYYYYYYYYYYYYYYYYYYYYYYYY",
"YYYYYYYYYYYYYYYYYYYYYYYYYYYYYYYYYYYYYYYYYYYYYYYYYYYYYYYYYYYYYYYY",
"YYYYYYYYYYYYYYYYYYYYYYYYYYYYYYYYYYYYYYYYYYYYYYYYYYYYYYYYYYYYYYYY",
"YYYYYYYYYYYYYYYYYYYYYYYYYYYYYYYYYYYYYYYYYYYYYYYYYYYYYYYYYYYYYYYY",
"YYYYYYYYYYYYYYYYYYYYYYYYYYYYYYYYYYYYYYYYYYYYYYYYYYYYYYYYYYYYYYYY",
"YYYYYYYYYYYYYYYYYYYYYYYYYYYYYYYYYYYYYYYYYYYYYYYYYYYYYYYYYYYYYYYY",
"YYYYYYYYYYYYYYYYYYYYYYYYYYYYYYYYYYYYYYYYYYYYYYYYYYYYYYYYYYYYYYYY"
};
