/* XPM */
static char *xpm_[] = {
/* columns rows colors chars-per-pixel */
"64 64 4 1 ",
"  c black",
". c #B4B4B4",
"X c #FFA3B1",
"o c #569969",
/* pixels */
"oooooooooooooooooooooooooooooooooooooooooooooooooooooooooooooooo",
"ooooooooooooooooooooooooooooooooooooooooo          ooooooooooooo",
"ooooooooooooooooooooooooooooooooooooooooo          ooooooooooooo",
"ooo          oooooooooooooooooooooooooo    ..        ooooooooooo",
"ooo          oooooooooooooooooooooooooo    ..        ooooooooooo",
"ooo  ......  oooooooooooooooooooooooo    XX..    ..  ooooooooooo",
"ooo  ......  oooooooooooooooooooooooo    XX..    ..  ooooooooooo",
"ooo  ......  oooooooooooooooooooooooo  XXXX..    ..  ooooooooooo",
"ooo  ......  oooooooooooooooooooooooo  XXXX..    ..  ooooooooooo",
"ooo  ......  oooooooooooooooooooooooo  XXXX..          ooooooooo",
"ooo  ......  oooooooooooooooooooooooo  XXXX..          ooooooooo",
"ooo  ......  oooooooooooooooooooooo    ..............    ooooooo",
"ooo  ......  oooooooooooooooooooooo    ..............    ooooooo",
"ooo  ......  oooooooooooooooooooooo  ..................  ooooooo",
"ooo  ......  oooooooooooooooooooooo  ..................  ooooooo",
"ooo  ......  oooooooooooooooooooo    ....................  ooooo",
"ooo  ......  oooooooooooooooooooo    ....................  ooooo",
"ooo  ......  oooooooooooooooooooo  ..........  ......  ..  ooooo",
"ooo  ......  oooooooooooooooooooo  ..........  ......  ..  ooooo",
"ooo  ......  oooooooooooooooooooo          ......  ......    ooo",
"ooo  ......  oooooooooooooooooooo          ......  ......    ooo",
"ooo  ......  oooooooooooooooooooo  ............  ..  ....  ooooo",
"ooo  ......  oooooooooooooooooooo  ............  ..  ....  ooooo",
"ooo  ......                        ..      ............      ooo",
"ooo  ......                        ..      ............      ooo",
"ooo  ................................................    ooooooo",
"ooo  ................................................    ooooooo",
"ooo  ..........................................        ooooooooo",
"ooo  ..........................................        ooooooooo",
"ooo  ............................................  ooooooooooooo",
"ooo  ............................................  ooooooooooooo",
"ooo  ............................................  ooooooooooooo",
"ooo  ............................................  ooooooooooooo",
"ooo  ............................................  ooooooooooooo",
"ooo  ............................................  ooooooooooooo",
"ooo  ............................................  ooooooooooooo",
"ooo  ............................................  ooooooooooooo",
"ooo  ............................................  ooooooooooooo",
"ooo  ............................................  ooooooooooooo",
"ooo  ............................................  ooooooooooooo",
"ooo  ............................................  ooooooooooooo",
"ooo  ............................................  ooooooooooooo",
"ooo  ............................................  ooooooooooooo",
"ooo  ............................................  ooooooooooooo",
"ooo  ............................................  ooooooooooooo",
"ooo  ............................................  ooooooooooooo",
"ooo  ............................................  ooooooooooooo",
"ooo  ............................................  ooooooooooooo",
"ooo  ............................................  ooooooooooooo",
"ooo  ............................................  ooooooooooooo",
"ooo  ............................................  ooooooooooooo",
"ooo  ......                                ......  ooooooooooooo",
"ooo  ......                                ......  ooooooooooooo",
"ooo  ......  ..  oooooooooooooooooooo  ..  ......  ooooooooooooo",
"ooo  ......  ..  oooooooooooooooooooo  ..  ......  ooooooooooooo",
"ooo  ......  ..  oooooooooooooooooooo  ..  ......  ooooooooooooo",
"ooo  ......  ..  oooooooooooooooooooo  ..  ......  ooooooooooooo",
"ooo  ......  ..  oooooooooooooooooooo  ..  ......  ooooooooooooo",
"ooo  ......  ..  oooooooooooooooooooo  ..  ......  ooooooooooooo",
"ooo  ......  ..  oooooooooooooooooooo  ..  ......  ooooooooooooo",
"ooo              oooooooooooooooooooo              ooooooooooooo",
"ooo              oooooooooooooooooooo              ooooooooooooo",
"oooooooooooooooooooooooooooooooooooooooooooooooooooooooooooooooo",
"oooooooooooooooooooooooooooooooooooooooooooooooooooooooooooooooo"
};
