/* XPM */
static char *xpm_[] = {
/* columns rows colors chars-per-pixel */
"64 64 5 1 ",
"  c black",
". c #9C5A3C",
"X c #C26F42",
"o c #FFA3B1",
"O c None",
/* pixels */
"OOOOOOOOOOOOOOOOOOOOOOOOOOOOOOOOOOOOOOOOOOOOOOOOOOOOOOOOOOOOOOOO",
"OOOOOOOOOOOOOOOOOOOOOOOOOOOOOOOOOOOOOOOOOOOOOOOOOOOOOOOOOOOOOOOO",
"OOOOOOOOOOOOOOOOOOOOOOOOOO    OO    OOOOOOOOOOOOOOOOOOOOOOOOOOOO",
"OOOOOOOOOOOOOOOOOOOOOOOOOO    OO    OOOOOOOOOOOOOOOOOOOOOOOOOOOO",
"OOOOOOOOOOOOOOOOOOOOOOOO      OO              OOOOOOOOOOOOOOOOOO",
"OOOOOOOOOOOOOOOOOOOOOOOO      OO              OOOOOOOOOOOOOOOOOO",
"OOOOOOOOOOOOOOOOOOOOOO    XX  OO  XX    XXXX  OOOOOOOOOOOOOOOOOO",
"OOOOOOOOOOOOOOOOOOOOOO    XX  OO  XX    XXXX  OOOOOOOOOOOOOOOOOO",
"OOOOOOOOOOOOOOOOOOOOOO  ooXX  OO  XXoo  XXXX  OOOOOOOOOOOOOOOOOO",
"OOOOOOOOOOOOOOOOOOOOOO  ooXX  OO  XXoo  XXXX  OOOOOOOOOOOOOOOOOO",
"OOOOOOOOOOOOOOOOOOOOOO  ooXX      XXoo  XXXX  OOOOOOOOOOOOOOOOOO",
"OOOOOOOOOOOOOOOOOOOOOO  ooXX      XXoo  XXXX  OOOOOOOOOOOOOOOOOO",
"OOOOOOOOOOOOOOOOOOOO    XXXX.X..X.XXXX  XXXX  OOOOOOOOOOOOOOOOOO",
"OOOOOOOOOOOOOOOOOOOO    XXXX.X..X.XXXX  XXXX  OOOOOOOOOOOOOOOOOO",
"OOOOOOOOOOOOOOOOOOOO  XXXXXXXX..XXXXXX  XXXX  OOOOOOOOOOOOOOOOOO",
"OOOOOOOOOOOOOOOOOOOO  XXXXXXXXXXXXXXXX  XXXX  OOOOOOOOOOOOOOOOOO",
"OOOOOOOOOOOOOOOOOO    XXXXXXXXXXXXXXXX  XXXX  OOOOOOOOOOOOOOOOOO",
"OOOOOOOOOOOOOOOOOO    XXXXXXXXXXXXXXXX  XXXX  OOOOOOOOOOOOOOOOOO",
"OOOOOOOOOOOOOOOOOO  XXXXXXXXXXXXXXXXXX  XXXX  OOOOOOOOOOOOOOOOOO",
"OOOOOOOOOOOOOOOOOO  XXXXXXXXXXXXXXXXXX  XXXX  OOOOOOOOOOOOOOOOOO",
"OOOOOOOOOOOOOO      XXXXXXXXXXXXXXXXXX  XXXX  OOOOOOOOOOOOOOOOOO",
"OOOOOOOOOOOOOO      XXXXXXXXXXXXXXXXXX  XXXX  OOOOOOOOOOOOOOOOOO",
"OOOOOOOOOOOOOOOOOO  XXXXXXXX            XXXX  OOOOOOOOOOOOOOOOOO",
"OOOOOOOOOOOOOOOOOO  XXXXXXXX            XXXX  OOOOOOOOOOOOOOOOOO",
"OOOOOOOOOOOOOOOO      XXXXXX  XXXXXXXXXXXXXX    OOOOOOOOOOOOOOOO",
"OOOOOOOOOOOOOOOO      XXXXXX  XXXXXXXXXXXXXX    OOOOOOOOOOOOOOOO",
"OOOOOOOOOOOOOOOOOOOO    XXXX  XXXXXXXXXXXXXX  OOOOOOOOOOOOOOOOOO",
"OOOOOOOOOOOOOOOOOOOO    XXXX  XXXXXXXXXXXXXX  OOOOOOOOOOOOOOOOOO",
"OOOOOOOOOOOOOOOOOOOOOO  XXXX  XXXX            OOOOOOOOOOOOOOOOOO",
"OOOOOOOOOOOOOOOOOOOOOO  XXXX  XXXX            OOOOOOOOOOOOOOOOOO",
"OOOOOOOOOOOOOOOOOO    XXXXXX  XXXX  XXXX      OOOOOOOOOOOOOOOOOO",
"OOOOOOOOOOOOOOOOOO    XXXXXX  XXXX  XXXX      OOOOOOOOOOOOOOOOOO",
"OOOOOOOOOOOOOOOOOO  XXXXXXXX  XXXX  XXXXXX    OOOOOOOOOOOOOOOOOO",
"OOOOOOOOOOOOOOOOOO  XXXXXXXX  XXXX  XXXXXX    OOOOOOOOOOOOOOOOOO",
"OOOOOOOOOOOOOOOO  XXXXXXXXXX  XXXX  XXXXXXXX  OOOOOOOOOOOOOOOOOO",
"OOOOOOOOOOOOOOOO  XXXXXXXXXX  XXXX  XXXXXXXX  OOOOOOOOOOOOOOOOOO",
"OOOOOOOOOOOOOOOO  XXXXXXXXXXXXXXXXXXXXXXXXXX  OOOOOOOOOOOOOOOOOO",
"OOOOOOOOOOOOOOOO  XXXXXXXXXXXXXXXXXXXXXXXXXX  OOOOOOOOOOOOOOOOOO",
"OOOOOOOOOOOOOOOO  XXXXXXXXXX  XX  XXXXXXXXXX  OOOOOOOOOOOOOOOOOO",
"OOOOOOOOOOOOOOOO  XXXXXXXXXX  XX  XXXXXXXXXX  OOOOOOOOOOOOOOOOOO",
"OOOOOOOOOOOOOOOO  XXXXXXXXXXXX  XXXXXXXXXXXX  OOOOOOOOOOOOOOOOOO",
"OOOOOOOOOOOOOOOO  XXXXXXXXXXXX  XXXXXXXXXXXX  OOOOOOOOOOOOOOOOOO",
"OOOOOOOOOOOOOOOO  XXXXXXXXXX  XX  XXXXXXXXXX  OOOOOOOOOOOOOOOOOO",
"OOOOOOOOOOOOOOOO  XXXXXXXXXX  XX  XXXXXXXXXX  OOOOOOOOOOOOOOOOOO",
"OOOOOOOOOOOOOOOO  XXXXXXXXXXXXXXXXXXXXXXXXXX  OOOOOOOOOOOOOOOOOO",
"OOOOOOOOOOOOOOOO  XXXXXXXXXXXXXXXXXXXXXXXXXX  OOOOOOOOOOOOOOOOOO",
"OOOOOOOOOOOOOOOO  XXXXXXXXXXXXXXXXXXXXXXXXXX  OOOOOOOOOOOOOOOOOO",
"OOOOOOOOOOOOOOOO  XXXXXXXXXXXXXXXXXXXXXXXXXX  OOOOOOOOOOOOOOOOOO",
"OOOOOOOOOOOOOOOO  XXXXXXXXXXXXXXXXXXXXXXXXXX  OOOOOOOOOOOOOOOOOO",
"OOOOOOOOOOOOOOOO  XXXXXXXXXXXXXXXXXXXXXXXXXX  OOOOOOOOOOOOOOOOOO",
"OOOOOOOOOOOOOOOO  XXXXXXXXXXXXXXXXXXXXXXXXXX  OOOOOOOOOOOOOOOOOO",
"OOOOOOOOOOOOOOOO  XXXXXXXXXXXXXXXXXXXXXXXXXX  OOOOOOOOOOOOOOOOOO",
"OOOOOOOOOOOOOOOO    XXXXXX          XXXXXX    OOOOOOOOOOOOOOOOOO",
"OOOOOOOOOOOOOOOO    ......          ......    OOOOOOOOOOOOOOOOOO",
"OOOOOOOOOOOOOOOOOO  ......  OOOOOO  ......  OOOOOOOOOOOOOOOOOOOO",
"OOOOOOOOOOOOOOOOOO  XXXXXX  OOOOOO  XXXXXX  OOOOOOOOOOOOOOOOOOOO",
"OOOOOOOOOOOOOOOOOO  XXXXXX  OOOOOO  XXXXXX  OOOOOOOOOOOOOOOOOOOO",
"OOOOOOOOOOOOOOOOOO  ......  OOOOOO  ......  OOOOOOOOOOOOOOOOOOOO",
"OOOOOOOOOOOOOOOOOO  ......  OOOOOO  ......  OOOOOOOOOOOOOOOOOOOO",
"OOOOOOOOOOOOOOOOOO  XXXXXX  OOOOOO          OOOOOOOOOOOOOOOOOOOO",
"OOOOOOOOOOOOOOOOOO          OOOOOO          OOOOOOOOOOOOOOOOOOOO",
"OOOOOOOOOOOOOOOOOO          OOOOOOOOOOOOOOOOOOOOOOOOOOOOOOOOOOOO",
"OOOOOOOOOOOOOOOOOOOOOOOOOOOOOOOOOOOOOOOOOOOOOOOOOOOOOOOOOOOOOOOO",
"OOOOOOOOOOOOOOOOOOOOOOOOOOOOOOOOOOOOOOOOOOOOOOOOOOOOOOOOOOOOOOOO"
};
