/* XPM */
static char *xpm_[] = {
/* columns rows colors chars-per-pixel */
"256 64 5 1 ",
"  c black",
". c #464646",
"X c #FFA3B1",
"o c white",
"O c None",
/* pixels */
"OOOOOOOOOOOOOOOOOOOOOOOOOOOOOOOOOOOOOOOOOOOOOOOOOOOOOOOOOOOOOOOOOOOOOOOOOOOOOOOOOOOOOOOOOOOOOOOOOOOOOOOOOOOOOOOOOOOOOOOOOOOOOOOOOOOOOOOOOOOOOOOOOOOOOOOOOOOOOOOOOOOOOOOOOOOOOOOOOOOOOOOOOOOOOOOOOOOOOOOOOOOOOOOOOOOOOOOOOOOOOOOOOOOOOOOOOOOOOOOOOOOOOOOOOOOOOOOO",
"OOOOOOOOOOOOOOOOOOOOOOOOOOOOOOOOOOOOOOOOOOOOOOOOOOOOOOOOOOOOOOOOOOOOOOOOOOOOOOOOOOOOOOOOOOOO    OO    OOOOOOOOOOOOOOOOOOOOOOOOOOOOOOOOOOOOOOOOOOOOOOOOOOOOOOOOOOOOOOOOOOOOOOOOOOOOOOOOOOOOOOOOOOOOOOOOOOOOOOOOOOOOOOOOOOOOOO    OO    OOOOOOOOOOOOOOOOOOOOOOOOOO",
"OOOOOOOOOOOOOOOOOOOOOOOOOOOO    OO    OOOOOOOOOOOOOOOOOOOOOOOOOOOOOOOOOOOOOOOOOOOOOOOOOOOOOO    OO    OOOOOOOOOOOOOOOOOOOOOOOOOOOOOOOOOOOOOOOOOOOOOOOOOOOOOO    OO    OOOOOOOOOOOOOOOOOOOOOOOOOOOOOOOOOOOOOOOOOOOOOOOOOOOOOO    OO    OOOOOOOOOOOOOOOOOOOOOOOOOO",
"OOOOOOOOOOOOOOOOOOOOOOOOOOOO    OO    OOOOOOOOOOOOOOOOOOOOOOOOOOOOOOOOOOOOOOOOOOOO              OO      OOOOOOOOOOOOOOOOOOOOOOOOOOOOOOOOOOOOOOOOOOOOOOOOOOOO    OO    OOOOOOOOOOOOOOOOOOOOOOOOOOOOOOOOOOOOOOOOOOOO              OO      OOOOOOOOOOOOOOOOOOOOOOOO",
"OOOOOOOOOOOOOOOOOO              OO      OOOOOOOOOOOOOOOOOOOOOOOOOOOOOOOOOOOOOOOOOO              OO      OOOOOOOOOOOOOOOOOOOOOOOOOOOOOOOOOOOOOOOOOO              OO      OOOOOOOOOOOOOOOOOOOOOOOOOOOOOOOOOOOOOOOOOO              OO      OOOOOOOOOOOOOOOOOOOOOOOO",
"OOOOOOOOOOOOOOOOOO              OO      OOOOOOOOOOOOOOOOOOOOOOOOOOOOOOOOOOOOOOOOOO  oooo    oo  OO  oo    OOOOOOOOOOOOOOOOOOOOOOOOOOOOOOOOOOOOOOOO              OO      OOOOOOOOOOOOOOOOOOOOOOOOOOOOOOOOOOOOOOOOOO  oooo    oo  OO  oo    OOOOOOOOOOOOOOOOOOOOOO",
"OOOOOOOOOOOOOOOOOO  oooo    oo  OO  oo    OOOOOOOOOOOOOOOOOOOOOOOOOOOOOOOOOOOOOOOO  oooo    oo  OO  oo    OOOOOOOOOOOOOOOOOOOOOOOOOOOOOOOOOOOOOOOO  oooo    oo  OO  oo    OOOOOOOOOOOOOOOOOOOOOOOOOOOOOOOOOOOOOOOO  oooo    oo  OO  oo    OOOOOOOOOOOOOOOOOOOOOO",
"OOOOOOOOOOOOOOOOOO  oooo    oo  OO  oo    OOOOOOOOOOOOOOOOOOOOOOOOOOOOOOOOOOOOOOOO  oooo  XXoo  OO  ooXX  OOOOOOOOOOOOOOOOOOOOOOOOOOOOOOOOOOOOOOOO  oooo    oo  OO  oo    OOOOOOOOOOOOOOOOOOOOOOOOOOOOOOOOOOOOOOOO  oooo  XXoo  OO  ooXX  OOOOOOOOOOOOOOOOOOOOOO",
"OOOOOOOOOOOOOOOOOO  oooo  XXoo  OO  ooXX  OOOOOOOOOOOOOOOOOOOOOOOOOOOOOOOOOOOOOOOO  oooo  XXoo  OO  ooXX  OOOOOOOOOOOOOOOOOOOOOOOOOOOOOOOOOOOOOOOO  oooo  XXoo  OO  ooXX  OOOOOOOOOOOOOOOOOOOOOOOOOOOOOOOOOOOOOOOO  oooo  XXoo  OO  ooXX  OOOOOOOOOOOOOOOOOOOOOO",
"OOOOOOOOOOOOOOOOOO  oooo  XXoo  OO  ooXX  OOOOOOOOOOOOOOOOOOOOOOOOOOOOOOOOOOOOOOOO  oooo  XXoo      ooXX  OOOOOOOOOOOOOOOOOOOOOOOOOOOOOOOOOOOOOOOO  oooo  XXoo  OO  ooXX  OOOOOOOOOOOOOOOOOOOOOOOOOOOOOOOOOOOOOOOO  oooo  XXoo      ooXX  OOOOOOOOOOOOOOOOOOOOOO",
"OOOOOOOOOOOOOOOOOO  oooo  XXoo      ooXX  OOOOOOOOOOOOOOOOOOOOOOOOOOOOOOOOOOOOOOOO  oooo  XXoo      ooXX  OOOOOOOOOOOOOOOOOOOOOOOOOOOOOOOOOOOOOOOO  oooo  XXoo      ooXX  OOOOOOOOOOOOOOOOOOOOOOOOOOOOOOOOOOOOOOOO  oooo  XXoo      ooXX  OOOOOOOOOOOOOOOOOOOOOO",
"OOOOOOOOOOOOOOOOOO  oooo  XXoo      ooXX  OOOOOOOOOOOOOOOOOOOOOOOOOOOOOOOOOOOOOOOO  ..    oooooooooooooo    OOOOOOOOOOOOOOOOOOOOOOOOOOOOOOOOOOOOOO  oooo  XXoo      ooXX  OOOOOOOOOOOOOOOOOOOOOOOOOOOOOOOOOOOOOOOO  ..    oooooooooooooo    OOOOOOOOOOOOOOOOOOOO",
"OOOOOOOOOOOOOOOOOO  ..    oooooooooooooo    OOOOOOOOOOOOOOOOOOOOOOOOOOOOOOOOOOOOOO  ..    oooooooooooooo    OOOOOOOOOOOOOOOOOOOOOOOOOOOOOOOOOOOOOO  ..    oooooooooooooo    OOOOOOOOOOOOOOOOOOOOOOOOOOOOOOOOOOOOOO  ..    oooooooooooooo    OOOOOOOOOOOOOOOOOOOO",
"OOOOOOOOOOOOOOOOOO  ..    oooooooooooooo    OOOOOOOOOOOOOOOOOOOOOOOOOOOOOOOOOOOOOO  oo  oooooooooooooooooo  OOOOOOOOOOOOOOOOOOOOOOOOOOOOOOOOOOOOOO  ..    oooooooooooooo    OOOOOOOOOOOOOOOOOOOOOOOOOOOOOOOOOOOOOO  oo  oooooooooooooooooo  OOOOOOOOOOOOOOOOOOOO",
"OOOOOOOOOOOOOOOOOO  oo  oooooooooooooooooo  OOOOOOOOOOOOOOOOOOOOOOOOOOOOOOOOOOOOOO  oo  oooooooooooooooooo  OOOOOOOOOOOOOOOOOOOOOOOOOOOOOOOOOOOOOO  oo  oooooooooooooooooo  OOOOOOOOOOOOOOOOOOOOOOOOOOOOOOOOOOOOOO  oo  oooooooooooooooooo  OOOOOOOOOOOOOOOOOOOO",
"OOOOOOOOOOOOOOOOOO  oo  oooooooooooooooooo  OOOOOOOOOOOOOOOOOOOOOOOOOOOOOOOOOOOOOO      oooooooooooooooooo    OOOOOOOOOOOOOOOOOOOOOOOOOOOOOOOOOOOO  oo  oooooooooooooooooo  OOOOOOOOOOOOOOOOOOOOOOOOOOOOOOOOOOOOOO      oooooooooooooooooo    OOOOOOOOOOOOOOOOOO",
"OOOOOOOOOOOOOOOOOO      oooooooooooooooooo    OOOOOOOOOOOOOOOOOOOOOOOOOOOOOOOOOOOO      oooooooooooooooooo    OOOOOOOOOOOOOOOOOOOOOOOOOOOOOOOOOOOO      oooooooooooooooooo    OOOOOOOOOOOOOOOOOOOOOOOOOOOOOOOOOOOO      oooooooooooooooooo    OOOOOOOOOOOOOOOOOO",
"OOOOOOOOOOOOOOOOOO      oooooooooooooooooo    OOOOOOOOOOOOOOOOOOOOOOOOOOOOOOOOOOOO    oooooo  oooooo  oooooo  OOOOOOOOOOOOOOOOOOOOOOOOOOOOOOOOOOOO      oooooooooooooooooo    OOOOOOOOOOOOOOOOOOOOOOOOOOOOOOOOOOOO    oooooo  oooooo  oooooo  OOOOOOOOOOOOOOOOOO",
"OOOOOOOOOOOOOOOOOO    oooooo  oooooo  oooooo  OOOOOOOOOOOOOOOOOOOOOOOOOOOOOOOOOOOO    oooooo  oooooo  oooooo  OOOOOOOOOOOOOOOOOOOOOOOOOOOOOOOOOOOO    oooooo  oooooo  oooooo  OOOOOOOOOOOOOOOOOOOOOOOOOOOOOOOOOOOO    oooooo  oooooo  oooooo  OOOOOOOOOOOOOOOOOO",
"OOOOOOOOOOOOOOOOOO    oooooo  oooooo  oooooo  OOOOOOOOOOOOOOOOOOOOOOOOOOOOOOOO          oooooooo  oooooo          OOOOOOOOOOOOOOOOOOOOOOOOOOOOOOOO    oooooo  oooooo  oooooo  OOOOOOOOOOOOOOOOOOOOOOOOOOOOOOOO          oooooooo  oooooo          OOOOOOOOOOOOOO",
"OOOOOOOOOOOOOO          oooooooo  oooooo          OOOOOOOOOOOOOOOOOOOOOOOOOOOO          oooooooo  oooooo          OOOOOOOOOOOOOOOOOOOOOOOOOOOO          oooooooo  oooooo          OOOOOOOOOOOOOOOOOOOOOOOOOOOO          oooooooo  oooooo          OOOOOOOOOOOOOO",
"OOOOOOOOOOOOOO          oooooooo  oooooo          OOOOOOOOOOOOOOOOOOOOOOOOOOOOOOOO    oooooooo  oo  oooooooo  OOOOOOOOOOOOOOOOOOOOOOOOOOOOOOOO          oooooooo  oooooo          OOOOOOOOOOOOOOOOOOOOOOOOOOOOOOOO    oooooooo  oo  oooooooo  OOOOOOOOOOOOOOOOOO",
"OOOOOOOOOOOOOOOOOO    oooooooo  oo  oooooooo  OOOOOOOOOOOOOOOOOOOOOOOOOOOOOOOOOOOO    oooooooo  oo  oooooooo  OOOOOOOOOOOOOOOOOOOOOOOOOOOOOOOOOOOO    oooooooo  oo  oooooooo  OOOOOOOOOOOOOOOOOOOOOOOOOOOOOOOOOOOO    oooooooo  oo  oooooooo  OOOOOOOOOOOOOOOOOO",
"OOOOOOOOOOOOOOOOOO    oooooooo  oo  oooooooo  OOOOOOOOOOOOOOOOOOOOOOOOOOOOOOOOOO        oooooooooooooooo        OOOOOOOOOOOOOOOOOOOOOOOOOOOOOOOOOO    oooooooo  oo  oooooooo  OOOOOOOOOOOOOOOOOOOOOOOOOOOOOOOOOO        oooooooooooooooo        OOOOOOOOOOOOOOOO",
"OOOOOOOOOOOOOOOO        oooooooooooooooo        OOOOOOOOOOOOOOOOOOOOOOOOOOOOOOOO        oooooooooooooooo        OOOOOOOOOOOOOOOOOOOOOOOOOOOOOOOO        oooooooooooooooo        OOOOOOOOOOOOOOOOOOOOOOOOOOOOOOOO        oooooooooooooooo        OOOOOOOOOOOOOOOO",
"OOOOOOOOOOOOOOOO        oooooooooooooooo        OOOOOOOOOOOOOOOOOOOOOOOOOOOOOOOOOO  oo    oooooooooooooo    OOOOOOOOOOOOOOOOOOOOOOOOOOOOOOOOOOOO        oooooooooooooooo        OOOOOOOOOOOOOOOOOOOOOOOOOOOOOOOOOO  oo    oooooooooooooo    OOOOOOOOOOOOOOOOOOOO",
"OOOOOOOOOOOOOOOOOO  oo    oooooooooooooo    OOOOOOOOOOOOOOOOOOOOOOOOOOOOOOOOOOOOOO  oo    oooooooooooooo    OOOOOOOOOOOOOOOOOOOOOOOOOOOOOOOOOOOOOO  oo    oooooooooooooo    OOOOOOOOOOOOOOOOOOOOOOOOOOOOOOOOOOOOOO  oo    oooooooooooooo    OOOOOOOOOOOOOOOOOOOO",
"OOOOOOOOOOOOOOOOOO  oo    oooooooooooooo    OOOOOOOOOOOOOOOOOOOOOOOOOOOOOOOOOOOOOO  oooo    oooooooooo    OOOOOOOOOOOOOOOOOOOOOOOOOOOOOOOOOOOOOOOO  oo    oooooooooooooo    OOOOOOOOOOOOOOOOOOOOOOOOOOOOOOOOOOOOOO  oooo    oooooooooo    OOOOOOOOOOOOOOOOOOOOOO",
"OOOOOOOOOOOOOOOOOO  oooo    oooooooooo    OOOOOOOOOOOOOOOOOOOOOOOOOOOOOOOOOOOOOOOO  oooo    oooooooooo    OOOOOOOOOOOOOOOOOOOOOOOOOOOOOOOOOOOOOOOO  oooo    oooooooooo    OOOOOOOOOOOOOOOOOOOOOOOOOOOOOOOOOOOOOOOO  oooo    oooooooooo    OOOOOOOOOOOOOOOOOOOOOO",
"OOOOOOOOOOOOOOOOOO  oooo    oooooooooo    OOOOOOOOOOOOOOOOOOOOOOOOOOOOOOOOOOOOOOOO      oooooooooooooooooo    OOOOOOOOOOOOOOOOOOOOOOOOOOOOOOOOOOOO  oooo    oooooooooo    OOOOOOOOOOOOOOOOOOOOOOOOOOOOOOOOOOOOOOOO      oooooooooooooooooo    OOOOOOOOOOOOOOOOOO",
"OOOOOOOOOOOOOOOOOO      oooooooooooooooooo    OOOOOOOOOOOOOOOOOOOOOOOOOOOOOOOOOOOO      oooooooooooooooooo    OOOOOOOOOOOOOOOOOOOOOOOOOOOOOOOOOOOO      oooooooooooooooooo    OOOOOOOOOOOOOOOOOOOOOOOOOOOOOOOOOOOO      oooooooooooooooooo    OOOOOOOOOOOOOOOOOO",
"OOOOOOOOOOOOOOOOOO      oooooooooooooooooo    OOOOOOOOOOOOOOOOOOOOOOOOOOOOOOOOOOOO    oooooooooooooooooooooo  OOOOOOOOOOOOOOOOOOOOOOOOOOOOOOOOOOOO      oooooooooooooooooo    OOOOOOOOOOOOOOOOOOOOOOOOOOOOOOOOOOOO    oooooooooooooooooooooo  OOOOOOOOOOOOOOOOOO",
"OOOOOOOOOOOOOOOOOO    oooooooooooooooooooooo  OOOOOOOOOOOOOOOOOOOOOOOOOOOOOOOOOOOO    oooooooooooooooooooooo  OOOOOOOOOOOOOOOOOOOOOOOOOOOOOOOOOOOO    oooooooooooooooooooooo  OOOOOOOOOOOOOOOOOOOOOOOOOOOOOOOOOOOO    oooooooooooooooooooooo  OOOOOOOOOOOOOOOOOO",
"OOOOOOOOOOOOOOOOOO    oooooooooooooooooooooo  OOOOOOOOOOOOOOOOOOOOOOOOOOOOOOOOOOOO  oooooooooooooooooooooooooo  OOOOOOOOOOOOOOOOOOOOOOOOOOOOOOOOOO    oooooooooooooooooooooo  OOOOOOOOOOOOOOOOOOOOOOOOOOOOOOOOOOOO  oooooooooooooooooooooooooo  OOOOOOOOOOOOOOOO",
"OOOOOOOOOOOOOOOOOO  oooooooooooooooooooooooooo  OOOOOOOOOOOOOOOOOOOOOOOOOOOOOOOOOO  oooooooooooooooooooooooooo  OOOOOOOOOOOOOOOOOOOOOOOOOOOOOOOOOO  oooooooooooooooooooooooooo  OOOOOOOOOOOOOOOOOOOOOOOOOOOOOOOOOO  oooooooooooooooooooooooooo  OOOOOOOOOOOOOOOO",
"OOOOOOOOOOOOOOOOOO  oooooooooooooooooooooooooo  OOOOOOOOOOOOOOOOOOOOOOOOOOOOOOOOOO  ....oooooooooooooooooo....  OOOOOOOOOOOOOOOOOOOOOOOOOOOOOOOOOO  oooooooooooooooooooooooooo  OOOOOOOOOOOOOOOOOOOOOOOOOOOOOOOOOO  ....oooooooooooooooooo....  OOOOOOOOOOOOOOOO",
"OOOOOOOOOOOOOOOOOO  ....oooooooooooooooooo....  OOOOOOOOOOOOOOOOOOOOOOOOOOOOOOOOOO  ....oooooooooooooooooo....  OOOOOOOOOOOOOOOOOOOOOOOOOOOOOOOOOO  ....oooooooooooooooooo....  OOOOOOOOOOOOOOOOOOOOOOOOOOOOOOOOOO  ....oooooooooooooooooo....  OOOOOOOOOOOOOOOO",
"OOOOOOOOOOOOOOOOOO  ....oooooooooooooooooo....  OOOOOOOOOOOOOOOOOOOOOOOOOOOOOOOOOO  ....oooooooooooooooooo....  OOOOOOOOOOOOOOOOOOOOOOOOOOOOOOOOOO  ....oooooooooooooooooo....  OOOOOOOOOOOOOOOOOOOOOOOOOOOOOOOOOO  ....oooooooooooooooooo....  OOOOOOOOOOOOOOOO",
"OOOOOOOOOOOOOOOOOO  ....oooooooooooooooooo....  OOOOOOOOOOOOOOOOOOOOOOOOOOOOOOOOOO  ....oooooooooooooooooo....  OOOOOOOOOOOOOOOOOOOOOOOOOOOOOOOOOO  ....oooooooooooooooooo....  OOOOOOOOOOOOOOOOOOOOOOOOOOOOOOOOOO  ....oooooooooooooooooo....  OOOOOOOOOOOOOOOO",
"OOOOOOOOOOOOOOOOOO  ....oooooooooooooooooo....  OOOOOOOOOOOOOOOOOOOOOOOOOOOOOOOOOO  oooooooooooooooooooooooooo  OOOOOOOOOOOOOOOOOOOOOOOOOOOOOOOOOO  ....oooooooooooooooooo....  OOOOOOOOOOOOOOOOOOOOOOOOOOOOOOOOOO  oooooooooooooooooooooooooo  OOOOOOOOOOOOOOOO",
"OOOOOOOOOOOOOOOOOO  oooooooooooooooooooooooooo  OOOOOOOOOOOOOOOOOOOOOOOOOOOOOOOOOO  oooooooooooooooooooooooooo  OOOOOOOOOOOOOOOOOOOOOOOOOOOOOOOOOO  oooooooooooooooooooooooooo  OOOOOOOOOOOOOOOOOOOOOOOOOOOOOOOOOO  oooooooooooooooooooooooooo  OOOOOOOOOOOOOOOO",
"OOOOOOOOOOOOOOOOOO  oooooooooooooooooooooooooo  OOOOOOOOOOOOOOOOOOOOOOOOOOOOOOOOOO  ....oooooooooooooooooo....  OOOOOOOOOOOOOOOOOOOOOOOOOOOOOOOOOO  oooooooooooooooooooooooooo  OOOOOOOOOOOOOOOOOOOOOOOOOOOOOOOOOO  ....oooooooooooooooooo....  OOOOOOOOOOOOOOOO",
"OOOOOOOOOOOOOOOOOO  ....oooooooooooooooooo....  OOOOOOOOOOOOOOOOOOOOOOOOOOOOOOOOOO  ....oooooooooooooooooo....  OOOOOOOOOOOOOOOOOOOOOOOOOOOOOOOOOO  ....oooooooooooooooooo....  OOOOOOOOOOOOOOOOOOOOOOOOOOOOOOOOOO  ....oooooooooooooooooo....  OOOOOOOOOOOOOOOO",
"OOOOOOOOOOOOOOOOOO  ....oooooooooooooooooo....  OOOOOOOOOOOOOOOOOOOOOOOOOOOOOOOOOO  ....oooooooooooooooooo....  OOOOOOOOOOOOOOOOOOOOOOOOOOOOOOOOOO  ....oooooooooooooooooo....  OOOOOOOOOOOOOOOOOOOOOOOOOOOOOOOOOO  ....oooooooooooooooooo....  OOOOOOOOOOOOOOOO",
"OOOOOOOOOOOOOOOOOO  ....oooooooooooooooooo....  OOOOOOOOOOOOOOOOOOOOOOOOOOOOOOOOOO  ....oooooooooooooooooo....  OOOOOOOOOOOOOOOOOOOOOOOOOOOOOOOOOO  ....oooooooooooooooooo....  OOOOOOOOOOOOOOOOOOOOOOOOOOOOOOOOOO  ....oooooooooooooooooo....  OOOOOOOOOOOOOOOO",
"OOOOOOOOOOOOOOOOOO  ....oooooooooooooooooo....  OOOOOOOOOOOOOOOOOOOOOOOOOOOOOOOOOO  oooooooooooooooooooooooooo  OOOOOOOOOOOOOOOOOOOOOOOOOOOOOOOOOO  ....oooooooooooooooooo....  OOOOOOOOOOOOOOOOOOOOOOOOOOOOOOOOOO  oooooooooooooooooooooooooo  OOOOOOOOOOOOOOOO",
"OOOOOOOOOOOOOOOOOO  oooooooooooooooooooooooooo  OOOOOOOOOOOOOOOOOOOOOOOOOOOOOOOOOO  oooooooooooooooooooooooooo  OOOOOOOOOOOOOOOOOOOOOOOOOOOOOOOOOO  oooooooooooooooooooooooooo  OOOOOOOOOOOOOOOOOOOOOOOOOOOOOOOOOO  oooooooooooooooooooooooooo  OOOOOOOOOOOOOOOO",
"OOOOOOOOOOOOOOOOOO  oooooooooooooooooooooooooo  OOOOOOOOOOOOOOOOOOOOOOOOOOOOOOOOOO  oooooooooooooooooooooooooo  OOOOOOOOOOOOOOOOOOOOOOOOOOOOOOOOOO  oooooooooooooooooooooooooo  OOOOOOOOOOOOOOOOOOOOOOOOOOOOOOOOOO  oooooooooooooooooooooooooo  OOOOOOOOOOOOOOOO",
"OOOOOOOOOOOOOOOOOO  oooooooooooooooooooooooooo  OOOOOOOOOOOOOOOOOOOOOOOOOOOOOOOOOO  oooooooooooooooooooooooooo  OOOOOOOOOOOOOOOOOOOOOOOOOOOOOOOOOO  oooooooooooooooooooooooooo  OOOOOOOOOOOOOOOOOOOOOOOOOOOOOOOOOO  oooooooooooooooooooooooooo  OOOOOOOOOOOOOOOO",
"OOOOOOOOOOOOOOOOOO  oooooooooooooooooooooooooo  OOOOOOOOOOOOOOOOOOOOOOOOOOOOOOOOOO  oooooooooooooooooooooooooo  OOOOOOOOOOOOOOOOOOOOOOOOOOOOOOOOOO  oooooooooooooooooooooooooo  OOOOOOOOOOOOOOOOOOOOOOOOOOOOOOOOOO  oooooooooooooooooooooooooo  OOOOOOOOOOOOOOOO",
"OOOOOOOOOOOOOOOOOO  oooooooooooooooooooooooooo  OOOOOOOOOOOOOOOOOOOOOOOOOOOOOOOOOO  oooooooooooooooooooooooooo  OOOOOOOOOOOOOOOOOOOOOOOOOOOOOOOOOO  oooooooooooooooooooooooooo  OOOOOOOOOOOOOOOOOOOOOOOOOOOOOOOOOO  oooooooooooooooooooooooooo  OOOOOOOOOOOOOOOO",
"OOOOOOOOOOOOOOOOOO  oooooooooooooooooooooooooo  OOOOOOOOOOOOOOOOOOOOOOOOOOOOOOOOOO    oooooo          oooooo    OOOOOOOOOOOOOOOOOOOOOOOOOOOOOOOOOO  oooooooooooooooooooooooooo  OOOOOOOOOOOOOOOOOOOOOOOOOOOOOOOOOO    oooooo          oooooo    OOOOOOOOOOOOOOOO",
"OOOOOOOOOOOOOOOOOO    oooooo          oooooo    OOOOOOOOOOOOOOOOOOOOOOOOOOOOOOOOOO    oooooo          oooooo    OOOOOOOOOOOOOOOOOOOOOOOOOOOOOOOOOO    oooooo          oooooo    OOOOOOOOOOOOOOOOOOOOOOOOOOOOOOOOOO    oooooo          oooooo    OOOOOOOOOOOOOOOO",
"OOOOOOOOOOOOOOOOOO    oooooo          oooooo    OOOOOOOOOOOOOOOOOOOOOOOOOOOOOOOOOOOO  oooooo  OOOOOO  oooooo  OOOOOOOOOOOOOOOOOOOOOOOOOOOOOOOOOOOO    oooooo          oooooo    OOOOOOOOOOOOOOOOOOOOOOOOOOOOOOOOOOOO  oooooo  OOOOOO  oooooo  OOOOOOOOOOOOOOOOOO",
"OOOOOOOOOOOOOOOOOOOO  oooooo  OOOOOO  oooooo  OOOOOOOOOOOOOOOOOOOOOOOOOOOOOOOOOOOOOO  oooooo  OOOOOO  oooooo  OOOOOOOOOOOOOOOOOOOOOOOOOOOOOOOOOOOOOO  oooooo  OOOOOO  oooooo  OOOOOOOOOOOOOOOOOOOOOOOOOOOOOOOOOOOOOO  oooooo  OOOOOO  oooooo  OOOOOOOOOOOOOOOOOO",
"OOOOOOOOOOOOOOOOOOOO  oooooo  OOOOOO  oooooo  OOOOOOOOOOOOOOOOOOOOOOOOOOOOOOOOOOOOOO  oooooo  OOOOOO  oooooo  OOOOOOOOOOOOOOOOOOOOOOOOOOOOOOOOOOOOOO  oooooo  OOOOOO  oooooo  OOOOOOOOOOOOOOOOOOOOOOOOOOOOOOOOOOOOOO  oooooo  OOOOOO  oooooo  OOOOOOOOOOOOOOOOOO",
"OOOOOOOOOOOOOOOOOOOO  oooooo  OOOOOO  oooooo  OOOOOOOOOOOOOOOOOOOOOOOOOOOOOOOOOOOOOO  oooooo  OOOOOO  oooooo  OOOOOOOOOOOOOOOOOOOOOOOOOOOOOOOOOOOOOO  oooooo  OOOOOO  oooooo  OOOOOOOOOOOOOOOOOOOOOOOOOOOOOOOOOOOOOO  oooooo  OOOOOO  oooooo  OOOOOOOOOOOOOOOOOO",
"OOOOOOOOOOOOOOOOOOOO  oooooo  OOOOOO  oooooo  OOOOOOOOOOOOOOOOOOOOOOOOOOOOOOOOOOOOOO  oooooo  OOOOOO  oooooo  OOOOOOOOOOOOOOOOOOOOOOOOOOOOOOOOOOOOOO  oooooo  OOOOOO  oooooo  OOOOOOOOOOOOOOOOOOOOOOOOOOOOOOOOOOOOOO  oooooo  OOOOOO  oooooo  OOOOOOOOOOOOOOOOOO",
"OOOOOOOOOOOOOOOOOOOO  oooooo  OOOOOO  oooooo  OOOOOOOOOOOOOOOOOOOOOOOOOOOOOOOOOOOOOO  oooooo  OOOOOO  oooooo  OOOOOOOOOOOOOOOOOOOOOOOOOOOOOOOOOOOOOO  oooooo  OOOOOO  oooooo  OOOOOOOOOOOOOOOOOOOOOOOOOOOOOOOOOOOOOO  oooooo  OOOOOO  oooooo  OOOOOOOOOOOOOOOOOO",
"OOOOOOOOOOOOOOOOOOOO          OOOOOO  oooooo  OOOOOOOOOOOOOOOOOOOOOOOOOOOOOOOOOOOOOO  oooooo  OOOOOO  oooooo  OOOOOOOOOOOOOOOOOOOOOOOOOOOOOOOOOOOOOO  oooooo  OOOOOO          OOOOOOOOOOOOOOOOOOOOOOOOOOOOOOOOOOOOOO  oooooo  OOOOOO  oooooo  OOOOOOOOOOOOOOOOOO",
"OOOOOOOOOOOOOOOOOOOO          OOOOOO          OOOOOOOOOOOOOOOOOOOOOOOOOOOOOOOOOOOOOO          OOOOOO          OOOOOOOOOOOOOOOOOOOOOOOOOOOOOOOOOOOOOO          OOOOOO          OOOOOOOOOOOOOOOOOOOOOOOOOOOOOOOOOOOOOO          OOOOOO          OOOOOOOOOOOOOOOOOO",
"OOOOOOOOOOOOOOOOOOOOOOOOOOOOOOOOOOOO          OOOOOOOOOOOOOOOOOOOOOOOOOOOOOOOOOOOOOO          OOOOOO          OOOOOOOOOOOOOOOOOOOOOOOOOOOOOOOOOOOOOO          OOOOOOOOOOOOOOOOOOOOOOOOOOOOOOOOOOOOOOOOOOOOOOOOOOOOOO          OOOOOO          OOOOOOOOOOOOOOOOOO",
"OOOOOOOOOOOOOOOOOOOOOOOOOOOOOOOOOOOOOOOOOOOOOOOOOOOOOOOOOOOOOOOOOOOOOOOOOOOOOOOOOOOOOOOOOOOOOOOOOOOOOOOOOOOOOOOOOOOOOOOOOOOOOOOOOOOOOOOOOOOOOOOOOOOOOOOOOOOOOOOOOOOOOOOOOOOOOOOOOOOOOOOOOOOOOOOOOOOOOOOOOOOOOOOOOOOOOOOOOOOOOOOOOOOOOOOOOOOOOOOOOOOOOOOOOOOOOOOO",
"OOOOOOOOOOOOOOOOOOOOOOOOOOOOOOOOOOOOOOOOOOOOOOOOOOOOOOOOOOOOOOOOOOOOOOOOOOOOOOOOOOOOOOOOOOOOOOOOOOOOOOOOOOOOOOOOOOOOOOOOOOOOOOOOOOOOOOOOOOOOOOOOOOOOOOOOOOOOOOOOOOOOOOOOOOOOOOOOOOOOOOOOOOOOOOOOOOOOOOOOOOOOOOOOOOOOOOOOOOOOOOOOOOOOOOOOOOOOOOOOOOOOOOOOOOOOOOOO"
};
