/* XPM */
static char *xpm_[] = {
/* columns rows colors chars-per-pixel */
"64 64 5 1 ",
"  c black",
". c #F09743",
"X c #FFA3B1",
"o c white",
"O c None",
/* pixels */
"OOOOOOOOOOOOOOOOOOOOOOOOOOOOOOOOOOOOOOOOOOOOOOOOOOOOOOOOOOOOOOOO",
"OOOOOOOOOOOOOOOOOOOOOOOOOOOOOOOOOOOOOOOOOOOOOOOOOOOOOOOOOOOOOOOO",
"OOOOOOOOOOOOOOOOOOOOOOOOOOOO    OO    OOOOOOOOOOOOOOOOOOOOOOOOOO",
"OOOOOOOOOOOOOOOOOOOOOOOOOOOO    OO    OOOOOOOOOOOOOOOOOOOOOOOOOO",
"OOOOOOOOOOOOOOOOOO              OO      OOOOOOOOOOOOOOOOOOOOOOOO",
"OOOOOOOOOOOOOOOOOO              OO      OOOOOOOOOOOOOOOOOOOOOOOO",
"OOOOOOOOOOOOOOOOOO  oooo    ..  OO  ..    OOOOOOOOOOOOOOOOOOOOOO",
"OOOOOOOOOOOOOOOOOO  oooo    ..  OO  ..    OOOOOOOOOOOOOOOOOOOOOO",
"OOOOOOOOOOOOOOOOOO  oooo  XX..  OO  ..XX  OOOOOOOOOOOOOOOOOOOOOO",
"OOOOOOOOOOOOOOOOOO  ....  XX..  OO  ..XX  OOOOOOOOOOOOOOOOOOOOOO",
"OOOOOOOOOOOOOOOOOO  ....  XX..      ..XX  OOOOOOOOOOOOOOOOOOOOOO",
"OOOOOOOOOOOOOOOOOO  ....  XX..      ..XX  OOOOOOOOOOOOOOOOOOOOOO",
"OOOOOOOOOOOOOOOOOO  ..    ..............    OOOOOOOOOOOOOOOOOOOO",
"OOOOOOOOOOOOOOOOOO  ..    ..............    OOOOOOOOOOOOOOOOOOOO",
"OOOOOOOOOOOOOOOOOO  ..  ..................  OOOOOOOOOOOOOOOOOOOO",
"OOOOOOOOOOOOOOOOOO  ..  ..................  OOOOOOOOOOOOOOOOOOOO",
"OOOOOOOOOOOOOOOOOO      ..................    OOOOOOOOOOOOOOOOOO",
"OOOOOOOOOOOOOOOOOO      ..................    OOOOOOOOOOOOOOOOOO",
"OOOOOOOOOOOOOOOOOO    ......  ......  ......  OOOOOOOOOOOOOOOOOO",
"OOOOOOOOOOOOOOOOOO    ......  ......  ......  OOOOOOOOOOOOOOOOOO",
"OOOOOOOOOOOOOO          ........  ......          OOOOOOOOOOOOOO",
"OOOOOOOOOOOOOO          ........  ......          OOOOOOOOOOOOOO",
"OOOOOOOOOOOOOOOOOO    ooooo...  ..  ...ooooo  OOOOOOOOOOOOOOOOOO",
"OOOOOOOOOOOOOOOOOO    ooooo...  ..  ...ooooo  OOOOOOOOOOOOOOOOOO",
"OOOOOOOOOOOOOOOO        ................        OOOOOOOOOOOOOOOO",
"OOOOOOOOOOOOOOOO        ................        OOOOOOOOOOOOOOOO",
"OOOOOOOOOOOOOOOOOO  ..    ..............    OOOOOOOOOOOOOOOOOOOO",
"OOOOOOOOOOOOOOOOOO  ..    ..............    OOOOOOOOOOOOOOOOOOOO",
"OOOOOOOOOOOOOOOOOO  ....    ..........    OOOOOOOOOOOOOOOOOOOOOO",
"OOOOOOOOOOOOOOOOOO  ....    ..........    OOOOOOOOOOOOOOOOOOOOOO",
"OOOOOOOOOOOOOOOOOO      ..................    OOOOOOOOOOOOOOOOOO",
"OOOOOOOOOOOOOOOOOO      ..................    OOOOOOOOOOOOOOOOOO",
"OOOOOOOOOOOOOOOOOO    ......................  OOOOOOOOOOOOOOOOOO",
"OOOOOOOOOOOOOOOOOO    ......................  OOOOOOOOOOOOOOOOOO",
"OOOOOOOOOOOOOOOOOO  ..........................  OOOOOOOOOOOOOOOO",
"OOOOOOOOOOOOOOOOOO  ..........................  OOOOOOOOOOOOOOOO",
"OOOOOOOOOOOOOOOOOO  ..........................  OOOOOOOOOOOOOOOO",
"OOOOOOOOOOOOOOOOOO  ..........................  OOOOOOOOOOOOOOOO",
"OOOOOOOOOOOOOOOOOO  ..........................  OOOOOOOOOOOOOOOO",
"OOOOOOOOOOOOOOOOOO  ..........................  OOOOOOOOOOOOOOOO",
"OOOOOOOOOOOOOOOOOO  ..........................  OOOOOOOOOOOOOOOO",
"OOOOOOOOOOOOOOOOOO  ..........................  OOOOOOOOOOOOOOOO",
"OOOOOOOOOOOOOOOOOO  ..........................  OOOOOOOOOOOOOOOO",
"OOOOOOOOOOOOOOOOOO  ..........................  OOOOOOOOOOOOOOOO",
"OOOOOOOOOOOOOOOOOO  ..........................  OOOOOOOOOOOOOOOO",
"OOOOOOOOOOOOOOOOOO  ..........................  OOOOOOOOOOOOOOOO",
"OOOOOOOOOOOOOOOOOO  ..........................  OOOOOOOOOOOOOOOO",
"OOOOOOOOOOOOOOOOOO  ..........................  OOOOOOOOOOOOOOOO",
"OOOOOOOOOOOOOOOOOO  ..........................  OOOOOOOOOOOOOOOO",
"OOOOOOOOOOOOOOOOOO  ..........................  OOOOOOOOOOOOOOOO",
"OOOOOOOOOOOOOOOOOO  ..........................  OOOOOOOOOOOOOOOO",
"OOOOOOOOOOOOOOOOOO  ..........................  OOOOOOOOOOOOOOOO",
"OOOOOOOOOOOOOOOOOO    ......          ......    OOOOOOOOOOOOOOOO",
"OOOOOOOOOOOOOOOOOO    ......          ......    OOOOOOOOOOOOOOOO",
"OOOOOOOOOOOOOOOOOOOO  ......  OOOOOO  ......  OOOOOOOOOOOOOOOOOO",
"OOOOOOOOOOOOOOOOOOOO  ......  OOOOOO  ......  OOOOOOOOOOOOOOOOOO",
"OOOOOOOOOOOOOOOOOOOO  ......  OOOOOO  ......  OOOOOOOOOOOOOOOOOO",
"OOOOOOOOOOOOOOOOOOOO  oooooo  OOOOOO  oooooo  OOOOOOOOOOOOOOOOOO",
"OOOOOOOOOOOOOOOOOOOO  oooooo  OOOOOO  oooooo  OOOOOOOOOOOOOOOOOO",
"OOOOOOOOOOOOOOOOOOOO  oooooo  OOOOOO          OOOOOOOOOOOOOOOOOO",
"OOOOOOOOOOOOOOOOOOOO          OOOOOO          OOOOOOOOOOOOOOOOOO",
"OOOOOOOOOOOOOOOOOOOO          OOOOOOOOOOOOOOOOOOOOOOOOOOOOOOOOOO",
"OOOOOOOOOOOOOOOOOOOOOOOOOOOOOOOOOOOOOOOOOOOOOOOOOOOOOOOOOOOOOOOO",
"OOOOOOOOOOOOOOOOOOOOOOOOOOOOOOOOOOOOOOOOOOOOOOOOOOOOOOOOOOOOOOOO"
};
