/* XPM */
static char *xpm_[] = {
/* columns rows colors chars-per-pixel */
"64 64 5 1 ",
"  c black",
". c #464646",
"X c #FFA3B1",
"o c white",
"O c None",
/* pixels */
"OOOOOOOOOOOOOOOOOOOOOOOOOOOOOOOOOOOOOOOOOOOOOOOOOOOOOOOOOOOOOOOO",
"OOOOOOOOOOOOOOOOOOOOOOOOOOOOOOOOOOOOOOOOOOOOOOOOOOOOOOOOOOOOOOOO",
"OOOOOOOOOOOOOOOOOOOOOOOOOO    OO    OOOOOOOOOOOOOOOOOOOOOOOOOOOO",
"OOOOOOOOOOOOOOOOOOOOOOOOOO    OO    OOOOOOOOOOOOOOOOOOOOOOOOOOOO",
"OOOOOOOOOOOOOOOOOOOOOOOO      OO              OOOOOOOOOOOOOOOOOO",
"OOOOOOOOOOOOOOOOOOOOOOOO      OO              OOOOOOOOOOOOOOOOOO",
"OOOOOOOOOOOOOOOOOOOOOO    oo  OO  oo    oooo  OOOOOOOOOOOOOOOOOO",
"OOOOOOOOOOOOOOOOOOOOOO    oo  OO  oo    oooo  OOOOOOOOOOOOOOOOOO",
"OOOOOOOOOOOOOOOOOOOOOO  XXoo  OO  ooXX  oooo  OOOOOOOOOOOOOOOOOO",
"OOOOOOOOOOOOOOOOOOOOOO  XXoo  OO  ooXX  oooo  OOOOOOOOOOOOOOOOOO",
"OOOOOOOOOOOOOOOOOOOOOO  XXoo      ooXX  oooo  OOOOOOOOOOOOOOOOOO",
"OOOOOOOOOOOOOOOOOOOOOO  XXoo      ooXX  oooo  OOOOOOOOOOOOOOOOOO",
"OOOOOOOOOOOOOOOOOOOO    oooooooooooooo  ....  OOOOOOOOOOOOOOOOOO",
"OOOOOOOOOOOOOOOOOOOO    oooooooooooooo  ....  OOOOOOOOOOOOOOOOOO",
"OOOOOOOOOOOOOOOOOOOO  oooooooooooooooo  oooo  OOOOOOOOOOOOOOOOOO",
"OOOOOOOOOOOOOOOOOOOO  oooooooooooooooo  oooo  OOOOOOOOOOOOOOOOOO",
"OOOOOOOOOOOOOOOOOO    oooooooooooooooo  oooo  OOOOOOOOOOOOOOOOOO",
"OOOOOOOOOOOOOOOOOO    oooooooooooooooo  oooo  OOOOOOOOOOOOOOOOOO",
"OOOOOOOOOOOOOOOOOO  oooooooooooooooooo  ....  OOOOOOOOOOOOOOOOOO",
"OOOOOOOOOOOOOOOOOO  oooooooooooooooooo  ....  OOOOOOOOOOOOOOOOOO",
"OOOOOOOOOOOOOO      oooooooooooooooooo  oooo  OOOOOOOOOOOOOOOOOO",
"OOOOOOOOOOOOOO      oooooooooooooooooo  oooo  OOOOOOOOOOOOOOOOOO",
"OOOOOOOOOOOOOOOOOO  oooooooo            oooo  OOOOOOOOOOOOOOOOOO",
"OOOOOOOOOOOOOOOOOO  oooooooo            oooo  OOOOOOOOOOOOOOOOOO",
"OOOOOOOOOOOOOOOO      oooooo  oooooooooooooo    OOOOOOOOOOOOOOOO",
"OOOOOOOOOOOOOOOO      oooooo  oooooooooooooo    OOOOOOOOOOOOOOOO",
"OOOOOOOOOOOOOOOOOOOO    oooo  oooooooooooooo  OOOOOOOOOOOOOOOOOO",
"OOOOOOOOOOOOOOOOOOOO    oooo  oooooooooooooo  OOOOOOOOOOOOOOOOOO",
"OOOOOOOOOOOOOOOOOOOOOO  oooo  oooo            OOOOOOOOOOOOOOOOOO",
"OOOOOOOOOOOOOOOOOOOOOO  oooo  oooo            OOOOOOOOOOOOOOOOOO",
"OOOOOOOOOOOOOOOOOO    oooooo  oooo  oooo      OOOOOOOOOOOOOOOOOO",
"OOOOOOOOOOOOOOOOOO    oooooo  oooo  oooo      OOOOOOOOOOOOOOOOOO",
"OOOOOOOOOOOOOOOOOO  oooooooo  oooo  oooooo    OOOOOOOOOOOOOOOOOO",
"OOOOOOOOOOOOOOOOOO  oooooooo  oooo  oooooo    OOOOOOOOOOOOOOOOOO",
"OOOOOOOOOOOOOOOO  oooooooooo  oooo  oooooooo  OOOOOOOOOOOOOOOOOO",
"OOOOOOOOOOOOOOOO  oooooooooo  oooo  oooooooo  OOOOOOOOOOOOOOOOOO",
"OOOOOOOOOOOOOOOO  ....oooooooooooooooooooooo  OOOOOOOOOOOOOOOOOO",
"OOOOOOOOOOOOOOOO  ....oooooooooooooooooo....  OOOOOOOOOOOOOOOOOO",
"OOOOOOOOOOOOOOOO  ....oooooo  oo  oooooo....  OOOOOOOOOOOOOOOOOO",
"OOOOOOOOOOOOOOOO  ....oooooo  oo  oooooo....  OOOOOOOOOOOOOOOOOO",
"OOOOOOOOOOOOOOOO  oooooooooooo  oooooooooooo  OOOOOOOOOOOOOOOOOO",
"OOOOOOOOOOOOOOOO  oooooooooooo  oooooooooooo  OOOOOOOOOOOOOOOOOO",
"OOOOOOOOOOOOOOOO  ....oooooo  oo  oooooo....  OOOOOOOOOOOOOOOOOO",
"OOOOOOOOOOOOOOOO  ....oooooo  oo  oooooo....  OOOOOOOOOOOOOOOOOO",
"OOOOOOOOOOOOOOOO  ....oooooooooooooooooo....  OOOOOOOOOOOOOOOOOO",
"OOOOOOOOOOOOOOOO  ....oooooooooooooooooo....  OOOOOOOOOOOOOOOOOO",
"OOOOOOOOOOOOOOOO  oooooooooooooooooooooooooo  OOOOOOOOOOOOOOOOOO",
"OOOOOOOOOOOOOOOO  oooooooooooooooooooooooooo  OOOOOOOOOOOOOOOOOO",
"OOOOOOOOOOOOOOOO  oooooooooooooooooooooooooo  OOOOOOOOOOOOOOOOOO",
"OOOOOOOOOOOOOOOO  oooooooooooooooooooooooooo  OOOOOOOOOOOOOOOOOO",
"OOOOOOOOOOOOOOOO  oooooooooooooooooooooooooo  OOOOOOOOOOOOOOOOOO",
"OOOOOOOOOOOOOOOO  oooooooooooooooooooooooooo  OOOOOOOOOOOOOOOOOO",
"OOOOOOOOOOOOOOOO    oooooo          oooooo    OOOOOOOOOOOOOOOOOO",
"OOOOOOOOOOOOOOOO    oooooo          oooooo    OOOOOOOOOOOOOOOOOO",
"OOOOOOOOOOOOOOOOOO  oooooo  OOOOOO  oooooo  OOOOOOOOOOOOOOOOOOOO",
"OOOOOOOOOOOOOOOOOO  oooooo  OOOOOO  oooooo  OOOOOOOOOOOOOOOOOOOO",
"OOOOOOOOOOOOOOOOOO  oooooo  OOOOOO  oooooo  OOOOOOOOOOOOOOOOOOOO",
"OOOOOOOOOOOOOOOOOO  oooooo  OOOOOO  oooooo  OOOOOOOOOOOOOOOOOOOO",
"OOOOOOOOOOOOOOOOOO  oooooo  OOOOOO  oooooo  OOOOOOOOOOOOOOOOOOOO",
"OOOOOOOOOOOOOOOOOO  oooooo  OOOOOO          OOOOOOOOOOOOOOOOOOOO",
"OOOOOOOOOOOOOOOOOO          OOOOOO          OOOOOOOOOOOOOOOOOOOO",
"OOOOOOOOOOOOOOOOOO          OOOOOOOOOOOOOOOOOOOOOOOOOOOOOOOOOOOO",
"OOOOOOOOOOOOOOOOOOOOOOOOOOOOOOOOOOOOOOOOOOOOOOOOOOOOOOOOOOOOOOOO",
"OOOOOOOOOOOOOOOOOOOOOOOOOOOOOOOOOOOOOOOOOOOOOOOOOOOOOOOOOOOOOOOO"
};
