/* XPM */
static char *xpm_[] = {
/* columns rows colors chars-per-pixel */
"64 64 5 1 ",
"  c black",
". c #F09743",
"X c #FFA3B1",
"o c white",
"O c #569969",
/* pixels */
"OOOOOOOOOOOOOOOOOOOOOOOOOOOOOOOOOOOOOOOOOOOOOOOOOOOOOOOOOOOOOOOO",
"OOOOOOOOOOOOOOOOOOOOOOOOOOOOOOOOOOOOOOOOOOOOOOOOOOOOOOOOOOOOOOOO",
"OOOOOOOOOOOOO          OOOOOOOOOOOOOOOOOOOOOOOOOOOOOOOOOOOOOOOOO",
"OOOOOOOOOOOOO          OOOOOOOOOOOOOOOOOOOOOOOOOOOOOOOOOOOOOOOOO",
"OOOOOOOOOOO        ..    OOOOOOOOOOOOOOOOOOOOOOOOOO          OOO",
"OOOOOOOOOOO        ..    OOOOOOOOOOOOOOOOOOOOOOOOOO          OOO",
"OOOOOOOOOOO  ..    ..XX    OOOOOOOOOOOOOOOOOOOOOOOO  oooooo  OOO",
"OOOOOOOOOOO  ..    ..XX    OOOOOOOOOOOOOOOOOOOOOOOO  oooooo  OOO",
"OOOOOOOOOOO  ..    ..XXXX  OOOOOOOOOOOOOOOOOOOOOOOO  oooooo  OOO",
"OOOOOOOOOOO  ..    ..XXXX  OOOOOOOOOOOOOOOOOOOOOOOO  ......  OOO",
"OOOOOOOOO          ..XXXX  OOOOOOOOOOOOOOOOOOOOOOOO  ......  OOO",
"OOOOOOOOO          ..XXXX  OOOOOOOOOOOOOOOOOOOOOOOO  ......  OOO",
"OOOOOOO    ..............    OOOOOOOOOOOOOOOOOOOOOO  ......  OOO",
"OOOOOOO    ..............    OOOOOOOOOOOOOOOOOOOOOO  ......  OOO",
"OOOOOOO  ..................  OOOOOOOOOOOOOOOOOOOOOO  ......  OOO",
"OOOOOOO  ..................  OOOOOOOOOOOOOOOOOOOOOO  ......  OOO",
"OOOOO  ....................    OOOOOOOOOOOOOOOOOOOO  ......  OOO",
"OOOOO  ....................    OOOOOOOOOOOOOOOOOOOO  ......  OOO",
"OOOOO  ..  ......  ..........  OOOOOOOOOOOOOOOOOOOO  ......  OOO",
"OOOOO  ..  ......  ..........  OOOOOOOOOOOOOOOOOOOO  ......  OOO",
"OOO    ......  ......          OOOOOOOOOOOOOOOOOOOO  ......  OOO",
"OOO    ......  ......          OOOOOOOOOOOOOOOOOOOO  ......  OOO",
"OOOOO  oo..  ..  ....oooooooo  OOOOOOOOOOOOOOOOOOOO  ......  OOO",
"OOOOO  oo..  ..  ....oooooooo  OOOOOOOOOOOOOOOOOOOO  ......  OOO",
"OOO      ............      ..                        ......  OOO",
"OOO      ............      ..                        ......  OOO",
"OOOOOOO    ................................................  OOO",
"OOOOOOO    ................................................  OOO",
"OOOOOOOOO        ..........................................  OOO",
"OOOOOOOOO        ..........................................  OOO",
"OOOOOOOOOOOOO  ............................................  OOO",
"OOOOOOOOOOOOO  ............................................  OOO",
"OOOOOOOOOOOOO  ............................................  OOO",
"OOOOOOOOOOOOO  ............................................  OOO",
"OOOOOOOOOOOOO  ............................................  OOO",
"OOOOOOOOOOOOO  ............................................  OOO",
"OOOOOOOOOOOOO  ............................................  OOO",
"OOOOOOOOOOOOO  ............................................  OOO",
"OOOOOOOOOOOOO  ............................................  OOO",
"OOOOOOOOOOOOO  ............................................  OOO",
"OOOOOOOOOOOOO  ............................................  OOO",
"OOOOOOOOOOOOO  ............................................  OOO",
"OOOOOOOOOOOOO  ............................................  OOO",
"OOOOOOOOOOOOO  ............................................  OOO",
"OOOOOOOOOOOOO  ............................................  OOO",
"OOOOOOOOOOOOO  ............................................  OOO",
"OOOOOOOOOOOOO  ............................................  OOO",
"OOOOOOOOOOOOO  ............................................  OOO",
"OOOOOOOOOOOOO  ............................................  OOO",
"OOOOOOOOOOOOO  ............................................  OOO",
"OOOOOOOOOOOO   ............................................  OOO",
"OOOOOOOOOOO   ..........................................     OOO",
"OOOOOOOOOO   ............................................    OOO",
"OOOOOOOOO   .......   .......            .......    ......   OOO",
"OOOOOOOO   .......     .......          .......      ......   OO",
"OOOOOOOO  oo.....   O   ......o   OOO  oo.....   O   .......   O",
"OOOOOOOO  ooo...   OOO   ....ooo  OOO  ooo...   OOO   .....oo  O",
"OOOOOOOO   ooo.   OOOOO   ..oooo  OOO   ooo.   OOOOO   ...ooo  O",
"OOOOOOOOO   oo   OOOOOOO   oooo   OOOO   oo   OOOOOOO   .ooo   O",
"OOOOOOOOOO      OOOOOOOOO   oo   OOOOOO      OOOOOOOOO   oo   OO",
"OOOOOOOOOOO    OOOOOOOOOOO      OOOOOOOO    OOOOOOOOOOO      OOO",
"OOOOOOOOOOOOOOOOOOOOOOOOOOO    OOOOOOOOOOOOOOOOOOOOOOOOO    OOOO",
"OOOOOOOOOOOOOOOOOOOOOOOOOOOOOOOOOOOOOOOOOOOOOOOOOOOOOOOOOOOOOOOO",
"OOOOOOOOOOOOOOOOOOOOOOOOOOOOOOOOOOOOOOOOOOOOOOOOOOOOOOOOOOOOOOOO"
};
