/* XPM */
static char *xpm_[] = {
/* columns rows colors chars-per-pixel */
"64 64 5 1 ",
"  c black",
". c #464646",
"X c #FFA3B1",
"o c white",
"O c None",
/* pixels */
"OOOOOOOOOOOOOOOOOOOOOOOOOOOOOOOOOOOOOOOOOOOOOOOOOOOOOOOOOOOOOOOO",
"OOOOOOOOOOOOOOOOOOOOOOOOOOOOOOOOOOOOOOOOO          OOOOOOOOOOOOO",
"OOOOOOOOOOOOOOOOOOOOOOOOOOOOOOOOOOOOOOOOO          OOOOOOOOOOOOO",
"OOO          OOOOOOOOOOOOOOOOOOOOOOOOOO    oo        OOOOOOOOOOO",
"OOO          OOOOOOOOOOOOOOOOOOOOOOOOOO    oo        OOOOOOOOOOO",
"OOO  oooooo  OOOOOOOOOOOOOOOOOOOOOOOO    XXoo    oo  OOOOOOOOOOO",
"OOO  oooooo  OOOOOOOOOOOOOOOOOOOOOOOO    XXoo    oo  OOOOOOOOOOO",
"OOO  oooooo  OOOOOOOOOOOOOOOOOOOOOOOO  XXXXoo    oo  OOOOOOOOOOO",
"OOO  oooooo  OOOOOOOOOOOOOOOOOOOOOOOO  XXXXoo    oo  OOOOOOOOOOO",
"OOO  oooooo  OOOOOOOOOOOOOOOOOOOOOOOO  XXXXoo          OOOOOOOOO",
"OOO  oooooo  OOOOOOOOOOOOOOOOOOOOOOOO  XXXXoo          OOOOOOOOO",
"OOO  ......  OOOOOOOOOOOOOOOOOOOOOO    oooooooooooooo    OOOOOOO",
"OOO  ......  OOOOOOOOOOOOOOOOOOOOOO    oooooooooooooo    OOOOOOO",
"OOO  oooooo  OOOOOOOOOOOOOOOOOOOOOO  oooooooooooooooooo  OOOOOOO",
"OOO  oooooo  OOOOOOOOOOOOOOOOOOOOOO  oooooooooooooooooo  OOOOOOO",
"OOO  oooooo  OOOOOOOOOOOOOOOOOOOO    oooooooooooooooooooo  OOOOO",
"OOO  oooooo  OOOOOOOOOOOOOOOOOOOO    oooooooooooooooooooo  OOOOO",
"OOO  ......  OOOOOOOOOOOOOOOOOOOO  oooooooooo  oooooo  oo  OOOOO",
"OOO  ......  OOOOOOOOOOOOOOOOOOOO  oooooooooo  oooooo  oo  OOOOO",
"OOO  oooooo  OOOOOOOOOOOOOOOOOOOO          oooooo  oooooo    OOO",
"OOO  oooooo  OOOOOOOOOOOOOOOOOOOO          oooooo  oooooo    OOO",
"OOO  oooooo  OOOOOOOOOOOOOOOOOOOO  oooooooooooo  oo  oooo  OOOOO",
"OOO  oooooo  OOOOOOOOOOOOOOOOOOOO  oooooooooooo  oo  oooo  OOOOO",
"OOO  oooooo                        oo      oooooooooooo      OOO",
"OOO  oooooo                        oo      oooooooooooo      OOO",
"OOO  oooooooo....oooo....oooo....oooooooooooooooooooo    OOOOOOO",
"OOO  oooooooo....oooo....oooo....oooooooooooooooooooo    OOOOOOO",
"OOO  oooooooo....oooo....oooo....oooooooooooooo        OOOOOOOOO",
"OOO  oooooooo....oooo....oooo....oooooooooooooo        OOOOOOOOO",
"OOO  oooooooo....oooo....oooo....oooooooooooooooo  OOOOOOOOOOOOO",
"OOO  oooooooo....oooo....oooo....oooooooooooooooo  OOOOOOOOOOOOO",
"OOO  oooooooo....oooo....oooo....oooooooooooooooo  OOOOOOOOOOOOO",
"OOO  oooooooo....oooo....oooo....oooooooooooooooo  OOOOOOOOOOOOO",
"OOO  oooooooo....oooo....oooo....oooooooooooooooo  OOOOOOOOOOOOO",
"OOO  oooooooo....oooo....oooo....oooooooooooooooo  OOOOOOOOOOOOO",
"OOO  oooooooooooooooooooooooooooooooooooooooooooo  OOOOOOOOOOOOO",
"OOO  oooooooooooooooooooooooooooooooooooooooooooo  OOOOOOOOOOOOO",
"OOO  oooooooooooooooooooooooooooooooooooooooooooo  OOOOOOOOOOOOO",
"OOO  oooooooooooooooooooooooooooooooooooooooooooo  OOOOOOOOOOOOO",
"OOO  oooooooooooooooooooooooooooooooooooooooooooo  OOOOOOOOOOOOO",
"OOO  oooooooooooooooooooooooooooooooooooooooooooo  OOOOOOOOOOOOO",
"OOO  oooooooooooooooooooooooooooooooooooooooooooo  OOOOOOOOOOOOO",
"OOO  oooooooooooooooooooooooooooooooooooooooooooo  OOOOOOOOOOOOO",
"OOO  oooooooooooooooooooooooooooooooooooooooooooo  OOOOOOOOOOOOO",
"OOO  oooooooooooooooooooooooooooooooooooooooooooo  OOOOOOOOOOOOO",
"OOO  oooooooooooooooooooooooooooooooooooooooooooo  OOOOOOOOOOOOO",
"OOO  oooooooooooooooooooooooooooooooooooooooooooo  OOOOOOOOOOOOO",
"OOO  oooooooooooooooooooooooooooooooooooooooooooo  OOOOOOOOOOOOO",
"OOO  oooooooooooooooooooooooooooooooooooooooooooo  OOOOOOOOOOOOO",
"OOO  oooooooooooooooooooooooooooooooooooooooooooo  OOOOOOOOOOOOO",
"OOO  oooooooooooooooooooooooooooooooooooooooooooo  OOOOOOOOOOOOO",
"OOO  oooooo                                oooooo  OOOOOOOOOOOOO",
"OOO  oooooo                                oooooo  OOOOOOOOOOOOO",
"OOO  oooooo  oo  OOOOOOOOOOOOOOOOOOOO  oo  oooooo  OOOOOOOOOOOOO",
"OOO  oooooo  oo  OOOOOOOOOOOOOOOOOOOO  oo  oooooo  OOOOOOOOOOOOO",
"OOO  oooooo  oo  OOOOOOOOOOOOOOOOOOOO  oo  oooooo  OOOOOOOOOOOOO",
"OOO  oooooo  oo  OOOOOOOOOOOOOOOOOOOO  oo  oooooo  OOOOOOOOOOOOO",
"OOO  oooooo  oo  OOOOOOOOOOOOOOOOOOOO  oo  oooooo  OOOOOOOOOOOOO",
"OOO  oooooo  oo  OOOOOOOOOOOOOOOOOOOO  oo  oooooo  OOOOOOOOOOOOO",
"OOO  oooooo  oo  OOOOOOOOOOOOOOOOOOOO  oo  oooooo  OOOOOOOOOOOOO",
"OOO              OOOOOOOOOOOOOOOOOOOO              OOOOOOOOOOOOO",
"OOO              OOOOOOOOOOOOOOOOOOOO              OOOOOOOOOOOOO",
"OOOOOOOOOOOOOOOOOOOOOOOOOOOOOOOOOOOOOOOOOOOOOOOOOOOOOOOOOOOOOOOO",
"OOOOOOOOOOOOOOOOOOOOOOOOOOOOOOOOOOOOOOOOOOOOOOOOOOOOOOOOOOOOOOOO"
};
