/* XPM */
static char *xpm_[] = {
/* columns rows colors chars-per-pixel */
"256 64 5 1 ",
"  c black",
". c #464646",
"X c #FFA3B1",
"o c white",
"O c None",
/* pixels */
"OOOOOOOOOOOOOOOOOOOOOOOOOOOOOOOOOOOOOOOOOOOOOOOOOOOOOOOOOOOOOOOOOOOOOOOOOOOOOOOOOOOOOOOOOOOOOOOOOOOOOOOOOOOOOOOOOOOOOOOOOOOOOOOOOOOOOOOOOOOOOOOOOOOOOOOOOOOOOOOOOOOOOOOOOOOOOOOOOOOOOOOOOOOOOOOOOOOOOOOOOOOOOOOOOOOOOOOOOOOOOOOOOOOOOOOOOOOOOOOOOOOOOOOOOOOOOOOO",
"OOOOOOOOOOOOOOOOOOOOOOOOOOOOOOOOOOOOOOOOOOOOOOOOOOOOOOOOOOOOOOOOOOOOOOOOOOOOO          OOOOOOOOOOOOOOOOOOOOOOOOOOOOOOOOOOOOOOOOOOOOOOOOOOOOOOOOOOOOOOOOOOOOOOOOOOOOOOOOOOOOOOOOOOOOOOOOOOOOOOOOOOOOOOOOOOOOOO          OOOOOOOOOOOOOOOOOOOOOOOOOOOOOOOOOOOOOOOOO",
"OOOOOOOOOOOOO          OOOOOOOOOOOOOOOOOOOOOOOOOOOOOOOOOOOOOOOOOOOOOOOOOOOOOO          OOOOOOOOOOOOOOOOOOOOOOOOOOOOOOOOOOOOOOOOOOOOOOOOOOOOOO          OOOOOOOOOOOOOOOOOOOOOOOOOOOOOOOOOOOOOOOOOOOOOOOOOOOOOO          OOOOOOOOOOOOOOOOOOOOOOOOOOOOOOOOOOOOOOOOO",
"OOOOOOOOOOOOO          OOOOOOOOOOOOOOOOOOOOOOOOOOOOOOOOOOOOOOOOOOOOOOOOOOOO        oo    OOOOOOOOOOOOOOOOOOOOOOOOOO          OOOOOOOOOOOOOOOO          OOOOOOOOOOOOOOOOOOOOOOOOOOOOOOOOOOOOOOOOOOOOOOOOOOOO        oo    OOOOOOOOOOOOOOOOOOOOOOOOOO          OOO",
"OOOOOOOOOOO        oo    OOOOOOOOOOOOOOOOOOOOOOOOOO          OOOOOOOOOOOOOO        oo    OOOOOOOOOOOOOOOOOOOOOOOOOO          OOOOOOOOOOOOOO        oo    OOOOOOOOOOOOOOOOOOOOOOOOOO          OOOOOOOOOOOOOO        oo    OOOOOOOOOOOOOOOOOOOOOOOOOO          OOO",
"OOOOOOOOOOO        oo    OOOOOOOOOOOOOOOOOOOOOOOOOO          OOOOOOOOOOOOOO  oo    ooXX    OOOOOOOOOOOOOOOOOOOOOOOO  oooooo  OOOOOOOOOOOOOO        oo    OOOOOOOOOOOOOOOOOOOOOOOOOO          OOOOOOOOOOOOOO  oo    ooXX    OOOOOOOOOOOOOOOOOOOOOOOO  oooooo  OOO",
"OOOOOOOOOOO  oo    ooXX    OOOOOOOOOOOOOOOOOOOOOOOO  oooooo  OOOOOOOOOOOOOO  oo    ooXX    OOOOOOOOOOOOOOOOOOOOOOOO  oooooo  OOOOOOOOOOOOOO  oo    ooXX    OOOOOOOOOOOOOOOOOOOOOOOO  oooooo  OOOOOOOOOOOOOO  oo    ooXX    OOOOOOOOOOOOOOOOOOOOOOOO  oooooo  OOO",
"OOOOOOOOOOO  oo    ooXX    OOOOOOOOOOOOOOOOOOOOOOOO  oooooo  OOOOOOOOOOOOOO  oo    ooXXXX  OOOOOOOOOOOOOOOOOOOOOOOO  oooooo  OOOOOOOOOOOOOO  oo    ooXX    OOOOOOOOOOOOOOOOOOOOOOOO  oooooo  OOOOOOOOOOOOOO  oo    ooXXXX  OOOOOOOOOOOOOOOOOOOOOOOO  oooooo  OOO",
"OOOOOOOOOOO  oo    ooXXXX  OOOOOOOOOOOOOOOOOOOOOOOO  oooooo  OOOOOOOOOOOOOO  oo    ooXXXX  OOOOOOOOOOOOOOOOOOOOOOOO  oooooo  OOOOOOOOOOOOOO  oo    ooXXXX  OOOOOOOOOOOOOOOOOOOOOOOO  oooooo  OOOOOOOOOOOOOO  oo    ooXXXX  OOOOOOOOOOOOOOOOOOOOOOOO  oooooo  OOO",
"OOOOOOOOOOO  oo    ooXXXX  OOOOOOOOOOOOOOOOOOOOOOOO  oooooo  OOOOOOOOOOOO          ooXXXX  OOOOOOOOOOOOOOOOOOOOOOOO  oooooo  OOOOOOOOOOOOOO  oo    ooXXXX  OOOOOOOOOOOOOOOOOOOOOOOO  oooooo  OOOOOOOOOOOO          ooXXXX  OOOOOOOOOOOOOOOOOOOOOOOO  oooooo  OOO",
"OOOOOOOOO          ooXXXX  OOOOOOOOOOOOOOOOOOOOOOOO  oooooo  OOOOOOOOOOOO          ooXXXX  OOOOOOOOOOOOOOOOOOOOOOOO  oooooo  OOOOOOOOOOOO          ooXXXX  OOOOOOOOOOOOOOOOOOOOOOOO  oooooo  OOOOOOOOOOOO          ooXXXX  OOOOOOOOOOOOOOOOOOOOOOOO  oooooo  OOO",
"OOOOOOOOO          ooXXXX  OOOOOOOOOOOOOOOOOOOOOOOO  oooooo  OOOOOOOOOO    oooooooooooooo    OOOOOOOOOOOOOOOOOOOOOO  ......  OOOOOOOOOOOO          ooXXXX  OOOOOOOOOOOOOOOOOOOOOOOO  oooooo  OOOOOOOOOO    oooooooooooooo    OOOOOOOOOOOOOOOOOOOOOO  ......  OOO",
"OOOOOOO    oooooooooooooo    OOOOOOOOOOOOOOOOOOOOOO  ......  OOOOOOOOOO    oooooooooooooo    OOOOOOOOOOOOOOOOOOOOOO  ......  OOOOOOOOOO    oooooooooooooo    OOOOOOOOOOOOOOOOOOOOOO  ......  OOOOOOOOOO    oooooooooooooo    OOOOOOOOOOOOOOOOOOOOOO  ......  OOO",
"OOOOOOO    oooooooooooooo    OOOOOOOOOOOOOOOOOOOOOO  ......  OOOOOOOOOO  oooooooooooooooooo  OOOOOOOOOOOOOOOOOOOOOO  oooooo  OOOOOOOOOO    oooooooooooooo    OOOOOOOOOOOOOOOOOOOOOO  ......  OOOOOOOOOO  oooooooooooooooooo  OOOOOOOOOOOOOOOOOOOOOO  oooooo  OOO",
"OOOOOOO  oooooooooooooooooo  OOOOOOOOOOOOOOOOOOOOOO  oooooo  OOOOOOOOOO  oooooooooooooooooo  OOOOOOOOOOOOOOOOOOOOOO  oooooo  OOOOOOOOOO  oooooooooooooooooo  OOOOOOOOOOOOOOOOOOOOOO  oooooo  OOOOOOOOOO  oooooooooooooooooo  OOOOOOOOOOOOOOOOOOOOOO  oooooo  OOO",
"OOOOOOO  oooooooooooooooooo  OOOOOOOOOOOOOOOOOOOOOO  oooooo  OOOOOOOO  oooooooooooooooooooo    OOOOOOOOOOOOOOOOOOOO  oooooo  OOOOOOOOOO  oooooooooooooooooo  OOOOOOOOOOOOOOOOOOOOOO  oooooo  OOOOOOOO  oooooooooooooooooooo    OOOOOOOOOOOOOOOOOOOO  oooooo  OOO",
"OOOOO  oooooooooooooooooooo    OOOOOOOOOOOOOOOOOOOO  oooooo  OOOOOOOO  oooooooooooooooooooo    OOOOOOOOOOOOOOOOOOOO  oooooo  OOOOOOOO  oooooooooooooooooooo    OOOOOOOOOOOOOOOOOOOO  oooooo  OOOOOOOO  oooooooooooooooooooo    OOOOOOOOOOOOOOOOOOOO  oooooo  OOO",
"OOOOO  oooooooooooooooooooo    OOOOOOOOOOOOOOOOOOOO  oooooo  OOOOOOOO  oo  oooooo  oooooooooo  OOOOOOOOOOOOOOOOOOOO  ......  OOOOOOOO  oooooooooooooooooooo    OOOOOOOOOOOOOOOOOOOO  oooooo  OOOOOOOO  oo  oooooo  oooooooooo  OOOOOOOOOOOOOOOOOOOO  ......  OOO",
"OOOOO  oo  oooooo  oooooooooo  OOOOOOOOOOOOOOOOOOOO  ......  OOOOOOOO  oo  oooooo  oooooooooo  OOOOOOOOOOOOOOOOOOOO  ......  OOOOOOOO  oo  oooooo  oooooooooo  OOOOOOOOOOOOOOOOOOOO  ......  OOOOOOOO  oo  oooooo  oooooooooo  OOOOOOOOOOOOOOOOOOOO  ......  OOO",
"OOOOO  oo  oooooo  oooooooooo  OOOOOOOOOOOOOOOOOOOO  ......  OOOOOO    oooooo  oooooo          OOOOOOOOOOOOOOOOOOOO  oooooo  OOOOOOOO  oo  oooooo  oooooooooo  OOOOOOOOOOOOOOOOOOOO  ......  OOOOOO    oooooo  oooooo          OOOOOOOOOOOOOOOOOOOO  oooooo  OOO",
"OOO    oooooo  oooooo          OOOOOOOOOOOOOOOOOOOO  oooooo  OOOOOO    oooooo  oooooo          OOOOOOOOOOOOOOOOOOOO  oooooo  OOOOOO    oooooo  oooooo          OOOOOOOOOOOOOOOOOOOO  oooooo  OOOOOO    oooooo  oooooo          OOOOOOOOOOOOOOOOOOOO  oooooo  OOO",
"OOO    oooooo  oooooo          OOOOOOOOOOOOOOOOOOOO  oooooo  OOOOOOOO  oooo  oo  oooooooooooo  OOOOOOOOOOOOOOOOOOOO  oooooo  OOOOOO    oooooo  oooooo          OOOOOOOOOOOOOOOOOOOO  oooooo  OOOOOOOO  oooo  oo  oooooooooooo  OOOOOOOOOOOOOOOOOOOO  oooooo  OOO",
"OOOOO  oooo  oo  oooooooooooo  OOOOOOOOOOOOOOOOOOOO  oooooo  OOOOOOOO  oooo  oo  oooooooooooo  OOOOOOOOOOOOOOOOOOOO  oooooo  OOOOOOOO  oooo  oo  oooooooooooo  OOOOOOOOOOOOOOOOOOOO  oooooo  OOOOOOOO  oooo  oo  oooooooooooo  OOOOOOOOOOOOOOOOOOOO  oooooo  OOO",
"OOOOO  oooo  oo  oooooooooooo  OOOOOOOOOOOOOOOOOOOO  oooooo  OOOOOO      oooooooooooo      oo                        oooooo  OOOOOOOO  oooo  oo  oooooooooooo  OOOOOOOOOOOOOOOOOOOO  oooooo  OOOOOO      oooooooooooo      oo                        oooooo  OOO",
"OOO      oooooooooooo      oo                        oooooo  OOOOOO      oooooooooooo      oo                        oooooo  OOOOOO      oooooooooooo      oo                        oooooo  OOOOOO      oooooooooooo      oo                        oooooo  OOO",
"OOO      oooooooooooo      oo                        oooooo  OOOOOOOOOO    oooooooooooooooooooo....oooo....oooo....oooooooo  OOOOOO      oooooooooooo      oo                        oooooo  OOOOOOOOOO    oooooooooooooooooooo....oooo....oooo....oooooooo  OOO",
"OOOOOOO    oooooooooooooooooooo....oooo....oooo....oooooooo  OOOOOOOOOO    oooooooooooooooooooo....oooo....oooo....oooooooo  OOOOOOOOOO    oooooooooooooooooooo....oooo....oooo....oooooooo  OOOOOOOOOO    oooooooooooooooooooo....oooo....oooo....oooooooo  OOO",
"OOOOOOO    oooooooooooooooooooo....oooo....oooo....oooooooo  OOOOOOOOOOOO        oooooooooooooo....oooo....oooo....oooooooo  OOOOOOOOOO    oooooooooooooooooooo....oooo....oooo....oooooooo  OOOOOOOOOOOO        oooooooooooooo....oooo....oooo....oooooooo  OOO",
"OOOOOOOOO        oooooooooooooo....oooo....oooo....oooooooo  OOOOOOOOOOOO        oooooooooooooo....oooo....oooo....oooooooo  OOOOOOOOOOOO        oooooooooooooo....oooo....oooo....oooooooo  OOOOOOOOOOOO        oooooooooooooo....oooo....oooo....oooooooo  OOO",
"OOOOOOOOO        oooooooooooooo....oooo....oooo....oooooooo  OOOOOOOOOOOOOOOO  oooooooooooooooo....oooo....oooo....oooooooo  OOOOOOOOOOOO        oooooooooooooo....oooo....oooo....oooooooo  OOOOOOOOOOOOOOOO  oooooooooooooooo....oooo....oooo....oooooooo  OOO",
"OOOOOOOOOOOOO  oooooooooooooooo....oooo....oooo....oooooooo  OOOOOOOOOOOOOOOO  oooooooooooooooo....oooo....oooo....oooooooo  OOOOOOOOOOOOOOOO  oooooooooooooooo....oooo....oooo....oooooooo  OOOOOOOOOOOOOOOO  oooooooooooooooo....oooo....oooo....oooooooo  OOO",
"OOOOOOOOOOOOO  oooooooooooooooo....oooo....oooo....oooooooo  OOOOOOOOOOOOOOOO  oooooooooooooooo....oooo....oooo....oooooooo  OOOOOOOOOOOOOOOO  oooooooooooooooo....oooo....oooo....oooooooo  OOOOOOOOOOOOOOOO  oooooooooooooooo....oooo....oooo....oooooooo  OOO",
"OOOOOOOOOOOOO  oooooooooooooooo....oooo....oooo....oooooooo  OOOOOOOOOOOOOOOO  oooooooooooooooo....oooo....oooo....oooooooo  OOOOOOOOOOOOOOOO  oooooooooooooooo....oooo....oooo....oooooooo  OOOOOOOOOOOOOOOO  oooooooooooooooo....oooo....oooo....oooooooo  OOO",
"OOOOOOOOOOOOO  oooooooooooooooo....oooo....oooo....oooooooo  OOOOOOOOOOOOOOOO  oooooooooooooooo....oooo....oooo....oooooooo  OOOOOOOOOOOOOOOO  oooooooooooooooo....oooo....oooo....oooooooo  OOOOOOOOOOOOOOOO  oooooooooooooooo....oooo....oooo....oooooooo  OOO",
"OOOOOOOOOOOOO  oooooooooooooooo....oooo....oooo....oooooooo  OOOOOOOOOOOOOOOO  oooooooooooooooo....oooo....oooo....oooooooo  OOOOOOOOOOOOOOOO  oooooooooooooooo....oooo....oooo....oooooooo  OOOOOOOOOOOOOOOO  oooooooooooooooo....oooo....oooo....oooooooo  OOO",
"OOOOOOOOOOOOO  oooooooooooooooo....oooo....oooo....oooooooo  OOOOOOOOOOOOOOOO  oooooooooooooooooooooooooooooooooooooooooooo  OOOOOOOOOOOOOOOO  oooooooooooooooo....oooo....oooo....oooooooo  OOOOOOOOOOOOOOOO  oooooooooooooooooooooooooooooooooooooooooooo  OOO",
"OOOOOOOOOOOOO  oooooooooooooooooooooooooooooooooooooooooooo  OOOOOOOOOOOOOOOO  oooooooooooooooooooooooooooooooooooooooooooo  OOOOOOOOOOOOOOOO  oooooooooooooooooooooooooooooooooooooooooooo  OOOOOOOOOOOOOOOO  oooooooooooooooooooooooooooooooooooooooooooo  OOO",
"OOOOOOOOOOOOO  oooooooooooooooooooooooooooooooooooooooooooo  OOOOOOOOOOOOOOOO  oooooooooooooooooooooooooooooooooooooooooooo  OOOOOOOOOOOOOOOO  oooooooooooooooooooooooooooooooooooooooooooo  OOOOOOOOOOOOOOOO  oooooooooooooooooooooooooooooooooooooooooooo  OOO",
"OOOOOOOOOOOOO  oooooooooooooooooooooooooooooooooooooooooooo  OOOOOOOOOOOOOOOO  oooooooooooooooooooooooooooooooooooooooooooo  OOOOOOOOOOOOOOOO  oooooooooooooooooooooooooooooooooooooooooooo  OOOOOOOOOOOOOOOO  oooooooooooooooooooooooooooooooooooooooooooo  OOO",
"OOOOOOOOOOOOO  oooooooooooooooooooooooooooooooooooooooooooo  OOOOOOOOOOOOOOOO  oooooooooooooooooooooooooooooooooooooooooooo  OOOOOOOOOOOOOOOO  oooooooooooooooooooooooooooooooooooooooooooo  OOOOOOOOOOOOOOOO  oooooooooooooooooooooooooooooooooooooooooooo  OOO",
"OOOOOOOOOOOOO  oooooooooooooooooooooooooooooooooooooooooooo  OOOOOOOOOOOOOOOO  oooooooooooooooooooooooooooooooooooooooooooo  OOOOOOOOOOOOOOOO  oooooooooooooooooooooooooooooooooooooooooooo  OOOOOOOOOOOOOOOO  oooooooooooooooooooooooooooooooooooooooooooo  OOO",
"OOOOOOOOOOOOO  oooooooooooooooooooooooooooooooooooooooooooo  OOOOOOOOOOOOOOOO  oooooooooooooooooooooooooooooooooooooooooooo  OOOOOOOOOOOOOOOO  oooooooooooooooooooooooooooooooooooooooooooo  OOOOOOOOOOOOOOOO  oooooooooooooooooooooooooooooooooooooooooooo  OOO",
"OOOOOOOOOOOOO  oooooooooooooooooooooooooooooooooooooooooooo  OOOOOOOOOOOOOOOO  oooooooooooooooooooooooooooooooooooooooooooo  OOOOOOOOOOOOOOOO  oooooooooooooooooooooooooooooooooooooooooooo  OOOOOOOOOOOOOOOO  oooooooooooooooooooooooooooooooooooooooooooo  OOO",
"OOOOOOOOOOOOO  oooooooooooooooooooooooooooooooooooooooooooo  OOOOOOOOOOOOOOOO  oooooooooooooooooooooooooooooooooooooooooooo  OOOOOOOOOOOOOOOO  oooooooooooooooooooooooooooooooooooooooooooo  OOOOOOOOOOOOOOOO  oooooooooooooooooooooooooooooooooooooooooooo  OOO",
"OOOOOOOOOOOOO  oooooooooooooooooooooooooooooooooooooooooooo  OOOOOOOOOOOOOOOO  oooooooooooooooooooooooooooooooooooooooooooo  OOOOOOOOOOOOOOOO  oooooooooooooooooooooooooooooooooooooooooooo  OOOOOOOOOOOOOOOO  oooooooooooooooooooooooooooooooooooooooooooo  OOO",
"OOOOOOOOOOOOO  oooooooooooooooooooooooooooooooooooooooooooo  OOOOOOOOOOOOOOOO  oooooooooooooooooooooooooooooooooooooooooooo  OOOOOOOOOOOOOOOO  oooooooooooooooooooooooooooooooooooooooooooo  OOOOOOOOOOOOOOOO  oooooooooooooooooooooooooooooooooooooooooooo  OOO",
"OOOOOOOOOOOOO  oooooooooooooooooooooooooooooooooooooooooooo  OOOOOOOOOOOOOOOO  oooooooooooooooooooooooooooooooooooooooooooo  OOOOOOOOOOOOOOOO  oooooooooooooooooooooooooooooooooooooooooooo  OOOOOOOOOOOOOOOO  oooooooooooooooooooooooooooooooooooooooooooo  OOO",
"OOOOOOOOOOOOO  oooooooooooooooooooooooooooooooooooooooooooo  OOOOOOOOOOOOOOOO  oooooooooooooooooooooooooooooooooooooooooooo  OOOOOOOOOOOOOOOO  oooooooooooooooooooooooooooooooooooooooooooo  OOOOOOOOOOOOOOOO  oooooooooooooooooooooooooooooooooooooooooooo  OOO",
"OOOOOOOOOOOOO  oooooooooooooooooooooooooooooooooooooooooooo  OOOOOOOOOOOOOOOO  oooooooooooooooooooooooooooooooooooooooooooo  OOOOOOOOOOOOOOOO  oooooooooooooooooooooooooooooooooooooooooooo  OOOOOOOOOOOOOOOO  oooooooooooooooooooooooooooooooooooooooooooo  OOO",
"OOOOOOOOOOOOO  oooooooooooooooooooooooooooooooooooooooooooo  OOOOOOOOOOOOOOOO  oooooooooooooooooooooooooooooooooooooooooooo  OOOOOOOOOOOOOOOO  oooooooooooooooooooooooooooooooooooooooooooo  OOOOOOOOOOOOOOOO  oooooooooooooooooooooooooooooooooooooooooooo  OOO",
"OOOOOOOOOOOO   oooooooooooooooooooooooooooooooooooooooooooo  OOOOOOOOOOOOOOOO  oooooooooooooooooooooooooooooooooooooooooooo  OOOOOOOOOOOOOOO   oooooooooooooooooooooooooooooooooooooooooooo  OOOOOOOOOOOOOOOO  oooooooooooooooooooooooooooooooooooooooooooo  OOO",
"OOOOOOOOOOO   oooooooooooooooooooooooooooooooooooooooooo     OOOOOOOOOOOOOOOO  oooooo                                oooooo  OOOOOOOOOOOOOO   oooooooooooooooooooooooooooooooooooooooooo     OOOOOOOOOOOOOOOO  oooooo                                oooooo  OOO",
"OOOOOOOOOO   oooooooooooooooooooooooooooooooooooooooooooo    OOOOOOOOOOOOOOOO  oooooo                                oooooo  OOOOOOOOOOOOO   oooooooooooooooooooooooooooooooooooooooooooo    OOOOOOOOOOOOOOOO  oooooo                                oooooo  OOO",
"OOOOOOOOO   ooooooo   ooooooo            ooooooo    oooooo   OOOOOOOOOOOOOOOO  oooooo  oo  OOOOOOOOOOOOOOOOOOOO  oo  oooooo  OOOOOOOOOOOO   ooooooo   ooooooo            ooooooo    oooooo   OOOOOOOOOOOOOOOO  oooooo  oo  OOOOOOOOOOOOOOOOOOOO  oo  oooooo  OOO",
"OOOOOOOO   ooooooo     ooooooo          ooooooo      oooooo   OOOOOOOOOOOOOOO  oooooo  oo  OOOOOOOOOOOOOOOOOOOO  oo  oooooo  OOOOOOOOOOO   ooooooo     ooooooo          ooooooo      oooooo   OOOOOOOOOOOOOOO  oooooo  oo  OOOOOOOOOOOOOOOOOOOO  oo  oooooo  OOO",
"OOOOOOOO  ooooooo   O   ooooooo   OOO  ooooooo   O   ooooooo   OOOOOOOOOOOOOO  oooooo  oo  OOOOOOOOOOOOOOOOOOOO  oo  oooooo  OOOOOOOOOOO  ooooooo   O   ooooooo   OOO  ooooooo   O   ooooooo   OOOOOOOOOOOOOO  oooooo  oo  OOOOOOOOOOOOOOOOOOOO  oo  oooooo  OOO",
"OOOOOOOO  oooooo   OOO   ooooooo  OOO  oooooo   OOO   ooooooo  OOOOOOOOOOOOOO  oooooo  oo  OOOOOOOOOOOOOOOOOOOO  oo  oooooo  OOOOOOOOOOO  oooooo   OOO   ooooooo  OOO  oooooo   OOO   ooooooo  OOOOOOOOOOOOOO  oooooo  oo  OOOOOOOOOOOOOOOOOOOO  oo  oooooo  OOO",
"OOOOOOOO   oooo   OOOOO   oooooo  OOO   oooo   OOOOO   oooooo  OOOOOOOOOOOOOO  oooooo  oo  OOOOOOOOOOOOOOOOOOOO  oo  oooooo  OOOOOOOOOOO   oooo   OOOOO   oooooo  OOO   oooo   OOOOO   oooooo  OOOOOOOOOOOOOO  oooooo  oo  OOOOOOOOOOOOOOOOOOOO  oo  oooooo  OOO",
"OOOOOOOOO   oo   OOOOOOO   oooo   OOOO   oo   OOOOOOO   oooo   OOOOOOOOOOOOOO  oooooo  oo  OOOOOOOOOOOOOOOOOOOO  oo  oooooo  OOOOOOOOOOOO   oo   OOOOOOO   oooo   OOOO   oo   OOOOOOO   oooo   OOOOOOOOOOOOOO  oooooo  oo  OOOOOOOOOOOOOOOOOOOO  oo  oooooo  OOO",
"OOOOOOOOOO      OOOOOOOOO   oo   OOOOOO      OOOOOOOOO   oo   OOOOOOOOOOOOOOO  oooooo  oo  OOOOOOOOOOOOOOOOOOOO  oo  oooooo  OOOOOOOOOOOOO      OOOOOOOOO   oo   OOOOOO      OOOOOOOOO   oo   OOOOOOOOOOOOOOO  oooooo  oo  OOOOOOOOOOOOOOOOOOOO  oo  oooooo  OOO",
"OOOOOOOOOOO    OOOOOOOOOOO      OOOOOOOO    OOOOOOOOOOO      OOOOOOOOOOOOOOOO              OOOOOOOOOOOOOOOOOOOO              OOOOOOOOOOOOOO    OOOOOOOOOOO      OOOOOOOO    OOOOOOOOOOO      OOOOOOOOOOOOOOOO              OOOOOOOOOOOOOOOOOOOO              OOO",
"OOOOOOOOOOOOOOOOOOOOOOOOOOO    OOOOOOOOOOOOOOOOOOOOOOOOO    OOOOOOOOOOOOOOOOO              OOOOOOOOOOOOOOOOOOOO              OOOOOOOOOOOOOOOOOOOOOOOOOOOOOO    OOOOOOOOOOOOOOOOOOOOOOOOO    OOOOOOOOOOOOOOOOO              OOOOOOOOOOOOOOOOOOOO              OOO",
"OOOOOOOOOOOOOOOOOOOOOOOOOOOOOOOOOOOOOOOOOOOOOOOOOOOOOOOOOOOOOOOOOOOOOOOOOOOOOOOOOOOOOOOOOOOOOOOOOOOOOOOOOOOOOOOOOOOOOOOOOOOOOOOOOOOOOOOOOOOOOOOOOOOOOOOOOOOOOOOOOOOOOOOOOOOOOOOOOOOOOOOOOOOOOOOOOOOOOOOOOOOOOOOOOOOOOOOOOOOOOOOOOOOOOOOOOOOOOOOOOOOOOOOOOOOOOOOO",
"OOOOOOOOOOOOOOOOOOOOOOOOOOOOOOOOOOOOOOOOOOOOOOOOOOOOOOOOOOOOOOOOOOOOOOOOOOOOOOOOOOOOOOOOOOOOOOOOOOOOOOOOOOOOOOOOOOOOOOOOOOOOOOOOOOOOOOOOOOOOOOOOOOOOOOOOOOOOOOOOOOOOOOOOOOOOOOOOOOOOOOOOOOOOOOOOOOOOOOOOOOOOOOOOOOOOOOOOOOOOOOOOOOOOOOOOOOOOOOOOOOOOOOOOOOOOOOOO"
};
