/* XPM */
static char *xpm_[] = {
/* columns rows colors chars-per-pixel */
"256 64 5 1 ",
"  c black",
". c #464646",
"X c #FFA3B1",
"o c white",
"O c None",
/* pixels */
"OOOOOOOOOOOOOOOOOOOOOOOOOOOOOOOOOOOOOOOOOOOOOOOOOOOOOOOOOOOOOOOOOOOOOOOOOOOOOOOOOOOOOOOOOOOOOOOOOOOOOOOOOOOOOOOOOOOOOOOOOOOOOOOOOOOOOOOOOOOOOOOOOOOOOOOOOOOOOOOOOOOOOOOOOOOOOOOOOOOOOOOOOOOOOOOOOOOOOOOOOOOOOOOOOOOOOOOOOOOOOOOOOOOOOOOOOOOOOOOOOOOOOOOOOOOOOOOO",
"OOOOOOOOOOOOOOOOOOOOOOOOOOOOOOOOOOOOOOOOOOOOOOOOOOOOOOOOOOOOOOOOOOOOOOOOOOOOOOOOOOOOOOOOOOOOOOOOOOOOOOOOO          OOOOOOOOOOOOOOOOOOOOOOOOOOOOOOOOOOOOOOOOOOOOOOOOOOOOOOOOOOOOOOOOOOOOOOOOOOOOOOOOOOOOOOOOOOOOOOOOOOOOOOOOOOOOOOOOOOOOOO          OOOOOOOOOOOOO",
"OOOOOOOOOOOOOOOOOOOOOOOOOOOOOOOOOOOOOOOOO          OOOOOOOOOOOOOOOOOOOOOOOOOOOOOOOOOOOOOOOOOOOOOOOOOOOOOO          OOOOOOOOOOOOOOOOOOOOOOOOOOOOOOOOOOOOOOOOOOOOOOOOOOOOOO          OOOOOOOOOOOOOOOOOOOOOOOOOOOOOOOOOOOOOOOOOOOOOOOOOOOOOO          OOOOOOOOOOOOO",
"OOOOOOOOOOOOOOOOOOOOOOOOOOOOOOOOOOOOOOOOO          OOOOOOOOOOOOOOOO          OOOOOOOOOOOOOOOOOOOOOOOOOO    oo        OOOOOOOOOOOOOOOOOOOOOOOOOOOOOOOOOOOOOOOOOOOOOOOOOOOO          OOOOOOOOOOOOOOOO          OOOOOOOOOOOOOOOOOOOOOOOOOO    oo        OOOOOOOOOOO",
"OOO          OOOOOOOOOOOOOOOOOOOOOOOOOO    oo        OOOOOOOOOOOOOO          OOOOOOOOOOOOOOOOOOOOOOOOOO    oo        OOOOOOOOOOOOOO          OOOOOOOOOOOOOOOOOOOOOOOOOO    oo        OOOOOOOOOOOOOO          OOOOOOOOOOOOOOOOOOOOOOOOOO    oo        OOOOOOOOOOO",
"OOO          OOOOOOOOOOOOOOOOOOOOOOOOOO    oo        OOOOOOOOOOOOOO  oooooo  OOOOOOOOOOOOOOOOOOOOOOOO    XXoo    oo  OOOOOOOOOOOOOO          OOOOOOOOOOOOOOOOOOOOOOOOOO    oo        OOOOOOOOOOOOOO  oooooo  OOOOOOOOOOOOOOOOOOOOOOOO    XXoo    oo  OOOOOOOOOOO",
"OOO  oooooo  OOOOOOOOOOOOOOOOOOOOOOOO    XXoo    oo  OOOOOOOOOOOOOO  oooooo  OOOOOOOOOOOOOOOOOOOOOOOO    XXoo    oo  OOOOOOOOOOOOOO  oooooo  OOOOOOOOOOOOOOOOOOOOOOOO    XXoo    oo  OOOOOOOOOOOOOO  oooooo  OOOOOOOOOOOOOOOOOOOOOOOO    XXoo    oo  OOOOOOOOOOO",
"OOO  oooooo  OOOOOOOOOOOOOOOOOOOOOOOO    XXoo    oo  OOOOOOOOOOOOOO  oooooo  OOOOOOOOOOOOOOOOOOOOOOOO  XXXXoo    oo  OOOOOOOOOOOOOO  oooooo  OOOOOOOOOOOOOOOOOOOOOOOO    XXoo    oo  OOOOOOOOOOOOOO  oooooo  OOOOOOOOOOOOOOOOOOOOOOOO  XXXXoo    oo  OOOOOOOOOOO",
"OOO  oooooo  OOOOOOOOOOOOOOOOOOOOOOOO  XXXXoo    oo  OOOOOOOOOOOOOO  oooooo  OOOOOOOOOOOOOOOOOOOOOOOO  XXXXoo    oo  OOOOOOOOOOOOOO  oooooo  OOOOOOOOOOOOOOOOOOOOOOOO  XXXXoo    oo  OOOOOOOOOOOOOO  oooooo  OOOOOOOOOOOOOOOOOOOOOOOO  XXXXoo    oo  OOOOOOOOOOO",
"OOO  oooooo  OOOOOOOOOOOOOOOOOOOOOOOO  XXXXoo    oo  OOOOOOOOOOOOOO  oooooo  OOOOOOOOOOOOOOOOOOOOOOOO  XXXXoo          OOOOOOOOOOOO  oooooo  OOOOOOOOOOOOOOOOOOOOOOOO  XXXXoo    oo  OOOOOOOOOOOOOO  oooooo  OOOOOOOOOOOOOOOOOOOOOOOO  XXXXoo          OOOOOOOOO",
"OOO  oooooo  OOOOOOOOOOOOOOOOOOOOOOOO  XXXXoo          OOOOOOOOOOOO  oooooo  OOOOOOOOOOOOOOOOOOOOOOOO  XXXXoo          OOOOOOOOOOOO  oooooo  OOOOOOOOOOOOOOOOOOOOOOOO  XXXXoo          OOOOOOOOOOOO  oooooo  OOOOOOOOOOOOOOOOOOOOOOOO  XXXXoo          OOOOOOOOO",
"OOO  oooooo  OOOOOOOOOOOOOOOOOOOOOOOO  XXXXoo          OOOOOOOOOOOO  ......  OOOOOOOOOOOOOOOOOOOOOO    oooooooooooooo    OOOOOOOOOO  oooooo  OOOOOOOOOOOOOOOOOOOOOOOO  XXXXoo          OOOOOOOOOOOO  ......  OOOOOOOOOOOOOOOOOOOOOO    oooooooooooooo    OOOOOOO",
"OOO  ......  OOOOOOOOOOOOOOOOOOOOOO    oooooooooooooo    OOOOOOOOOO  ......  OOOOOOOOOOOOOOOOOOOOOO    oooooooooooooo    OOOOOOOOOO  ......  OOOOOOOOOOOOOOOOOOOOOO    oooooooooooooo    OOOOOOOOOO  ......  OOOOOOOOOOOOOOOOOOOOOO    oooooooooooooo    OOOOOOO",
"OOO  ......  OOOOOOOOOOOOOOOOOOOOOO    oooooooooooooo    OOOOOOOOOO  oooooo  OOOOOOOOOOOOOOOOOOOOOO  oooooooooooooooooo  OOOOOOOOOO  ......  OOOOOOOOOOOOOOOOOOOOOO    oooooooooooooo    OOOOOOOOOO  oooooo  OOOOOOOOOOOOOOOOOOOOOO  oooooooooooooooooo  OOOOOOO",
"OOO  oooooo  OOOOOOOOOOOOOOOOOOOOOO  oooooooooooooooooo  OOOOOOOOOO  oooooo  OOOOOOOOOOOOOOOOOOOOOO  oooooooooooooooooo  OOOOOOOOOO  oooooo  OOOOOOOOOOOOOOOOOOOOOO  oooooooooooooooooo  OOOOOOOOOO  oooooo  OOOOOOOOOOOOOOOOOOOOOO  oooooooooooooooooo  OOOOOOO",
"OOO  oooooo  OOOOOOOOOOOOOOOOOOOOOO  oooooooooooooooooo  OOOOOOOOOO  oooooo  OOOOOOOOOOOOOOOOOOOO    oooooooooooooooooooo  OOOOOOOO  oooooo  OOOOOOOOOOOOOOOOOOOOOO  oooooooooooooooooo  OOOOOOOOOO  oooooo  OOOOOOOOOOOOOOOOOOOO    oooooooooooooooooooo  OOOOO",
"OOO  oooooo  OOOOOOOOOOOOOOOOOOOO    oooooooooooooooooooo  OOOOOOOO  oooooo  OOOOOOOOOOOOOOOOOOOO    oooooooooooooooooooo  OOOOOOOO  oooooo  OOOOOOOOOOOOOOOOOOOO    oooooooooooooooooooo  OOOOOOOO  oooooo  OOOOOOOOOOOOOOOOOOOO    oooooooooooooooooooo  OOOOO",
"OOO  oooooo  OOOOOOOOOOOOOOOOOOOO    oooooooooooooooooooo  OOOOOOOO  ......  OOOOOOOOOOOOOOOOOOOO  oooooooooo  oooooo  oo  OOOOOOOO  oooooo  OOOOOOOOOOOOOOOOOOOO    oooooooooooooooooooo  OOOOOOOO  ......  OOOOOOOOOOOOOOOOOOOO  oooooooooo  oooooo  oo  OOOOO",
"OOO  ......  OOOOOOOOOOOOOOOOOOOO  oooooooooo  oooooo  oo  OOOOOOOO  ......  OOOOOOOOOOOOOOOOOOOO  oooooooooo  oooooo  oo  OOOOOOOO  ......  OOOOOOOOOOOOOOOOOOOO  oooooooooo  oooooo  oo  OOOOOOOO  ......  OOOOOOOOOOOOOOOOOOOO  oooooooooo  oooooo  oo  OOOOO",
"OOO  ......  OOOOOOOOOOOOOOOOOOOO  oooooooooo  oooooo  oo  OOOOOOOO  oooooo  OOOOOOOOOOOOOOOOOOOO          oooooo  oooooo    OOOOOO  ......  OOOOOOOOOOOOOOOOOOOO  oooooooooo  oooooo  oo  OOOOOOOO  oooooo  OOOOOOOOOOOOOOOOOOOO          oooooo  oooooo    OOO",
"OOO  oooooo  OOOOOOOOOOOOOOOOOOOO          oooooo  oooooo    OOOOOO  oooooo  OOOOOOOOOOOOOOOOOOOO          oooooo  oooooo    OOOOOO  oooooo  OOOOOOOOOOOOOOOOOOOO          oooooo  oooooo    OOOOOO  oooooo  OOOOOOOOOOOOOOOOOOOO          oooooo  oooooo    OOO",
"OOO  oooooo  OOOOOOOOOOOOOOOOOOOO          oooooo  oooooo    OOOOOO  oooooo  OOOOOOOOOOOOOOOOOOOO  oooooooooooo  oo  oooo  OOOOOOOO  oooooo  OOOOOOOOOOOOOOOOOOOO          oooooo  oooooo    OOOOOO  oooooo  OOOOOOOOOOOOOOOOOOOO  oooooooooooo  oo  oooo  OOOOO",
"OOO  oooooo  OOOOOOOOOOOOOOOOOOOO  oooooooooooo  oo  oooo  OOOOOOOO  oooooo  OOOOOOOOOOOOOOOOOOOO  oooooooooooo  oo  oooo  OOOOOOOO  oooooo  OOOOOOOOOOOOOOOOOOOO  oooooooooooo  oo  oooo  OOOOOOOO  oooooo  OOOOOOOOOOOOOOOOOOOO  oooooooooooo  oo  oooo  OOOOO",
"OOO  oooooo  OOOOOOOOOOOOOOOOOOOO  oooooooooooo  oo  oooo  OOOOOOOO  oooooo                        oo      oooooooooooo      OOOOOO  oooooo  OOOOOOOOOOOOOOOOOOOO  oooooooooooo  oo  oooo  OOOOOOOO  oooooo                        oo      oooooooooooo      OOO",
"OOO  oooooo                        oo      oooooooooooo      OOOOOO  oooooo                        oo      oooooooooooo      OOOOOO  oooooo                        oo      oooooooooooo      OOOOOO  oooooo                        oo      oooooooooooo      OOO",
"OOO  oooooo                        oo      oooooooooooo      OOOOOO  oooooooo....oooo....oooo....oooooooooooooooooooo    OOOOOOOOOO  oooooo                        oo      oooooooooooo      OOOOOO  oooooooo....oooo....oooo....oooooooooooooooooooo    OOOOOOO",
"OOO  oooooooo....oooo....oooo....oooooooooooooooooooo    OOOOOOOOOO  oooooooo....oooo....oooo....oooooooooooooooooooo    OOOOOOOOOO  oooooooo....oooo....oooo....oooooooooooooooooooo    OOOOOOOOOO  oooooooo....oooo....oooo....oooooooooooooooooooo    OOOOOOO",
"OOO  oooooooo....oooo....oooo....oooooooooooooooooooo    OOOOOOOOOO  oooooooo....oooo....oooo....oooooooooooooo        OOOOOOOOOOOO  oooooooo....oooo....oooo....oooooooooooooooooooo    OOOOOOOOOO  oooooooo....oooo....oooo....oooooooooooooo        OOOOOOOOO",
"OOO  oooooooo....oooo....oooo....oooooooooooooo        OOOOOOOOOOOO  oooooooo....oooo....oooo....oooooooooooooo        OOOOOOOOOOOO  oooooooo....oooo....oooo....oooooooooooooo        OOOOOOOOOOOO  oooooooo....oooo....oooo....oooooooooooooo        OOOOOOOOO",
"OOO  oooooooo....oooo....oooo....oooooooooooooo        OOOOOOOOOOOO  oooooooo....oooo....oooo....oooooooooooooooo  OOOOOOOOOOOOOOOO  oooooooo....oooo....oooo....oooooooooooooo        OOOOOOOOOOOO  oooooooo....oooo....oooo....oooooooooooooooo  OOOOOOOOOOOOO",
"OOO  oooooooo....oooo....oooo....oooooooooooooooo  OOOOOOOOOOOOOOOO  oooooooo....oooo....oooo....oooooooooooooooo  OOOOOOOOOOOOOOOO  oooooooo....oooo....oooo....oooooooooooooooo  OOOOOOOOOOOOOOOO  oooooooo....oooo....oooo....oooooooooooooooo  OOOOOOOOOOOOO",
"OOO  oooooooo....oooo....oooo....oooooooooooooooo  OOOOOOOOOOOOOOOO  oooooooo....oooo....oooo....oooooooooooooooo  OOOOOOOOOOOOOOOO  oooooooo....oooo....oooo....oooooooooooooooo  OOOOOOOOOOOOOOOO  oooooooo....oooo....oooo....oooooooooooooooo  OOOOOOOOOOOOO",
"OOO  oooooooo....oooo....oooo....oooooooooooooooo  OOOOOOOOOOOOOOOO  oooooooo....oooo....oooo....oooooooooooooooo  OOOOOOOOOOOOOOOO  oooooooo....oooo....oooo....oooooooooooooooo  OOOOOOOOOOOOOOOO  oooooooo....oooo....oooo....oooooooooooooooo  OOOOOOOOOOOOO",
"OOO  oooooooo....oooo....oooo....oooooooooooooooo  OOOOOOOOOOOOOOOO  oooooooo....oooo....oooo....oooooooooooooooo  OOOOOOOOOOOOOOOO  oooooooo....oooo....oooo....oooooooooooooooo  OOOOOOOOOOOOOOOO  oooooooo....oooo....oooo....oooooooooooooooo  OOOOOOOOOOOOO",
"OOO  oooooooo....oooo....oooo....oooooooooooooooo  OOOOOOOOOOOOOOOO  oooooooo....oooo....oooo....oooooooooooooooo  OOOOOOOOOOOOOOOO  oooooooo....oooo....oooo....oooooooooooooooo  OOOOOOOOOOOOOOOO  oooooooo....oooo....oooo....oooooooooooooooo  OOOOOOOOOOOOO",
"OOO  oooooooo....oooo....oooo....oooooooooooooooo  OOOOOOOOOOOOOOOO  oooooooooooooooooooooooooooooooooooooooooooo  OOOOOOOOOOOOOOOO  oooooooo....oooo....oooo....oooooooooooooooo  OOOOOOOOOOOOOOOO  oooooooooooooooooooooooooooooooooooooooooooo  OOOOOOOOOOOOO",
"OOO  oooooooooooooooooooooooooooooooooooooooooooo  OOOOOOOOOOOOOOOO  oooooooooooooooooooooooooooooooooooooooooooo  OOOOOOOOOOOOOOOO  oooooooooooooooooooooooooooooooooooooooooooo  OOOOOOOOOOOOOOOO  oooooooooooooooooooooooooooooooooooooooooooo  OOOOOOOOOOOOO",
"OOO  oooooooooooooooooooooooooooooooooooooooooooo  OOOOOOOOOOOOOOOO  oooooooooooooooooooooooooooooooooooooooooooo  OOOOOOOOOOOOOOOO  oooooooooooooooooooooooooooooooooooooooooooo  OOOOOOOOOOOOOOOO  oooooooooooooooooooooooooooooooooooooooooooo  OOOOOOOOOOOOO",
"OOO  oooooooooooooooooooooooooooooooooooooooooooo  OOOOOOOOOOOOOOOO  oooooooooooooooooooooooooooooooooooooooooooo  OOOOOOOOOOOOOOOO  oooooooooooooooooooooooooooooooooooooooooooo  OOOOOOOOOOOOOOOO  oooooooooooooooooooooooooooooooooooooooooooo  OOOOOOOOOOOOO",
"OOO  oooooooooooooooooooooooooooooooooooooooooooo  OOOOOOOOOOOOOOOO  oooooooooooooooooooooooooooooooooooooooooooo  OOOOOOOOOOOOOOOO  oooooooooooooooooooooooooooooooooooooooooooo  OOOOOOOOOOOOOOOO  oooooooooooooooooooooooooooooooooooooooooooo  OOOOOOOOOOOOO",
"OOO  oooooooooooooooooooooooooooooooooooooooooooo  OOOOOOOOOOOOOOOO  oooooooooooooooooooooooooooooooooooooooooooo  OOOOOOOOOOOOOOOO  oooooooooooooooooooooooooooooooooooooooooooo  OOOOOOOOOOOOOOOO  oooooooooooooooooooooooooooooooooooooooooooo  OOOOOOOOOOOOO",
"OOO  oooooooooooooooooooooooooooooooooooooooooooo  OOOOOOOOOOOOOOOO  oooooooooooooooooooooooooooooooooooooooooooo  OOOOOOOOOOOOOOOO  oooooooooooooooooooooooooooooooooooooooooooo  OOOOOOOOOOOOOOOO  oooooooooooooooooooooooooooooooooooooooooooo  OOOOOOOOOOOOO",
"OOO  oooooooooooooooooooooooooooooooooooooooooooo  OOOOOOOOOOOOOOOO  oooooooooooooooooooooooooooooooooooooooooooo  OOOOOOOOOOOOOOOO  oooooooooooooooooooooooooooooooooooooooooooo  OOOOOOOOOOOOOOOO  oooooooooooooooooooooooooooooooooooooooooooo  OOOOOOOOOOOOO",
"OOO  oooooooooooooooooooooooooooooooooooooooooooo  OOOOOOOOOOOOOOOO  oooooooooooooooooooooooooooooooooooooooooooo  OOOOOOOOOOOOOOOO  oooooooooooooooooooooooooooooooooooooooooooo  OOOOOOOOOOOOOOOO  oooooooooooooooooooooooooooooooooooooooooooo  OOOOOOOOOOOOO",
"OOO  oooooooooooooooooooooooooooooooooooooooooooo  OOOOOOOOOOOOOOOO  oooooooooooooooooooooooooooooooooooooooooooo  OOOOOOOOOOOOOOOO  oooooooooooooooooooooooooooooooooooooooooooo  OOOOOOOOOOOOOOOO  oooooooooooooooooooooooooooooooooooooooooooo  OOOOOOOOOOOOO",
"OOO  oooooooooooooooooooooooooooooooooooooooooooo  OOOOOOOOOOOOOOOO  oooooooooooooooooooooooooooooooooooooooooooo  OOOOOOOOOOOOOOOO  oooooooooooooooooooooooooooooooooooooooooooo  OOOOOOOOOOOOOOOO  oooooooooooooooooooooooooooooooooooooooooooo  OOOOOOOOOOOOO",
"OOO  oooooooooooooooooooooooooooooooooooooooooooo  OOOOOOOOOOOOOOOO  oooooooooooooooooooooooooooooooooooooooooooo  OOOOOOOOOOOOOOOO  oooooooooooooooooooooooooooooooooooooooooooo  OOOOOOOOOOOOOOOO  oooooooooooooooooooooooooooooooooooooooooooo  OOOOOOOOOOOOO",
"OOO  oooooooooooooooooooooooooooooooooooooooooooo  OOOOOOOOOOOOOOOO  oooooooooooooooooooooooooooooooooooooooooooo  OOOOOOOOOOOOOOOO  oooooooooooooooooooooooooooooooooooooooooooo  OOOOOOOOOOOOOOOO  oooooooooooooooooooooooooooooooooooooooooooo  OOOOOOOOOOOOO",
"OOO  oooooooooooooooooooooooooooooooooooooooooooo  OOOOOOOOOOOOOOOO  oooooooooooooooooooooooooooooooooooooooooooo  OOOOOOOOOOOOOOOO  oooooooooooooooooooooooooooooooooooooooooooo  OOOOOOOOOOOOOOOO  oooooooooooooooooooooooooooooooooooooooooooo  OOOOOOOOOOOOO",
"OOO  oooooooooooooooooooooooooooooooooooooooooooo  OOOOOOOOOOOOOOOO  oooooooooooooooooooooooooooooooooooooooooooo  OOOOOOOOOOOOOOOO  oooooooooooooooooooooooooooooooooooooooooooo  OOOOOOOOOOOOOOOO  oooooooooooooooooooooooooooooooooooooooooooo  OOOOOOOOOOOOO",
"OOO  oooooooooooooooooooooooooooooooooooooooooooo   OOOOOOOOOOOOOOO  oooooooooooooooooooooooooooooooooooooooooooo  OOOOOOOOOOOOOOOO  oooooooooooooooooooooooooooooooooooooooooooo   OOOOOOOOOOOOOOO  oooooooooooooooooooooooooooooooooooooooooooo  OOOOOOOOOOOOO",
"OOO     oooooooooooooooooooooooooooooooooooooooooo   OOOOOOOOOOOOOO  oooooo                                oooooo  OOOOOOOOOOOOOOOO     oooooooooooooooooooooooooooooooooooooooooo   OOOOOOOOOOOOOO  oooooo                                oooooo  OOOOOOOOOOOOO",
"OOO    oooooooooooooooooooooooooooooooooooooooooooo   OOOOOOOOOOOOO  oooooo                                oooooo  OOOOOOOOOOOOOOOO    oooooooooooooooooooooooooooooooooooooooooooo   OOOOOOOOOOOOO  oooooo                                oooooo  OOOOOOOOOOOOO",
"OOO   oooooo    ooooooo            ooooooo   ooooooo   OOOOOOOOOOOO  oooooo  oo  OOOOOOOOOOOOOOOOOOOO  oo  oooooo  OOOOOOOOOOOOOOOO   oooooo    ooooooo            ooooooo   ooooooo   OOOOOOOOOOOO  oooooo  oo  OOOOOOOOOOOOOOOOOOOO  oo  oooooo  OOOOOOOOOOOOO",
"OO   oooooo      ooooooo          ooooooo     ooooooo   OOOOOOOOOOO  oooooo  oo  OOOOOOOOOOOOOOOOOOOO  oo  oooooo  OOOOOOOOOOOOOOO   oooooo      ooooooo          ooooooo     ooooooo   OOOOOOOOOOO  oooooo  oo  OOOOOOOOOOOOOOOOOOOO  oo  oooooo  OOOOOOOOOOOOO",
"O   ooooooo   O   ooooooo  OOO   ooooooo   O   ooooooo  OOOOOOOOOOO  oooooo  oo  OOOOOOOOOOOOOOOOOOOO  oo  oooooo  OOOOOOOOOOOOOO   ooooooo   O   ooooooo  OOO   ooooooo   O   ooooooo  OOOOOOOOOOO  oooooo  oo  OOOOOOOOOOOOOOOOOOOO  oo  oooooo  OOOOOOOOOOOOO",
"O  ooooooo   OOO   oooooo  OOO  ooooooo   OOO   oooooo  OOOOOOOOOOO  oooooo  oo  OOOOOOOOOOOOOOOOOOOO  oo  oooooo  OOOOOOOOOOOOOO  ooooooo   OOO   oooooo  OOO  ooooooo   OOO   oooooo  OOOOOOOOOOO  oooooo  oo  OOOOOOOOOOOOOOOOOOOO  oo  oooooo  OOOOOOOOOOOOO",
"O  oooooo   OOOOO   oooo   OOO  oooooo   OOOOO   oooo   OOOOOOOOOOO  oooooo  oo  OOOOOOOOOOOOOOOOOOOO  oo  oooooo  OOOOOOOOOOOOOO  oooooo   OOOOO   oooo   OOO  oooooo   OOOOO   oooo   OOOOOOOOOOO  oooooo  oo  OOOOOOOOOOOOOOOOOOOO  oo  oooooo  OOOOOOOOOOOOO",
"O   oooo   OOOOOOO   oo   OOOO   oooo   OOOOOOO   oo   OOOOOOOOOOOO  oooooo  oo  OOOOOOOOOOOOOOOOOOOO  oo  oooooo  OOOOOOOOOOOOOO   oooo   OOOOOOO   oo   OOOO   oooo   OOOOOOO   oo   OOOOOOOOOOOO  oooooo  oo  OOOOOOOOOOOOOOOOOOOO  oo  oooooo  OOOOOOOOOOOOO",
"OO   oo   OOOOOOOOO      OOOOOO   oo   OOOOOOOOO      OOOOOOOOOOOOO  oooooo  oo  OOOOOOOOOOOOOOOOOOOO  oo  oooooo  OOOOOOOOOOOOOOO   oo   OOOOOOOOO      OOOOOO   oo   OOOOOOOOO      OOOOOOOOOOOOO  oooooo  oo  OOOOOOOOOOOOOOOOOOOO  oo  oooooo  OOOOOOOOOOOOO",
"OOO      OOOOOOOOOOO    OOOOOOOO      OOOOOOOOOOO    OOOOOOOOOOOOOO              OOOOOOOOOOOOOOOOOOOO              OOOOOOOOOOOOOOOO      OOOOOOOOOOO    OOOOOOOO      OOOOOOOOOOO    OOOOOOOOOOOOOO              OOOOOOOOOOOOOOOOOOOO              OOOOOOOOOOOOO",
"OOOO    OOOOOOOOOOOOOOOOOOOOOOOOO    OOOOOOOOOOOOOOOOOOOOOOOOOOOOOO              OOOOOOOOOOOOOOOOOOOO              OOOOOOOOOOOOOOOOO    OOOOOOOOOOOOOOOOOOOOOOOOO    OOOOOOOOOOOOOOOOOOOOOOOOOOOOOO              OOOOOOOOOOOOOOOOOOOO              OOOOOOOOOOOOO",
"OOOOOOOOOOOOOOOOOOOOOOOOOOOOOOOOOOOOOOOOOOOOOOOOOOOOOOOOOOOOOOOOOOOOOOOOOOOOOOOOOOOOOOOOOOOOOOOOOOOOOOOOOOOOOOOOOOOOOOOOOOOOOOOOOOOOOOOOOOOOOOOOOOOOOOOOOOOOOOOOOOOOOOOOOOOOOOOOOOOOOOOOOOOOOOOOOOOOOOOOOOOOOOOOOOOOOOOOOOOOOOOOOOOOOOOOOOOOOOOOOOOOOOOOOOOOOOOO",
"OOOOOOOOOOOOOOOOOOOOOOOOOOOOOOOOOOOOOOOOOOOOOOOOOOOOOOOOOOOOOOOOOOOOOOOOOOOOOOOOOOOOOOOOOOOOOOOOOOOOOOOOOOOOOOOOOOOOOOOOOOOOOOOOOOOOOOOOOOOOOOOOOOOOOOOOOOOOOOOOOOOOOOOOOOOOOOOOOOOOOOOOOOOOOOOOOOOOOOOOOOOOOOOOOOOOOOOOOOOOOOOOOOOOOOOOOOOOOOOOOOOOOOOOOOOOOOOO"
};
