/* XPM */
static char *xpm_[] = {
/* columns rows colors chars-per-pixel */
"256 64 5 1 ",
"  c black",
". c #464646",
"X c #FFA3B1",
"o c white",
"O c None",
/* pixels */
"OOOOOOOOOOOOOOOOOOOOOOOOOOOOOOOOOOOOOOOOOOOOOOOOOOOOOOOOOOOOOOOOOOOOOOOOOOOOOOOOOOOOOOOOOOOOOOOOOOOOOOOOOOOOOOOOOOOOOOOOOOOOOOOOOOOOOOOOOOOOOOOOOOOOOOOOOOOOOOOOOOOOOOOOOOOOOOOOOOOOOOOOOOOOOOOOOOOOOOOOOOOOOOOOOOOOOOOOOOOOOOOOOOOOOOOOOOOOOOOOOOOOOOOOOOOOOOOO",
"OOOOOOOOOOOOOOOOOOOOOOOOOOOOOOOOOOOOOOOOOOOOOOOOOOOOOOOOOOOOOOOOOOOOOOOOOOOOOOOOOOOOOOOOOO    OO    OOOOOOOOOOOOOOOOOOOOOOOOOOOOOOOOOOOOOOOOOOOOOOOOOOOOOOOOOOOOOOOOOOOOOOOOOOOOOOOOOOOOOOOOOOOOOOOOOOOOOOOOOOOOOOOOOOOOOO    OO    OOOOOOOOOOOOOOOOOOOOOOOOOOOO",
"OOOOOOOOOOOOOOOOOOOOOOOOOO    OO    OOOOOOOOOOOOOOOOOOOOOOOOOOOOOOOOOOOOOOOOOOOOOOOOOOOOOO    OO    OOOOOOOOOOOOOOOOOOOOOOOOOOOOOOOOOOOOOOOOOOOOOOOOOOOOOO    OO    OOOOOOOOOOOOOOOOOOOOOOOOOOOOOOOOOOOOOOOOOOOOOOOOOOOOOO    OO    OOOOOOOOOOOOOOOOOOOOOOOOOOOO",
"OOOOOOOOOOOOOOOOOOOOOOOOOO    OO    OOOOOOOOOOOOOOOOOOOOOOOOOOOOOOOOOOOOOOOOOOOOOOOOOOOO      OO              OOOOOOOOOOOOOOOOOOOOOOOOOOOOOOOOOOOOOOOOOOOO    OO    OOOOOOOOOOOOOOOOOOOOOOOOOOOOOOOOOOOOOOOOOOOOOOOOOOOO      OO              OOOOOOOOOOOOOOOOOO",
"OOOOOOOOOOOOOOOOOOOOOOOO      OO              OOOOOOOOOOOOOOOOOOOOOOOOOOOOOOOOOOOOOOOOOO      OO              OOOOOOOOOOOOOOOOOOOOOOOOOOOOOOOOOOOOOOOOOO      OO              OOOOOOOOOOOOOOOOOOOOOOOOOOOOOOOOOOOOOOOOOO      OO              OOOOOOOOOOOOOOOOOO",
"OOOOOOOOOOOOOOOOOOOOOOOO      OO              OOOOOOOOOOOOOOOOOOOOOOOOOOOOOOOOOOOOOOOO    oo  OO  oo    oooo  OOOOOOOOOOOOOOOOOOOOOOOOOOOOOOOOOOOOOOOOOO      OO              OOOOOOOOOOOOOOOOOOOOOOOOOOOOOOOOOOOOOOOO    oo  OO  oo    oooo  OOOOOOOOOOOOOOOOOO",
"OOOOOOOOOOOOOOOOOOOOOO    oo  OO  oo    oooo  OOOOOOOOOOOOOOOOOOOOOOOOOOOOOOOOOOOOOOOO    oo  OO  oo    oooo  OOOOOOOOOOOOOOOOOOOOOOOOOOOOOOOOOOOOOOOO    oo  OO  oo    oooo  OOOOOOOOOOOOOOOOOOOOOOOOOOOOOOOOOOOOOOOO    oo  OO  oo    oooo  OOOOOOOOOOOOOOOOOO",
"OOOOOOOOOOOOOOOOOOOOOO    oo  OO  oo    oooo  OOOOOOOOOOOOOOOOOOOOOOOOOOOOOOOOOOOOOOOO  XXoo  OO  ooXX  oooo  OOOOOOOOOOOOOOOOOOOOOOOOOOOOOOOOOOOOOOOO    oo  OO  oo    oooo  OOOOOOOOOOOOOOOOOOOOOOOOOOOOOOOOOOOOOOOO  XXoo  OO  ooXX  oooo  OOOOOOOOOOOOOOOOOO",
"OOOOOOOOOOOOOOOOOOOOOO  XXoo  OO  ooXX  oooo  OOOOOOOOOOOOOOOOOOOOOOOOOOOOOOOOOOOOOOOO  XXoo  OO  ooXX  oooo  OOOOOOOOOOOOOOOOOOOOOOOOOOOOOOOOOOOOOOOO  XXoo  OO  ooXX  oooo  OOOOOOOOOOOOOOOOOOOOOOOOOOOOOOOOOOOOOOOO  XXoo  OO  ooXX  oooo  OOOOOOOOOOOOOOOOOO",
"OOOOOOOOOOOOOOOOOOOOOO  XXoo  OO  ooXX  oooo  OOOOOOOOOOOOOOOOOOOOOOOOOOOOOOOOOOOOOOOO  XXoo      ooXX  oooo  OOOOOOOOOOOOOOOOOOOOOOOOOOOOOOOOOOOOOOOO  XXoo  OO  ooXX  oooo  OOOOOOOOOOOOOOOOOOOOOOOOOOOOOOOOOOOOOOOO  XXoo      ooXX  oooo  OOOOOOOOOOOOOOOOOO",
"OOOOOOOOOOOOOOOOOOOOOO  XXoo      ooXX  oooo  OOOOOOOOOOOOOOOOOOOOOOOOOOOOOOOOOOOOOOOO  XXoo      ooXX  oooo  OOOOOOOOOOOOOOOOOOOOOOOOOOOOOOOOOOOOOOOO  XXoo      ooXX  oooo  OOOOOOOOOOOOOOOOOOOOOOOOOOOOOOOOOOOOOOOO  XXoo      ooXX  oooo  OOOOOOOOOOOOOOOOOO",
"OOOOOOOOOOOOOOOOOOOOOO  XXoo      ooXX  oooo  OOOOOOOOOOOOOOOOOOOOOOOOOOOOOOOOOOOOOO    oooooooooooooo  ....  OOOOOOOOOOOOOOOOOOOOOOOOOOOOOOOOOOOOOOOO  XXoo      ooXX  oooo  OOOOOOOOOOOOOOOOOOOOOOOOOOOOOOOOOOOOOO    oooooooooooooo  ....  OOOOOOOOOOOOOOOOOO",
"OOOOOOOOOOOOOOOOOOOO    oooooooooooooo  ....  OOOOOOOOOOOOOOOOOOOOOOOOOOOOOOOOOOOOOO    oooooooooooooo  ....  OOOOOOOOOOOOOOOOOOOOOOOOOOOOOOOOOOOOOO    oooooooooooooo  ....  OOOOOOOOOOOOOOOOOOOOOOOOOOOOOOOOOOOOOO    oooooooooooooo  ....  OOOOOOOOOOOOOOOOOO",
"OOOOOOOOOOOOOOOOOOOO    oooooooooooooo  ....  OOOOOOOOOOOOOOOOOOOOOOOOOOOOOOOOOOOOOO  oooooooooooooooo  oooo  OOOOOOOOOOOOOOOOOOOOOOOOOOOOOOOOOOOOOO    oooooooooooooo  ....  OOOOOOOOOOOOOOOOOOOOOOOOOOOOOOOOOOOOOO  oooooooooooooooo  oooo  OOOOOOOOOOOOOOOOOO",
"OOOOOOOOOOOOOOOOOOOO  oooooooooooooooo  oooo  OOOOOOOOOOOOOOOOOOOOOOOOOOOOOOOOOOOOOO  oooooooooooooooo  oooo  OOOOOOOOOOOOOOOOOOOOOOOOOOOOOOOOOOOOOO  oooooooooooooooo  oooo  OOOOOOOOOOOOOOOOOOOOOOOOOOOOOOOOOOOOOO  oooooooooooooooo  oooo  OOOOOOOOOOOOOOOOOO",
"OOOOOOOOOOOOOOOOOOOO  oooooooooooooooo  oooo  OOOOOOOOOOOOOOOOOOOOOOOOOOOOOOOOOOOO    oooooooooooooooo  oooo  OOOOOOOOOOOOOOOOOOOOOOOOOOOOOOOOOOOOOO  oooooooooooooooo  oooo  OOOOOOOOOOOOOOOOOOOOOOOOOOOOOOOOOOOO    oooooooooooooooo  oooo  OOOOOOOOOOOOOOOOOO",
"OOOOOOOOOOOOOOOOOO    oooooooooooooooo  oooo  OOOOOOOOOOOOOOOOOOOOOOOOOOOOOOOOOOOO    oooooooooooooooo  oooo  OOOOOOOOOOOOOOOOOOOOOOOOOOOOOOOOOOOO    oooooooooooooooo  oooo  OOOOOOOOOOOOOOOOOOOOOOOOOOOOOOOOOOOO    oooooooooooooooo  oooo  OOOOOOOOOOOOOOOOOO",
"OOOOOOOOOOOOOOOOOO    oooooooooooooooo  oooo  OOOOOOOOOOOOOOOOOOOOOOOOOOOOOOOOOOOO  oooooooooooooooooo  ....  OOOOOOOOOOOOOOOOOOOOOOOOOOOOOOOOOOOO    oooooooooooooooo  oooo  OOOOOOOOOOOOOOOOOOOOOOOOOOOOOOOOOOOO  oooooooooooooooooo  ....  OOOOOOOOOOOOOOOOOO",
"OOOOOOOOOOOOOOOOOO  oooooooooooooooooo  ....  OOOOOOOOOOOOOOOOOOOOOOOOOOOOOOOOOOOO  oooooooooooooooooo  ....  OOOOOOOOOOOOOOOOOOOOOOOOOOOOOOOOOOOO  oooooooooooooooooo  ....  OOOOOOOOOOOOOOOOOOOOOOOOOOOOOOOOOOOO  oooooooooooooooooo  ....  OOOOOOOOOOOOOOOOOO",
"OOOOOOOOOOOOOOOOOO  oooooooooooooooooo  ....  OOOOOOOOOOOOOOOOOOOOOOOOOOOOOOOO      oooooooooooooooooo  oooo  OOOOOOOOOOOOOOOOOOOOOOOOOOOOOOOOOOOO  oooooooooooooooooo  ....  OOOOOOOOOOOOOOOOOOOOOOOOOOOOOOOO      oooooooooooooooooo  oooo  OOOOOOOOOOOOOOOOOO",
"OOOOOOOOOOOOOO      oooooooooooooooooo  oooo  OOOOOOOOOOOOOOOOOOOOOOOOOOOOOOOO      oooooooooooooooooo  oooo  OOOOOOOOOOOOOOOOOOOOOOOOOOOOOOOO      oooooooooooooooooo  oooo  OOOOOOOOOOOOOOOOOOOOOOOOOOOOOOOO      oooooooooooooooooo  oooo  OOOOOOOOOOOOOOOOOO",
"OOOOOOOOOOOOOO      oooooooooooooooooo  oooo  OOOOOOOOOOOOOOOOOOOOOOOOOOOOOOOOOOOO  oooooooo            oooo  OOOOOOOOOOOOOOOOOOOOOOOOOOOOOOOO      oooooooooooooooooo  oooo  OOOOOOOOOOOOOOOOOOOOOOOOOOOOOOOOOOOO  oooooooo            oooo  OOOOOOOOOOOOOOOOOO",
"OOOOOOOOOOOOOOOOOO  oooooooo            oooo  OOOOOOOOOOOOOOOOOOOOOOOOOOOOOOOOOOOO  oooooooo            oooo  OOOOOOOOOOOOOOOOOOOOOOOOOOOOOOOOOOOO  oooooooo            oooo  OOOOOOOOOOOOOOOOOOOOOOOOOOOOOOOOOOOO  oooooooo            oooo  OOOOOOOOOOOOOOOOOO",
"OOOOOOOOOOOOOOOOOO  oooooooo            oooo  OOOOOOOOOOOOOOOOOOOOOOOOOOOOOOOOOO      oooooo  oooooooooooooo    OOOOOOOOOOOOOOOOOOOOOOOOOOOOOOOOOO  oooooooo            oooo  OOOOOOOOOOOOOOOOOOOOOOOOOOOOOOOOOO      oooooo  oooooooooooooo    OOOOOOOOOOOOOOOO",
"OOOOOOOOOOOOOOOO      oooooo  oooooooooooooo    OOOOOOOOOOOOOOOOOOOOOOOOOOOOOOOO      oooooo  oooooooooooooo    OOOOOOOOOOOOOOOOOOOOOOOOOOOOOOOO      oooooo  oooooooooooooo    OOOOOOOOOOOOOOOOOOOOOOOOOOOOOOOO      oooooo  oooooooooooooo    OOOOOOOOOOOOOOOO",
"OOOOOOOOOOOOOOOO      oooooo  oooooooooooooo    OOOOOOOOOOOOOOOOOOOOOOOOOOOOOOOOOOOO    oooo  oooooooooooooo  OOOOOOOOOOOOOOOOOOOOOOOOOOOOOOOOOO      oooooo  oooooooooooooo    OOOOOOOOOOOOOOOOOOOOOOOOOOOOOOOOOOOO    oooo  oooooooooooooo  OOOOOOOOOOOOOOOOOO",
"OOOOOOOOOOOOOOOOOOOO    oooo  oooooooooooooo  OOOOOOOOOOOOOOOOOOOOOOOOOOOOOOOOOOOOOO    oooo  oooooooooooooo  OOOOOOOOOOOOOOOOOOOOOOOOOOOOOOOOOOOOOO    oooo  oooooooooooooo  OOOOOOOOOOOOOOOOOOOOOOOOOOOOOOOOOOOOOO    oooo  oooooooooooooo  OOOOOOOOOOOOOOOOOO",
"OOOOOOOOOOOOOOOOOOOO    oooo  oooooooooooooo  OOOOOOOOOOOOOOOOOOOOOOOOOOOOOOOOOOOOOOOO  oooo  oooo            OOOOOOOOOOOOOOOOOOOOOOOOOOOOOOOOOOOOOO    oooo  oooooooooooooo  OOOOOOOOOOOOOOOOOOOOOOOOOOOOOOOOOOOOOOOO  oooo  oooo            OOOOOOOOOOOOOOOOOO",
"OOOOOOOOOOOOOOOOOOOOOO  oooo  oooo            OOOOOOOOOOOOOOOOOOOOOOOOOOOOOOOOOOOOOOOO  oooo  oooo            OOOOOOOOOOOOOOOOOOOOOOOOOOOOOOOOOOOOOOOO  oooo  oooo            OOOOOOOOOOOOOOOOOOOOOOOOOOOOOOOOOOOOOOOO  oooo  oooo            OOOOOOOOOOOOOOOOOO",
"OOOOOOOOOOOOOOOOOOOOOO  oooo  oooo            OOOOOOOOOOOOOOOOOOOOOOOOOOOOOOOOOOOO    oooooo  oooo  oooo      OOOOOOOOOOOOOOOOOOOOOOOOOOOOOOOOOOOOOOOO  oooo  oooo            OOOOOOOOOOOOOOOOOOOOOOOOOOOOOOOOOOOO    oooooo  oooo  oooo      OOOOOOOOOOOOOOOOOO",
"OOOOOOOOOOOOOOOOOO    oooooo  oooo  oooo      OOOOOOOOOOOOOOOOOOOOOOOOOOOOOOOOOOOO    oooooo  oooo  oooo      OOOOOOOOOOOOOOOOOOOOOOOOOOOOOOOOOOOO    oooooo  oooo  oooo      OOOOOOOOOOOOOOOOOOOOOOOOOOOOOOOOOOOO    oooooo  oooo  oooo      OOOOOOOOOOOOOOOOOO",
"OOOOOOOOOOOOOOOOOO    oooooo  oooo  oooo      OOOOOOOOOOOOOOOOOOOOOOOOOOOOOOOOOOOO  oooooooo  oooo  oooooo    OOOOOOOOOOOOOOOOOOOOOOOOOOOOOOOOOOOO    oooooo  oooo  oooo      OOOOOOOOOOOOOOOOOOOOOOOOOOOOOOOOOOOO  oooooooo  oooo  oooooo    OOOOOOOOOOOOOOOOOO",
"OOOOOOOOOOOOOOOOOO  oooooooo  oooo  oooooo    OOOOOOOOOOOOOOOOOOOOOOOOOOOOOOOOOOOO  oooooooo  oooo  oooooo    OOOOOOOOOOOOOOOOOOOOOOOOOOOOOOOOOOOO  oooooooo  oooo  oooooo    OOOOOOOOOOOOOOOOOOOOOOOOOOOOOOOOOOOO  oooooooo  oooo  oooooo    OOOOOOOOOOOOOOOOOO",
"OOOOOOOOOOOOOOOOOO  oooooooo  oooo  oooooo    OOOOOOOOOOOOOOOOOOOOOOOOOOOOOOOOOO  oooooooooo  oooo  oooooooo  OOOOOOOOOOOOOOOOOOOOOOOOOOOOOOOOOOOO  oooooooo  oooo  oooooo    OOOOOOOOOOOOOOOOOOOOOOOOOOOOOOOOOO  oooooooooo  oooo  oooooooo  OOOOOOOOOOOOOOOOOO",
"OOOOOOOOOOOOOOOO  oooooooooo  oooo  oooooooo  OOOOOOOOOOOOOOOOOOOOOOOOOOOOOOOOOO  oooooooooo  oooo  oooooooo  OOOOOOOOOOOOOOOOOOOOOOOOOOOOOOOOOO  oooooooooo  oooo  oooooooo  OOOOOOOOOOOOOOOOOOOOOOOOOOOOOOOOOO  oooooooooo  oooo  oooooooo  OOOOOOOOOOOOOOOOOO",
"OOOOOOOOOOOOOOOO  oooooooooo  oooo  oooooooo  OOOOOOOOOOOOOOOOOOOOOOOOOOOOOOOOOO  ....oooooooooooooooooooooo  OOOOOOOOOOOOOOOOOOOOOOOOOOOOOOOOOO  oooooooooo  oooo  oooooooo  OOOOOOOOOOOOOOOOOOOOOOOOOOOOOOOOOO  ....oooooooooooooooooooooo  OOOOOOOOOOOOOOOOOO",
"OOOOOOOOOOOOOOOO  ....oooooooooooooooooooooo  OOOOOOOOOOOOOOOOOOOOOOOOOOOOOOOOOO  ....oooooooooooooooooo....  OOOOOOOOOOOOOOOOOOOOOOOOOOOOOOOOOO  ....oooooooooooooooooooooo  OOOOOOOOOOOOOOOOOOOOOOOOOOOOOOOOOO  ....oooooooooooooooooo....  OOOOOOOOOOOOOOOOOO",
"OOOOOOOOOOOOOOOO  ....oooooooooooooooooo....  OOOOOOOOOOOOOOOOOOOOOOOOOOOOOOOOOO  ....oooooo  oo  oooooo....  OOOOOOOOOOOOOOOOOOOOOOOOOOOOOOOOOO  ....oooooooooooooooooo....  OOOOOOOOOOOOOOOOOOOOOOOOOOOOOOOOOO  ....oooooo  oo  oooooo....  OOOOOOOOOOOOOOOOOO",
"OOOOOOOOOOOOOOOO  ....oooooo  oo  oooooo....  OOOOOOOOOOOOOOOOOOOOOOOOOOOOOOOOOO  ....oooooo  oo  oooooo....  OOOOOOOOOOOOOOOOOOOOOOOOOOOOOOOOOO  ....oooooo  oo  oooooo....  OOOOOOOOOOOOOOOOOOOOOOOOOOOOOOOOOO  ....oooooo  oo  oooooo....  OOOOOOOOOOOOOOOOOO",
"OOOOOOOOOOOOOOOO  ....oooooo  oo  oooooo....  OOOOOOOOOOOOOOOOOOOOOOOOOOOOOOOOOO  oooooooooooo  oooooooooooo  OOOOOOOOOOOOOOOOOOOOOOOOOOOOOOOOOO  ....oooooo  oo  oooooo....  OOOOOOOOOOOOOOOOOOOOOOOOOOOOOOOOOO  oooooooooooo  oooooooooooo  OOOOOOOOOOOOOOOOOO",
"OOOOOOOOOOOOOOOO  oooooooooooo  oooooooooooo  OOOOOOOOOOOOOOOOOOOOOOOOOOOOOOOOOO  oooooooooooo  oooooooooooo  OOOOOOOOOOOOOOOOOOOOOOOOOOOOOOOOOO  oooooooooooo  oooooooooooo  OOOOOOOOOOOOOOOOOOOOOOOOOOOOOOOOOO  oooooooooooo  oooooooooooo  OOOOOOOOOOOOOOOOOO",
"OOOOOOOOOOOOOOOO  oooooooooooo  oooooooooooo  OOOOOOOOOOOOOOOOOOOOOOOOOOOOOOOOOO  ....oooooo  oo  oooooo....  OOOOOOOOOOOOOOOOOOOOOOOOOOOOOOOOOO  oooooooooooo  oooooooooooo  OOOOOOOOOOOOOOOOOOOOOOOOOOOOOOOOOO  ....oooooo  oo  oooooo....  OOOOOOOOOOOOOOOOOO",
"OOOOOOOOOOOOOOOO  ....oooooo  oo  oooooo....  OOOOOOOOOOOOOOOOOOOOOOOOOOOOOOOOOO  ....oooooo  oo  oooooo....  OOOOOOOOOOOOOOOOOOOOOOOOOOOOOOOOOO  ....oooooo  oo  oooooo....  OOOOOOOOOOOOOOOOOOOOOOOOOOOOOOOOOO  ....oooooo  oo  oooooo....  OOOOOOOOOOOOOOOOOO",
"OOOOOOOOOOOOOOOO  ....oooooo  oo  oooooo....  OOOOOOOOOOOOOOOOOOOOOOOOOOOOOOOOOO  ....oooooooooooooooooo....  OOOOOOOOOOOOOOOOOOOOOOOOOOOOOOOOOO  ....oooooo  oo  oooooo....  OOOOOOOOOOOOOOOOOOOOOOOOOOOOOOOOOO  ....oooooooooooooooooo....  OOOOOOOOOOOOOOOOOO",
"OOOOOOOOOOOOOOOO  ....oooooooooooooooooo....  OOOOOOOOOOOOOOOOOOOOOOOOOOOOOOOOOO  ....oooooooooooooooooo....  OOOOOOOOOOOOOOOOOOOOOOOOOOOOOOOOOO  ....oooooooooooooooooo....  OOOOOOOOOOOOOOOOOOOOOOOOOOOOOOOOOO  ....oooooooooooooooooo....  OOOOOOOOOOOOOOOOOO",
"OOOOOOOOOOOOOOOO  ....oooooooooooooooooo....  OOOOOOOOOOOOOOOOOOOOOOOOOOOOOOOOOO  oooooooooooooooooooooooooo  OOOOOOOOOOOOOOOOOOOOOOOOOOOOOOOOOO  ....oooooooooooooooooo....  OOOOOOOOOOOOOOOOOOOOOOOOOOOOOOOOOO  oooooooooooooooooooooooooo  OOOOOOOOOOOOOOOOOO",
"OOOOOOOOOOOOOOOO  oooooooooooooooooooooooooo  OOOOOOOOOOOOOOOOOOOOOOOOOOOOOOOOOO  oooooooooooooooooooooooooo  OOOOOOOOOOOOOOOOOOOOOOOOOOOOOOOOOO  oooooooooooooooooooooooooo  OOOOOOOOOOOOOOOOOOOOOOOOOOOOOOOOOO  oooooooooooooooooooooooooo  OOOOOOOOOOOOOOOOOO",
"OOOOOOOOOOOOOOOO  oooooooooooooooooooooooooo  OOOOOOOOOOOOOOOOOOOOOOOOOOOOOOOOOO  oooooooooooooooooooooooooo  OOOOOOOOOOOOOOOOOOOOOOOOOOOOOOOOOO  oooooooooooooooooooooooooo  OOOOOOOOOOOOOOOOOOOOOOOOOOOOOOOOOO  oooooooooooooooooooooooooo  OOOOOOOOOOOOOOOOOO",
"OOOOOOOOOOOOOOOO  oooooooooooooooooooooooooo  OOOOOOOOOOOOOOOOOOOOOOOOOOOOOOOOOO  oooooooooooooooooooooooooo  OOOOOOOOOOOOOOOOOOOOOOOOOOOOOOOOOO  oooooooooooooooooooooooooo  OOOOOOOOOOOOOOOOOOOOOOOOOOOOOOOOOO  oooooooooooooooooooooooooo  OOOOOOOOOOOOOOOOOO",
"OOOOOOOOOOOOOOOO  oooooooooooooooooooooooooo  OOOOOOOOOOOOOOOOOOOOOOOOOOOOOOOOOO  oooooooooooooooooooooooooo  OOOOOOOOOOOOOOOOOOOOOOOOOOOOOOOOOO  oooooooooooooooooooooooooo  OOOOOOOOOOOOOOOOOOOOOOOOOOOOOOOOOO  oooooooooooooooooooooooooo  OOOOOOOOOOOOOOOOOO",
"OOOOOOOOOOOOOOOO  oooooooooooooooooooooooooo  OOOOOOOOOOOOOOOOOOOOOOOOOOOOOOOOOO  oooooooooooooooooooooooooo  OOOOOOOOOOOOOOOOOOOOOOOOOOOOOOOOOO  oooooooooooooooooooooooooo  OOOOOOOOOOOOOOOOOOOOOOOOOOOOOOOOOO  oooooooooooooooooooooooooo  OOOOOOOOOOOOOOOOOO",
"OOOOOOOOOOOOOOOO  oooooooooooooooooooooooooo  OOOOOOOOOOOOOOOOOOOOOOOOOOOOOOOOOO    oooooo          oooooo    OOOOOOOOOOOOOOOOOOOOOOOOOOOOOOOOOO  oooooooooooooooooooooooooo  OOOOOOOOOOOOOOOOOOOOOOOOOOOOOOOOOO    oooooo          oooooo    OOOOOOOOOOOOOOOOOO",
"OOOOOOOOOOOOOOOO    oooooo          oooooo    OOOOOOOOOOOOOOOOOOOOOOOOOOOOOOOOOO    oooooo          oooooo    OOOOOOOOOOOOOOOOOOOOOOOOOOOOOOOOOO    oooooo          oooooo    OOOOOOOOOOOOOOOOOOOOOOOOOOOOOOOOOO    oooooo          oooooo    OOOOOOOOOOOOOOOOOO",
"OOOOOOOOOOOOOOOO    oooooo          oooooo    OOOOOOOOOOOOOOOOOOOOOOOOOOOOOOOOOOOO  oooooo  OOOOOO  oooooo  OOOOOOOOOOOOOOOOOOOOOOOOOOOOOOOOOOOO    oooooo          oooooo    OOOOOOOOOOOOOOOOOOOOOOOOOOOOOOOOOOOO  oooooo  OOOOOO  oooooo  OOOOOOOOOOOOOOOOOOOO",
"OOOOOOOOOOOOOOOOOO  oooooo  OOOOOO  oooooo  OOOOOOOOOOOOOOOOOOOOOOOOOOOOOOOOOOOOOO  oooooo  OOOOOO  oooooo  OOOOOOOOOOOOOOOOOOOOOOOOOOOOOOOOOOOOOO  oooooo  OOOOOO  oooooo  OOOOOOOOOOOOOOOOOOOOOOOOOOOOOOOOOOOOOO  oooooo  OOOOOO  oooooo  OOOOOOOOOOOOOOOOOOOO",
"OOOOOOOOOOOOOOOOOO  oooooo  OOOOOO  oooooo  OOOOOOOOOOOOOOOOOOOOOOOOOOOOOOOOOOOOOO  oooooo  OOOOOO  oooooo  OOOOOOOOOOOOOOOOOOOOOOOOOOOOOOOOOOOOOO  oooooo  OOOOOO  oooooo  OOOOOOOOOOOOOOOOOOOOOOOOOOOOOOOOOOOOOO  oooooo  OOOOOO  oooooo  OOOOOOOOOOOOOOOOOOOO",
"OOOOOOOOOOOOOOOOOO  oooooo  OOOOOO  oooooo  OOOOOOOOOOOOOOOOOOOOOOOOOOOOOOOOOOOOOO  oooooo  OOOOOO  oooooo  OOOOOOOOOOOOOOOOOOOOOOOOOOOOOOOOOOOOOO  oooooo  OOOOOO  oooooo  OOOOOOOOOOOOOOOOOOOOOOOOOOOOOOOOOOOOOO  oooooo  OOOOOO  oooooo  OOOOOOOOOOOOOOOOOOOO",
"OOOOOOOOOOOOOOOOOO  oooooo  OOOOOO  oooooo  OOOOOOOOOOOOOOOOOOOOOOOOOOOOOOOOOOOOOO  oooooo  OOOOOO  oooooo  OOOOOOOOOOOOOOOOOOOOOOOOOOOOOOOOOOOOOO  oooooo  OOOOOO  oooooo  OOOOOOOOOOOOOOOOOOOOOOOOOOOOOOOOOOOOOO  oooooo  OOOOOO  oooooo  OOOOOOOOOOOOOOOOOOOO",
"OOOOOOOOOOOOOOOOOO  oooooo  OOOOOO  oooooo  OOOOOOOOOOOOOOOOOOOOOOOOOOOOOOOOOOOOOO  oooooo  OOOOOO  oooooo  OOOOOOOOOOOOOOOOOOOOOOOOOOOOOOOOOOOOOO  oooooo  OOOOOO  oooooo  OOOOOOOOOOOOOOOOOOOOOOOOOOOOOOOOOOOOOO  oooooo  OOOOOO  oooooo  OOOOOOOOOOOOOOOOOOOO",
"OOOOOOOOOOOOOOOOOO          OOOOOO  oooooo  OOOOOOOOOOOOOOOOOOOOOOOOOOOOOOOOOOOOOO  oooooo  OOOOOO  oooooo  OOOOOOOOOOOOOOOOOOOOOOOOOOOOOOOOOOOOOO  oooooo  OOOOOO          OOOOOOOOOOOOOOOOOOOOOOOOOOOOOOOOOOOOOO  oooooo  OOOOOO  oooooo  OOOOOOOOOOOOOOOOOOOO",
"OOOOOOOOOOOOOOOOOO          OOOOOO          OOOOOOOOOOOOOOOOOOOOOOOOOOOOOOOOOOOOOO          OOOOOO          OOOOOOOOOOOOOOOOOOOOOOOOOOOOOOOOOOOOOO          OOOOOO          OOOOOOOOOOOOOOOOOOOOOOOOOOOOOOOOOOOOOO          OOOOOO          OOOOOOOOOOOOOOOOOOOO",
"OOOOOOOOOOOOOOOOOOOOOOOOOOOOOOOOOO          OOOOOOOOOOOOOOOOOOOOOOOOOOOOOOOOOOOOOO          OOOOOO          OOOOOOOOOOOOOOOOOOOOOOOOOOOOOOOOOOOOOO          OOOOOOOOOOOOOOOOOOOOOOOOOOOOOOOOOOOOOOOOOOOOOOOOOOOOOO          OOOOOO          OOOOOOOOOOOOOOOOOOOO",
"OOOOOOOOOOOOOOOOOOOOOOOOOOOOOOOOOOOOOOOOOOOOOOOOOOOOOOOOOOOOOOOOOOOOOOOOOOOOOOOOOOOOOOOOOOOOOOOOOOOOOOOOOOOOOOOOOOOOOOOOOOOOOOOOOOOOOOOOOOOOOOOOOOOOOOOOOOOOOOOOOOOOOOOOOOOOOOOOOOOOOOOOOOOOOOOOOOOOOOOOOOOOOOOOOOOOOOOOOOOOOOOOOOOOOOOOOOOOOOOOOOOOOOOOOOOOOOOO",
"OOOOOOOOOOOOOOOOOOOOOOOOOOOOOOOOOOOOOOOOOOOOOOOOOOOOOOOOOOOOOOOOOOOOOOOOOOOOOOOOOOOOOOOOOOOOOOOOOOOOOOOOOOOOOOOOOOOOOOOOOOOOOOOOOOOOOOOOOOOOOOOOOOOOOOOOOOOOOOOOOOOOOOOOOOOOOOOOOOOOOOOOOOOOOOOOOOOOOOOOOOOOOOOOOOOOOOOOOOOOOOOOOOOOOOOOOOOOOOOOOOOOOOOOOOOOOOOO"
};
