/* XPM */
static char *xpm_[] = {
/* columns rows colors chars-per-pixel */
"64 64 5 1 ",
"  c black",
". c #F09743",
"X c #FFA3B1",
"o c white",
"O c None",
/* pixels */
"OOOOOOOOOOOOOOOOOOOOOOOOOOOOOOOOOOOOOOOOOOOOOOOOOOOOOOOOOOOOOOOO",
"OOOOOOOOOOOOOOOOOOOOOOOOOOOOOOOOOOOOOOOOOOOOOOOOOOOOOOOOOOOOOOOO",
"OOOOOOOOOOOOOOOOOOOOOOOOOOOOOOOOOOOOOOOOO          OOOOOOOOOOOOO",
"OOOOOOOOOOOOOOOOOOOOOOOOOOOOOOOOOOOOOOOOO          OOOOOOOOOOOOO",
"OOO          OOOOOOOOOOOOOOOOOOOOOOOOOO    ..        OOOOOOOOOOO",
"OOO          OOOOOOOOOOOOOOOOOOOOOOOOOO    ..        OOOOOOOOOOO",
"OOO  oooooo  OOOOOOOOOOOOOOOOOOOOOOOO    XX..    ..  OOOOOOOOOOO",
"OOO  oooooo  OOOOOOOOOOOOOOOOOOOOOOOO    XX..    ..  OOOOOOOOOOO",
"OOO  oooooo  OOOOOOOOOOOOOOOOOOOOOOOO  XXXX..    ..  OOOOOOOOOOO",
"OOO  ......  OOOOOOOOOOOOOOOOOOOOOOOO  XXXX..    ..  OOOOOOOOOOO",
"OOO  ......  OOOOOOOOOOOOOOOOOOOOOOOO  XXXX..          OOOOOOOOO",
"OOO  ......  OOOOOOOOOOOOOOOOOOOOOOOO  XXXX..          OOOOOOOOO",
"OOO  ......  OOOOOOOOOOOOOOOOOOOOOO    ..............    OOOOOOO",
"OOO  ......  OOOOOOOOOOOOOOOOOOOOOO    ..............    OOOOOOO",
"OOO  ......  OOOOOOOOOOOOOOOOOOOOOO  ..................  OOOOOOO",
"OOO  ......  OOOOOOOOOOOOOOOOOOOOOO  ..................  OOOOOOO",
"OOO  ......  OOOOOOOOOOOOOOOOOOOO    ....................  OOOOO",
"OOO  ......  OOOOOOOOOOOOOOOOOOOO    ....................  OOOOO",
"OOO  ......  OOOOOOOOOOOOOOOOOOOO  ..........  ......  ..  OOOOO",
"OOO  ......  OOOOOOOOOOOOOOOOOOOO  ..........  ......  ..  OOOOO",
"OOO  ......  OOOOOOOOOOOOOOOOOOOO          ......  ......    OOO",
"OOO  ......  OOOOOOOOOOOOOOOOOOOO          ......  ......    OOO",
"OOO  ......  OOOOOOOOOOOOOOOOOOOO  oooooooo....  ..  ..oo  OOOOO",
"OOO  ......  OOOOOOOOOOOOOOOOOOOO  oooooooo....  ..  ..oo  OOOOO",
"OOO  ......                        ..      ............      OOO",
"OOO  ......                        ..      ............      OOO",
"OOO  ................................................    OOOOOOO",
"OOO  ................................................    OOOOOOO",
"OOO  ..........................................        OOOOOOOOO",
"OOO  ..........................................        OOOOOOOOO",
"OOO  ............................................  OOOOOOOOOOOOO",
"OOO  ............................................  OOOOOOOOOOOOO",
"OOO  ............................................  OOOOOOOOOOOOO",
"OOO  ............................................  OOOOOOOOOOOOO",
"OOO  ............................................  OOOOOOOOOOOOO",
"OOO  ............................................  OOOOOOOOOOOOO",
"OOO  ............................................  OOOOOOOOOOOOO",
"OOO  ............................................  OOOOOOOOOOOOO",
"OOO  ............................................  OOOOOOOOOOOOO",
"OOO  ............................................  OOOOOOOOOOOOO",
"OOO  ............................................  OOOOOOOOOOOOO",
"OOO  ............................................  OOOOOOOOOOOOO",
"OOO  ............................................  OOOOOOOOOOOOO",
"OOO  ............................................  OOOOOOOOOOOOO",
"OOO  ............................................  OOOOOOOOOOOOO",
"OOO  ............................................  OOOOOOOOOOOOO",
"OOO  ............................................  OOOOOOOOOOOOO",
"OOO  ............................................  OOOOOOOOOOOOO",
"OOO  ............................................  OOOOOOOOOOOOO",
"OOO  ............................................  OOOOOOOOOOOOO",
"OOO  ............................................   OOOOOOOOOOOO",
"OOO     ..........................................   OOOOOOOOOOO",
"OOO    ............................................   OOOOOOOOOO",
"OOO   ......    .......            .......   .......   OOOOOOOOO",
"OO   ......      .......          .......     .......   OOOOOOOO",
"O   .......   O   .....oo  OOO   o......   O   .....oo  OOOOOOOO",
"O  oo.....   OOO   ...ooo  OOO  ooo....   OOO   ...ooo  OOOOOOOO",
"O  ooo...   OOOOO   .ooo   OOO  oooo..   OOOOO   .ooo   OOOOOOOO",
"O   ooo.   OOOOOOO   oo   OOOO   oooo   OOOOOOO   oo   OOOOOOOOO",
"OO   oo   OOOOOOOOO      OOOOOO   oo   OOOOOOOOO      OOOOOOOOOO",
"OOO      OOOOOOOOOOO    OOOOOOOO      OOOOOOOOOOO    OOOOOOOOOOO",
"OOOO    OOOOOOOOOOOOOOOOOOOOOOOOO    OOOOOOOOOOOOOOOOOOOOOOOOOOO",
"OOOOOOOOOOOOOOOOOOOOOOOOOOOOOOOOOOOOOOOOOOOOOOOOOOOOOOOOOOOOOOOO",
"OOOOOOOOOOOOOOOOOOOOOOOOOOOOOOOOOOOOOOOOOOOOOOOOOOOOOOOOOOOOOOOO"
};
