/* XPM */
static char *xpm_[] = {
/* columns rows colors chars-per-pixel */
"64 64 5 1 ",
"  c black",
". c #F09743",
"X c #FFA3B1",
"o c white",
"O c #569969",
/* pixels */
"OOOOOOOOOOOOOOOOOOOOOOOOOOOOOOOOOOOOOOOOOOOOOOOOOOOOOOOOOOOOOOOO",
"OOOOOOOOOOOOOOOOOOOOOOOOOOOOOOOOOOOOOOOOOOOOOOOOOOOOOOOOOOOOOOOO",
"OOOOOOOOOOOOOOOOOOOOOOOOOO    OO    OOOOOOOOOOOOOOOOOOOOOOOOOOOO",
"OOOOOOOOOOOOOOOOOOOOOOOOOO    OO    OOOOOOOOOOOOOOOOOOOOOOOOOOOO",
"OOOOOOOOOOOOOOOOOOOOOOOO      OO              OOOOOOOOOOOOOOOOOO",
"OOOOOOOOOOOOOOOOOOOOOOOO      OO              OOOOOOOOOOOOOOOOOO",
"OOOOOOOOOOOOOOOOOOOOOO    ..  OO  ..    oooo  OOOOOOOOOOOOOOOOOO",
"OOOOOOOOOOOOOOOOOOOOOO    ..  OO  ..    oooo  OOOOOOOOOOOOOOOOOO",
"OOOOOOOOOOOOOOOOOOOOOO  XX..  OO  ..XX  oooo  OOOOOOOOOOOOOOOOOO",
"OOOOOOOOOOOOOOOOOOOOOO  XX..  OO  ..XX  oooo  OOOOOOOOOOOOOOOOOO",
"OOOOOOOOOOOOOOOOOOOOOO  XX..      ..XX  ....  OOOOOOOOOOOOOOOOOO",
"OOOOOOOOOOOOOOOOOOOOOO  XX..      ..XX  ....  OOOOOOOOOOOOOOOOOO",
"OOOOOOOOOOOOOOOOOOOO    ..............  ....  OOOOOOOOOOOOOOOOOO",
"OOOOOOOOOOOOOOOOOOOO    ..............  ....  OOOOOOOOOOOOOOOOOO",
"OOOOOOOOOOOOOOOOOOOO  ................  ....  OOOOOOOOOOOOOOOOOO",
"OOOOOOOOOOOOOOOOOOOO  ................  ....  OOOOOOOOOOOOOOOOOO",
"OOOOOOOOOOOOOOOOOO    ................  ....  OOOOOOOOOOOOOOOOOO",
"OOOOOOOOOOOOOOOOOO    ................  ....  OOOOOOOOOOOOOOOOOO",
"OOOOOOOOOOOOOOOOOO  ..................  ....  OOOOOOOOOOOOOOOOOO",
"OOOOOOOOOOOOOOOOOO  ..................  ....  OOOOOOOOOOOOOOOOOO",
"OOOOOOOOOOOOOO      ..................  ....  OOOOOOOOOOOOOOOOOO",
"OOOOOOOOOOOOOO      ..................  ....  OOOOOOOOOOOOOOOOOO",
"OOOOOOOOOOOOOOOOOO  ........            ....  OOOOOOOOOOOOOOOOOO",
"OOOOOOOOOOOOOOOOOO  ........            ....  OOOOOOOOOOOOOOOOOO",
"OOOOOOOOOOOOOOOO      ......  ..............    OOOOOOOOOOOOOOOO",
"OOOOOOOOOOOOOOOO      ......  ..............    OOOOOOOOOOOOOOOO",
"OOOOOOOOOOOOOOOOOOOO    ....  ..............  OOOOOOOOOOOOOOOOOO",
"OOOOOOOOOOOOOOOOOOOO    ....  ..............  OOOOOOOOOOOOOOOOOO",
"OOOOOOOOOOOOOOOOOOOOOO  ....  ....            OOOOOOOOOOOOOOOOOO",
"OOOOOOOOOOOOOOOOOOOOOO  ....  ....            OOOOOOOOOOOOOOOOOO",
"OOOOOOOOOOOOOOOOOO    ......  ....  ....      OOOOOOOOOOOOOOOOOO",
"OOOOOOOOOOOOOOOOOO    ......  ....  ....      OOOOOOOOOOOOOOOOOO",
"OOOOOOOOOOOOOOOOOO  ........  ....  ......    OOOOOOOOOOOOOOOOOO",
"OOOOOOOOOOOOOOOOOO  ........  ....  ......    OOOOOOOOOOOOOOOOOO",
"OOOOOOOOOOOOOOOO  ..........  ....  ........  OOOOOOOOOOOOOOOOOO",
"OOOOOOOOOOOOOOOO  ..........  ....  ........  OOOOOOOOOOOOOOOOOO",
"OOOOOOOOOOOOOOOO  ..........................  OOOOOOOOOOOOOOOOOO",
"OOOOOOOOOOOOOOOO  ..........................  OOOOOOOOOOOOOOOOOO",
"OOOOOOOOOOOOOOOO  ..........  ..  ..........  OOOOOOOOOOOOOOOOOO",
"OOOOOOOOOOOOOOOO  ..........  ..  ..........  OOOOOOOOOOOOOOOOOO",
"OOOOOOOOOOOOOOOO  ............  ............  OOOOOOOOOOOOOOOOOO",
"OOOOOOOOOOOOOOOO  ............  ............  OOOOOOOOOOOOOOOOOO",
"OOOOOOOOOOOOOOOO  ..........  ..  ..........  OOOOOOOOOOOOOOOOOO",
"OOOOOOOOOOOOOOOO  ..........  ..  ..........  OOOOOOOOOOOOOOOOOO",
"OOOOOOOOOOOOOOOO  ..........................  OOOOOOOOOOOOOOOOOO",
"OOOOOOOOOOOOOOOO  ..........................  OOOOOOOOOOOOOOOOOO",
"OOOOOOOOOOOOOOOO  ..........................  OOOOOOOOOOOOOOOOOO",
"OOOOOOOOOOOOOOOO  ..........................  OOOOOOOOOOOOOOOOOO",
"OOOOOOOOOOOOOOOO  ..........................  OOOOOOOOOOOOOOOOOO",
"OOOOOOOOOOOOOOOO  ..........................  OOOOOOOOOOOOOOOOOO",
"OOOOOOOOOOOOOOOO  ..........................  OOOOOOOOOOOOOOOOOO",
"OOOOOOOOOOOOOOOO  ..........................  OOOOOOOOOOOOOOOOOO",
"OOOOOOOOOOOOOOOO    ......          ......    OOOOOOOOOOOOOOOOOO",
"OOOOOOOOOOOOOOOO    ......          ......    OOOOOOOOOOOOOOOOOO",
"OOOOOOOOOOOOOOOOOO  ......  OOOOOO  ......  OOOOOOOOOOOOOOOOOOOO",
"OOOOOOOOOOOOOOOOOO  ......  OOOOOO  ......  OOOOOOOOOOOOOOOOOOOO",
"OOOOOOOOOOOOOOOOOO  ......  OOOOOO  ......  OOOOOOOOOOOOOOOOOOOO",
"OOOOOOOOOOOOOOOOOO  oooooo  OOOOOO  oooooo  OOOOOOOOOOOOOOOOOOOO",
"OOOOOOOOOOOOOOOOOO  oooooo  OOOOOO  oooooo  OOOOOOOOOOOOOOOOOOOO",
"OOOOOOOOOOOOOOOOOO          OOOOOO  oooooo  OOOOOOOOOOOOOOOOOOOO",
"OOOOOOOOOOOOOOOOOO          OOOOOO          OOOOOOOOOOOOOOOOOOOO",
"OOOOOOOOOOOOOOOOOOOOOOOOOOOOOOOOOO          OOOOOOOOOOOOOOOOOOOO",
"OOOOOOOOOOOOOOOOOOOOOOOOOOOOOOOOOOOOOOOOOOOOOOOOOOOOOOOOOOOOOOOO",
"OOOOOOOOOOOOOOOOOOOOOOOOOOOOOOOOOOOOOOOOOOOOOOOOOOOOOOOOOOOOOOOO"
};
