/* XPM */
static char *xpm_[] = {
/* columns rows colors chars-per-pixel */
"64 64 5 1 ",
"  c black",
". c #464646",
"X c #FFA3B1",
"o c white",
"O c None",
/* pixels */
"OOOOOOOOOOOOOOOOOOOOOOOOOOOOOOOOOOOOOOOOOOOOOOOOOOOOOOOOOOOOOOOO",
"OOOOOOOOOOOOOOOOOOOOOOOOOOOOOOOOOOOOOOOOOOOOOOOOOOOOOOOOOOOOOOOO",
"OOOOOOOOOOOOO          OOOOOOOOOOOOOOOOOOOOOOOOOOOOOOOOOOOOOOOOO",
"OOOOOOOOOOOOO          OOOOOOOOOOOOOOOOOOOOOOOOOOOOOOOOOOOOOOOOO",
"OOOOOOOOOOO        oo    OOOOOOOOOOOOOOOOOOOOOOOOOO          OOO",
"OOOOOOOOOOO        oo    OOOOOOOOOOOOOOOOOOOOOOOOOO          OOO",
"OOOOOOOOOOO  oo    ooXX    OOOOOOOOOOOOOOOOOOOOOOOO  oooooo  OOO",
"OOOOOOOOOOO  oo    ooXX    OOOOOOOOOOOOOOOOOOOOOOOO  oooooo  OOO",
"OOOOOOOOOOO  oo    ooXXXX  OOOOOOOOOOOOOOOOOOOOOOOO  oooooo  OOO",
"OOOOOOOOOOO  oo    ooXXXX  OOOOOOOOOOOOOOOOOOOOOOOO  oooooo  OOO",
"OOOOOOOOO          ooXXXX  OOOOOOOOOOOOOOOOOOOOOOOO  oooooo  OOO",
"OOOOOOOOO          ooXXXX  OOOOOOOOOOOOOOOOOOOOOOOO  oooooo  OOO",
"OOOOOOO    oooooooooooooo    OOOOOOOOOOOOOOOOOOOOOO  ......  OOO",
"OOOOOOO    oooooooooooooo    OOOOOOOOOOOOOOOOOOOOOO  ......  OOO",
"OOOOOOO  oooooooooooooooooo  OOOOOOOOOOOOOOOOOOOOOO  oooooo  OOO",
"OOOOOOO  oooooooooooooooooo  OOOOOOOOOOOOOOOOOOOOOO  oooooo  OOO",
"OOOOO  oooooooooooooooooooo    OOOOOOOOOOOOOOOOOOOO  oooooo  OOO",
"OOOOO  oooooooooooooooooooo    OOOOOOOOOOOOOOOOOOOO  oooooo  OOO",
"OOOOO  oo  oooooo  oooooooooo  OOOOOOOOOOOOOOOOOOOO  ......  OOO",
"OOOOO  oo  oooooo  oooooooooo  OOOOOOOOOOOOOOOOOOOO  ......  OOO",
"OOO    oooooo  oooooo          OOOOOOOOOOOOOOOOOOOO  oooooo  OOO",
"OOO    oooooo  oooooo          OOOOOOOOOOOOOOOOOOOO  oooooo  OOO",
"OOOOO  oooo  oo  oooooooooooo  OOOOOOOOOOOOOOOOOOOO  oooooo  OOO",
"OOOOO  oooo  oo  oooooooooooo  OOOOOOOOOOOOOOOOOOOO  oooooo  OOO",
"OOO      oooooooooooo      oo                        oooooo  OOO",
"OOO      oooooooooooo      oo                        oooooo  OOO",
"OOOOOOO    oooooooooooooooooooo....oooo....oooo....oooooooo  OOO",
"OOOOOOO    oooooooooooooooooooo....oooo....oooo....oooooooo  OOO",
"OOOOOOOOO        oooooooooooooo....oooo....oooo....oooooooo  OOO",
"OOOOOOOOO        oooooooooooooo....oooo....oooo....oooooooo  OOO",
"OOOOOOOOOOOOO  oooooooooooooooo....oooo....oooo....oooooooo  OOO",
"OOOOOOOOOOOOO  oooooooooooooooo....oooo....oooo....oooooooo  OOO",
"OOOOOOOOOOOOO  oooooooooooooooo....oooo....oooo....oooooooo  OOO",
"OOOOOOOOOOOOO  oooooooooooooooo....oooo....oooo....oooooooo  OOO",
"OOOOOOOOOOOOO  oooooooooooooooo....oooo....oooo....oooooooo  OOO",
"OOOOOOOOOOOOO  oooooooooooooooo....oooo....oooo....oooooooo  OOO",
"OOOOOOOOOOOOO  oooooooooooooooooooooooooooooooooooooooooooo  OOO",
"OOOOOOOOOOOOO  oooooooooooooooooooooooooooooooooooooooooooo  OOO",
"OOOOOOOOOOOOO  oooooooooooooooooooooooooooooooooooooooooooo  OOO",
"OOOOOOOOOOOOO  oooooooooooooooooooooooooooooooooooooooooooo  OOO",
"OOOOOOOOOOOOO  oooooooooooooooooooooooooooooooooooooooooooo  OOO",
"OOOOOOOOOOOOO  oooooooooooooooooooooooooooooooooooooooooooo  OOO",
"OOOOOOOOOOOOO  oooooooooooooooooooooooooooooooooooooooooooo  OOO",
"OOOOOOOOOOOOO  oooooooooooooooooooooooooooooooooooooooooooo  OOO",
"OOOOOOOOOOOOO  oooooooooooooooooooooooooooooooooooooooooooo  OOO",
"OOOOOOOOOOOOO  oooooooooooooooooooooooooooooooooooooooooooo  OOO",
"OOOOOOOOOOOOO  oooooooooooooooooooooooooooooooooooooooooooo  OOO",
"OOOOOOOOOOOOO  oooooooooooooooooooooooooooooooooooooooooooo  OOO",
"OOOOOOOOOOOOO  oooooooooooooooooooooooooooooooooooooooooooo  OOO",
"OOOOOOOOOOOOO  oooooooooooooooooooooooooooooooooooooooooooo  OOO",
"OOOOOOOOOOOO   oooooooooooooooooooooooooooooooooooooooooooo  OOO",
"OOOOOOOOOOO   oooooooooooooooooooooooooooooooooooooooooo     OOO",
"OOOOOOOOOO   oooooooooooooooooooooooooooooooooooooooooooo    OOO",
"OOOOOOOOO   ooooooo   ooooooo            ooooooo    oooooo   OOO",
"OOOOOOOO   ooooooo     ooooooo          ooooooo      oooooo   OO",
"OOOOOOOO  ooooooo   O   ooooooo   OOO  ooooooo   O   ooooooo   O",
"OOOOOOOO  oooooo   OOO   ooooooo  OOO  oooooo   OOO   ooooooo  O",
"OOOOOOOO   oooo   OOOOO   oooooo  OOO   oooo   OOOOO   oooooo  O",
"OOOOOOOOO   oo   OOOOOOO   oooo   OOOO   oo   OOOOOOO   oooo   O",
"OOOOOOOOOO      OOOOOOOOO   oo   OOOOOO      OOOOOOOOO   oo   OO",
"OOOOOOOOOOO    OOOOOOOOOOO      OOOOOOOO    OOOOOOOOOOO      OOO",
"OOOOOOOOOOOOOOOOOOOOOOOOOOO    OOOOOOOOOOOOOOOOOOOOOOOOO    OOOO",
"OOOOOOOOOOOOOOOOOOOOOOOOOOOOOOOOOOOOOOOOOOOOOOOOOOOOOOOOOOOOOOOO",
"OOOOOOOOOOOOOOOOOOOOOOOOOOOOOOOOOOOOOOOOOOOOOOOOOOOOOOOOOOOOOOOO"
};
