/* XPM */
static char *xpm_[] = {
/* columns rows colors chars-per-pixel */
"64 64 5 1 ",
"  c black",
". c #9C5A3C",
"X c #C26F42",
"o c #FFA3B1",
"O c None",
/* pixels */
"OOOOOOOOOOOOOOOOOOOOOOOOOOOOOOOOOOOOOOOOOOOOOOOOOOOOOOOOOOOOOOOO",
"OOOOOOOOOOOOOOOOOOOOOOOOOOOOOOOOOOOOOOOOOOOOOOOOOOOOOOOOOOOOOOOO",
"OOOOOOOOOOOOOOOOOOOOOOOOOOOOOOOOOOOOOOOOO          OOOOOOOOOOOOO",
"OOOOOOOOOOOOOOOOOOOOOOOOOOOOOOOOOOOOOOOOO          OOOOOOOOOOOOO",
"OOO          OOOOOOOOOOOOOOOOOOOOOOOOOO    XX        OOOOOOOOOOO",
"OOO          OOOOOOOOOOOOOOOOOOOOOOOOOO    XX        OOOOOOOOOOO",
"OOO  XXXXXX  OOOOOOOOOOOOOOOOOOOOOOOO    ooXX    XX  OOOOOOOOOOO",
"OOO  XXXXXX  OOOOOOOOOOOOOOOOOOOOOOOO    ooXX    XX  OOOOOOOOOOO",
"OOO  XXXXXX  OOOOOOOOOOOOOOOOOOOOOOOO  ooooXX    XX  OOOOOOOOOOO",
"OOO  XXXXXX  OOOOOOOOOOOOOOOOOOOOOOOO  ooooXX    XX  OOOOOOOOOOO",
"OOO  XXXXXX  OOOOOOOOOOOOOOOOOOOOOOOO  ooooXX          OOOOOOOOO",
"OOO  XXXXXX  OOOOOOOOOOOOOOOOOOOOOOOO  ooooXX          OOOOOOOOO",
"OOO  XXXXXX  OOOOOOOOOOOOOOOOOOOOOO    XXXXXXXX.X..X.    OOOOOOO",
"OOO  XXXXXX  OOOOOOOOOOOOOOOOOOOOOO    XXXXXXXX.X..X.    OOOOOOO",
"OOO  XXXXXX  OOOOOOOOOOOOOOOOOOOOOO  XXXXXXXXXX.X..X.XX  OOOOOOO",
"OOO  XXXXXX  OOOOOOOOOOOOOOOOOOOOOO  XXXXXXXXXXXX..XXXX  OOOOOOO",
"OOO  XXXXXX  OOOOOOOOOOOOOOOOOOOO    XXXXXXXXXXXXXXXXXXXX  OOOOO",
"OOO  XXXXXX  OOOOOOOOOOOOOOOOOOOO    XXXXXXXXXXXXXXXXXXXX  OOOOO",
"OOO  XXXXXX  OOOOOOOOOOOOOOOOOOOO  XXXXXXXXXX  XXXXXX  XX  OOOOO",
"OOO  XXXXXX  OOOOOOOOOOOOOOOOOOOO  XXXXXXXXXX  XXXXXX  XX  OOOOO",
"OOO  XXXXXX  OOOOOOOOOOOOOOOOOOOO          XXXXXX  XXXXXX    OOO",
"OOO  XXXXXX  OOOOOOOOOOOOOOOOOOOO          XXXXXX  XXXXXX    OOO",
"OOO  XXXXXX  OOOOOOOOOOOOOOOOOOOO  XXXXXXXXXXXX  XX  XXXX  OOOOO",
"OOO  XXXXXX  OOOOOOOOOOOOOOOOOOOO  XXXXXXXXXXXX  XX  XXXX  OOOOO",
"OOO  XXXXXX                        XX      XXXXXXXXXXXX      OOO",
"OOO  XXXXXX                        XX      XXXXXXXXXXXX      OOO",
"OOO  XXXXXXXXXXXXXXXXXXXXXXXXXXXXXXXXXXXXXXXXXXXXXXXX    OOOOOOO",
"OOO  XXXXXXXXXXXXXXXXXXXXXXXXXXXXXXXXXXXXXXXXXXXXXXXX    OOOOOOO",
"OOO  XXXXXXXXXXXXXXXXXXXXXXXXXXXXXXXXXXXXXXXXXX        OOOOOOOOO",
"OOO  XXXXXXXXXXXXXXXXXXXXXXXXXXXXXXXXXXXXXXXXXX        OOOOOOOOO",
"OOO  XXXXXXXXXXXXXXXXXXXXXXXXXXXXXXXXXXXXXXXXXXXX  OOOOOOOOOOOOO",
"OOO  XXXXXXXXXXXXXXXXXXXXXXXXXXXXXXXXXXXXXXXXXXXX  OOOOOOOOOOOOO",
"OOO  XXXXXXXXXXXXXXXXXXXXXXXXXXXXXXXXXXXXXXXXXXXX  OOOOOOOOOOOOO",
"OOO  XXXXXXXXXXXXXXXXXXXXXXXXXXXXXXXXXXXXXXXXXXXX  OOOOOOOOOOOOO",
"OOO  XXXXXXXXXXXXXXXXXXXXXXXXXXXXXXXXXXXXXXXXXXXX  OOOOOOOOOOOOO",
"OOO  XXXXXXXXXXXXXXXXXXXXXXXXXXXXXXXXXXXXXXXXXXXX  OOOOOOOOOOOOO",
"OOO  XXXXXXXXXXXXXXXXXXXXXXXXXXXXXXXXXXXXXXXXXXXX  OOOOOOOOOOOOO",
"OOO  XXXXXXXXXXXXXXXXXXXXXXXXXXXXXXXXXXXXXXXXXXXX  OOOOOOOOOOOOO",
"OOO  XXXXXXXXXXXXXXXXXXXXXXXXXXXXXXXXXXXXXXXXXXXX  OOOOOOOOOOOOO",
"OOO  XXXXXXXXXXXXXXXXXXXXXXXXXXXXXXXXXXXXXXXXXXXX  OOOOOOOOOOOOO",
"OOO  XXXXXXXXXXXXXXXXXXXXXXXXXXXXXXXXXXXXXXXXXXXX  OOOOOOOOOOOOO",
"OOO  XXXXXXXXXXXXXXXXXXXXXXXXXXXXXXXXXXXXXXXXXXXX  OOOOOOOOOOOOO",
"OOO  XXXXXXXXXXXXXXXXXXXXXXXXXXXXXXXXXXXXXXXXXXXX  OOOOOOOOOOOOO",
"OOO  XXXXXXXXXXXXXXXXXXXXXXXXXXXXXXXXXXXXXXXXXXXX  OOOOOOOOOOOOO",
"OOO  XXXXXXXXXXXXXXXXXXXXXXXXXXXXXXXXXXXXXXXXXXXX  OOOOOOOOOOOOO",
"OOO  XXXXXXXXXXXXXXXXXXXXXXXXXXXXXXXXXXXXXXXXXXXX  OOOOOOOOOOOOO",
"OOO  XXXXXXXXXXXXXXXXXXXXXXXXXXXXXXXXXXXXXXXXXXXX  OOOOOOOOOOOOO",
"OOO  XXXXXXXXXXXXXXXXXXXXXXXXXXXXXXXXXXXXXXXXXXXX  OOOOOOOOOOOOO",
"OOO  XXXXXXXXXXXXXXXXXXXXXXXXXXXXXXXXXXXXXXXXXXXX  OOOOOOOOOOOOO",
"OOO  XXXXXXXXXXXXXXXXXXXXXXXXXXXXXXXXXXXXXXXXXXXX  OOOOOOOOOOOOO",
"OOO  XXXXXXXXXXXXXXXXXXXXXXXXXXXXXXXXXXXXXXXXXXXX   OOOOOOOOOOOO",
"OOO     XXXXXXXXXXXXXXXXXXXXXXXXXXXXXXXXXXXXXXXXXX   OOOOOOOOOOO",
"OOO    XXXXXXXXXXXXXXXXXXXXXXXXXXXXXXXXXXXXXXXXXX..   OOOOOOOOOO",
"OOO   ..XXXX    XXXXX..            ..XXXXX   XXX..XX   OOOOOOOOO",
"OO   XX..XX      XXX..XX          XX..XXX     X..XXXX   OOOOOOOO",
"O   .XXX..X   O   X..XX..  OOO   .XXX..X   O   .XXXX..  OOOOOOOO",
"O  X..XXX.   OOO   .XX..X  OOO  X..XXX.   OOO   XXX..X  OOOOOOOO",
"O  XX..XX   OOOOO   X..X   OOO  XX..XX   OOOOO   X..X   OOOOOOOO",
"O   XX..   OOOOOOO   .X   OOOO   XX..   OOOOOOO   .X   OOOOOOOOO",
"OO   XX   OOOOOOOOO      OOOOOO   XX   OOOOOOOOO      OOOOOOOOOO",
"OOO      OOOOOOOOOOO    OOOOOOOO      OOOOOOOOOOO    OOOOOOOOOOO",
"OOOO    OOOOOOOOOOOOOOOOOOOOOOOOO    OOOOOOOOOOOOOOOOOOOOOOOOOOO",
"OOOOOOOOOOOOOOOOOOOOOOOOOOOOOOOOOOOOOOOOOOOOOOOOOOOOOOOOOOOOOOOO",
"OOOOOOOOOOOOOOOOOOOOOOOOOOOOOOOOOOOOOOOOOOOOOOOOOOOOOOOOOOOOOOOO"
};
