/* XPM */
static char *xpm_[] = {
/* columns rows colors chars-per-pixel */
"44 64 2 1 ",
"  c #0086D4",
". c None",
/* pixels */
"...........                      ...........",
"...........                      ...........",
"...........                      ...........",
"...........                      ...........",
"...........                      ...........",
"...........                      ...........",
"...........                      ...........",
"...........                      ...........",
"...........                      ...........",
"...........                      ...........",
"...........                      ...........",
"           .....................           .",
"           .....................           .",
"           .....................           .",
"           .....................           .",
"           .....................           .",
"           .....................           .",
"           .....................           .",
"           .....................           .",
"           .....................           .",
"           .....................           .",
"           .....................           .",
"           .....................           .",
"           .....................           .",
"           .....................           .",
"           .....................           .",
"           .....................           .",
"...........                      ...........",
"...........                      ...........",
"...........                      ...........",
"...........                      ...........",
"...........                      ...........",
"...........                      ...........",
"...........                      ...........",
"...........                      ...........",
"...........                      ...........",
"...........                      ...........",
"...........                      ...........",
"           .....................           .",
"           .....................           .",
"           .....................           .",
"           .....................           .",
"           .....................           .",
"           .....................           .",
"           .....................           .",
"           .....................           .",
"           .....................           .",
"           .....................           .",
"           .....................           .",
"           .....................           .",
"           .....................           .",
"           .....................           .",
"           .....................           .",
"           .....................           .",
"...........                     ............",
"...........                      ...........",
"...........                      ...........",
"...........                      ...........",
"...........                      ...........",
"...........                      ...........",
"...........                      ...........",
"...........                      ...........",
"...........                      ...........",
"...........                      ...........",
"...........                      ..........."
};
