/* XPM */
static char *xpm_[] = {
/* columns rows colors chars-per-pixel */
"64 64 5 1 ",
"  c black",
". c #464646",
"X c #FFA3B1",
"o c white",
"O c #569969",
/* pixels */
"OOOOOOOOOOOOOOOOOOOOOOOOOOOOOOOOOOOOOOOOOOOOOOOOOOOOOOOOOOOOOOOO",
"OOOOOOOOOOOOOOOOOOOOOOOOOOOOOOOOOOOOOOOOOOOOOOOOOOOOOOOOOOOOOOOO",
"OOOOOOOOOOOOOOOOOOOOOOOOOOOOOOOOOOOOOOOOO          OOOOOOOOOOOOO",
"OOOOOOOOOOOOOOOOOOOOOOOOOOOOOOOOOOOOOOOOO          OOOOOOOOOOOOO",
"OOO          OOOOOOOOOOOOOOOOOOOOOOOOOO    oo        OOOOOOOOOOO",
"OOO          OOOOOOOOOOOOOOOOOOOOOOOOOO    oo        OOOOOOOOOOO",
"OOO  oooooo  OOOOOOOOOOOOOOOOOOOOOOOO    XXoo    oo  OOOOOOOOOOO",
"OOO  oooooo  OOOOOOOOOOOOOOOOOOOOOOOO    XXoo    oo  OOOOOOOOOOO",
"OOO  oooooo  OOOOOOOOOOOOOOOOOOOOOOOO  XXXXoo    oo  OOOOOOOOOOO",
"OOO  oooooo  OOOOOOOOOOOOOOOOOOOOOOOO  XXXXoo    oo  OOOOOOOOOOO",
"OOO  oooooo  OOOOOOOOOOOOOOOOOOOOOOOO  XXXXoo          OOOOOOOOO",
"OOO  oooooo  OOOOOOOOOOOOOOOOOOOOOOOO  XXXXoo          OOOOOOOOO",
"OOO  ......  OOOOOOOOOOOOOOOOOOOOOO    oooooooooooooo    OOOOOOO",
"OOO  ......  OOOOOOOOOOOOOOOOOOOOOO    oooooooooooooo    OOOOOOO",
"OOO  oooooo  OOOOOOOOOOOOOOOOOOOOOO  oooooooooooooooooo  OOOOOOO",
"OOO  oooooo  OOOOOOOOOOOOOOOOOOOOOO  oooooooooooooooooo  OOOOOOO",
"OOO  oooooo  OOOOOOOOOOOOOOOOOOOO    oooooooooooooooooooo  OOOOO",
"OOO  oooooo  OOOOOOOOOOOOOOOOOOOO    oooooooooooooooooooo  OOOOO",
"OOO  ......  OOOOOOOOOOOOOOOOOOOO  oooooooooo  oooooo  oo  OOOOO",
"OOO  ......  OOOOOOOOOOOOOOOOOOOO  oooooooooo  oooooo  oo  OOOOO",
"OOO  oooooo  OOOOOOOOOOOOOOOOOOOO          oooooo  oooooo    OOO",
"OOO  oooooo  OOOOOOOOOOOOOOOOOOOO          oooooo  oooooo    OOO",
"OOO  oooooo  OOOOOOOOOOOOOOOOOOOO  oooooooooooo  oo  oooo  OOOOO",
"OOO  oooooo  OOOOOOOOOOOOOOOOOOOO  oooooooooooo  oo  oooo  OOOOO",
"OOO  oooooo                        oo      oooooooooooo      OOO",
"OOO  oooooo                        oo      oooooooooooo      OOO",
"OOO  oooooooo....oooo....oooo....oooooooooooooooooooo    OOOOOOO",
"OOO  oooooooo....oooo....oooo....oooooooooooooooooooo    OOOOOOO",
"OOO  oooooooo....oooo....oooo....oooooooooooooo        OOOOOOOOO",
"OOO  oooooooo....oooo....oooo....oooooooooooooo        OOOOOOOOO",
"OOO  oooooooo....oooo....oooo....oooooooooooooooo  OOOOOOOOOOOOO",
"OOO  oooooooo....oooo....oooo....oooooooooooooooo  OOOOOOOOOOOOO",
"OOO  oooooooo....oooo....oooo....oooooooooooooooo  OOOOOOOOOOOOO",
"OOO  oooooooo....oooo....oooo....oooooooooooooooo  OOOOOOOOOOOOO",
"OOO  oooooooo....oooo....oooo....oooooooooooooooo  OOOOOOOOOOOOO",
"OOO  oooooooo....oooo....oooo....oooooooooooooooo  OOOOOOOOOOOOO",
"OOO  oooooooooooooooooooooooooooooooooooooooooooo  OOOOOOOOOOOOO",
"OOO  oooooooooooooooooooooooooooooooooooooooooooo  OOOOOOOOOOOOO",
"OOO  oooooooooooooooooooooooooooooooooooooooooooo  OOOOOOOOOOOOO",
"OOO  oooooooooooooooooooooooooooooooooooooooooooo  OOOOOOOOOOOOO",
"OOO  oooooooooooooooooooooooooooooooooooooooooooo  OOOOOOOOOOOOO",
"OOO  oooooooooooooooooooooooooooooooooooooooooooo  OOOOOOOOOOOOO",
"OOO  oooooooooooooooooooooooooooooooooooooooooooo  OOOOOOOOOOOOO",
"OOO  oooooooooooooooooooooooooooooooooooooooooooo  OOOOOOOOOOOOO",
"OOO  oooooooooooooooooooooooooooooooooooooooooooo  OOOOOOOOOOOOO",
"OOO  oooooooooooooooooooooooooooooooooooooooooooo  OOOOOOOOOOOOO",
"OOO  oooooooooooooooooooooooooooooooooooooooooooo  OOOOOOOOOOOOO",
"OOO  oooooooooooooooooooooooooooooooooooooooooooo  OOOOOOOOOOOOO",
"OOO  oooooooooooooooooooooooooooooooooooooooooooo  OOOOOOOOOOOOO",
"OOO  oooooooooooooooooooooooooooooooooooooooooooo  OOOOOOOOOOOOO",
"OOO  oooooooooooooooooooooooooooooooooooooooooooo   OOOOOOOOOOOO",
"OOO     oooooooooooooooooooooooooooooooooooooooooo   OOOOOOOOOOO",
"OOO    oooooooooooooooooooooooooooooooooooooooooooo   OOOOOOOOOO",
"OOO   oooooo    ooooooo            ooooooo   ooooooo   OOOOOOOOO",
"OO   oooooo      ooooooo          ooooooo     ooooooo   OOOOOOOO",
"O   ooooooo   O   ooooooo  OOO   ooooooo   O   ooooooo  OOOOOOOO",
"O  ooooooo   OOO   oooooo  OOO  ooooooo   OOO   oooooo  OOOOOOOO",
"O  oooooo   OOOOO   oooo   OOO  oooooo   OOOOO   oooo   OOOOOOOO",
"O   oooo   OOOOOOO   oo   OOOO   oooo   OOOOOOO   oo   OOOOOOOOO",
"OO   oo   OOOOOOOOO      OOOOOO   oo   OOOOOOOOO      OOOOOOOOOO",
"OOO      OOOOOOOOOOO    OOOOOOOO      OOOOOOOOOOO    OOOOOOOOOOO",
"OOOO    OOOOOOOOOOOOOOOOOOOOOOOOO    OOOOOOOOOOOOOOOOOOOOOOOOOOO",
"OOOOOOOOOOOOOOOOOOOOOOOOOOOOOOOOOOOOOOOOOOOOOOOOOOOOOOOOOOOOOOOO",
"OOOOOOOOOOOOOOOOOOOOOOOOOOOOOOOOOOOOOOOOOOOOOOOOOOOOOOOOOOOOOOOO"
};
