/* XPM */
static char *xpm_[] = {
/* columns rows colors chars-per-pixel */
"64 64 7 1 ",
"  c #732826",
". c #732A28",
"X c #733532",
"o c #733432",
"O c #733633",
"+ c #732A27",
"@ c white",
/* pixels */
"                                                                ",
"  ..        ........  ....  ........  ........  ..........  ..  ",
" .XX.      .oOOOOOOo++oOOo++oOOOOOOo++oOOOOOOo++oOOOOOOOOo++XX. ",
" .XX.      .oOOOOOOo++oOOo++oOOOOOOo++oOOOOOOo++oOOOOOOOOo++XX. ",
"  ..        .......+  ...+  +......+  +.......  .........+  +.  ",
"    ........  +.......  +......+  +......+            +......+  ",
"   .oOOOOOOo++oOOOOOOo++oOOOOOOo++oOOOOOOo.          .oOOOOOOo. ",
"   .oOOOOOOo++oOOOOOOo++oOOOOOOo++oOOOOOOo.          .oOOOOOOo. ",
"    +......+  ........  .......+  +......+            +......+  ",
"  ...+  +.....              +......+  +.......  .......+  +..+  ",
" .oOOo++oOOOOo.            .oOOOOOOo++oOOOOOOo++oOOOOOOo++oOOo. ",
" .oOOo++oOOOOo.            .oOOOOOOo++oOOOOOOo++oOOOOOOo++oOOo. ",
"  +..+  +.....              +......+  +......+  +.......  +..+  ",
"  +........+  ........  .......+  +......+  +........+  .....+  ",
" .oOOOOOOOOo++oOOOOOOo++oOOOOOOo++oOOOOOOo++oOOOOOOOOo++oOOOOo. ",
" .oOOOOOOOOo++oOOOOOOo++oOOOOOOo++oOOOOOOo++oOOOOOOOOo++oOOOOo. ",
"  +.........  +.......  +.......  ........  +........+  +....+  ",
"  +......+  .......+  .......+              +....+  +........+  ",
" .oOOOOOOo++oOOOOOOo++oOOOOOOo.            .oOOOOo++oOOOOOOOOo. ",
" .oOOOOOOo++oOOOOOOo++oOOOOOOo.            .oOOOOo++oOOOOOOOOo. ",
"  +......+  +.......  +......+              .....+  +........+  ",
"  +..+  +........+  .........+  ..........    +......+  +....+  ",
" .oOOo++oOOOOOOOOo++oOOOOOOOOo++oOOOOOOOOo.  .oOOOOOOo++oOOOOo. ",
" .oOOo++oOOOOOOOOo++oOOOOOOOOo++oOOOOOOOOo.  .oOOOOOOo++oOOOOo. ",
"  +..+  ..........  +........+  +........+    ........  +....+  ",
"  +.....          .......+  +......+  +.......        .......+  ",
" .oOOOOo.        .oOOOOOOo++oOOOOOOo++oOOOOOOo.      .oOOOOOOo. ",
" .oOOOOo.        .oOOOOOOo++oOOOOOOo++oOOOOOOo.      .oOOOOOOo. ",
"  +....+          +.......  +......+  +......+        +......+  ",
"  +.........  .........+  .........+  +.........  ...........+  ",
" .oOOOOOOOOo++oOOOOOOOOo++oOOOOOOOOo++oOOOOOOOOo++oOOOOOOOOOOo. ",
" .oOOOOOOOOo++oOOOOOOOOo++oOOOOOOOOo++oOOOOOOOOo++oOOOOOOOOOOo. ",
"  .........+  ..........  ..........  +........+  +..........+  ",
"    +.........  +....+                +........+  +....+  +..+  ",
"   .oOOOOOOOOo++oOOOOo.              .oOOOOOOOOo++oOOOOo++oOOo. ",
"   .oOOOOOOOOo++oOOOOo.              .oOOOOOOOOo++oOOOOo++oOOo. ",
"    .........+  .....+                +........+  .....+  +..+  ",
"  ..  +.........    +.......  .........+  +.......  +........+  ",
" .XX++oOOOOOOOOo.  .oOOOOOOo++oOOOOOOOOo++oOOOOOOo++oOOOOOOOOo. ",
" .XX++oOOOOOOOOo.  .oOOOOOOo++oOOOOOOOOo++oOOOOOOo++oOOOOOOOOo. ",
"  .+  +.........    .......+  +.........  .......+  ..........  ",
"  +........+              +......+          +.......            ",
" .oOOOOOOOOo.            .oOOOOOOo.        .oOOOOOOo.           ",
" .oOOOOOOOOo. .......... .oOOOOOOo. ...... .oOOOOOOo. ........  ",
"  .......... .oOOOOOOOOo. ........ .oOOOOo. ........ .oOOOOOOo. ",
"             .oOOOOOOOOo.          .oOOOOo.          .oOOOOOOo. ",
"              +........+            .....+            +......+  ",
"  ....  .......+  +.......  ........  +..+  ........  +......+  ",
" .oOOo++oOOOOOOo++oOOOOOOo++oOOOOOOo++oOOo++oOOOOOOo++oOOOOOOo. ",
" .oOOo++oOOOOOOo++oOOOOOOo++oOOOOOOo++oOOo++oOOOOOOo++oOOOOOOo. ",
"  +..+  .......+  +......+  +......+  +...  +.......  +......+  ",
"  +.....  +........+  +......+  +......+  .......+  .........+  ",
" .oOOOOo++oOOOOOOOOo++oOOOOOOo++oOOOOOOo++oOOOOOOo++oOOOOOOOOo. ",
" .oOOOOo++oOOOOOOOOo++oOOOOOOo++oOOOOOOo++oOOOOOOo++oOOOOOOOOo. ",
"  ......  .........+  .......+  ........  .......+  +........+  ",
"              +.......  +.......            +........+  +....+  ",
"             .oOOOOOOo++oOOOOOOo.          .oOOOOOOOOo++oOOOOo. ",
"             .oOOOOOOo++oOOOOOOo.          .oOOOOOOOOo++oOOOOo. ",
"              +......+  +......+            +........+  +....+  ",
"  ....  .......+  +........+  +.......  .........+  +........+  ",
" .oOOo++oOOOOOOo++oOOOOOOOOo++oOOOOOOo++oOOOOOOOOo++oOOOOOOOOo. ",
" .oOOo++oOOOOOOo++oOOOOOOOOo++oOOOOOOo++oOOOOOOOOo++oOOOOOOOOo. ",
"  ....  ........  ..........  ........  ..........  ..........  ",
"                                                                "
};
