/* XPM */
static char *_5bcde93fc5d4911aa4effe01fa01b1dmq5rFLjXWjwoUsNp[] = {
/* columns rows colors chars-per-pixel */
"64 64 6 1 ",
"  c #FF4800",
". c #FF7E00",
"X c #F51857",
"o c #569969",
"O c #FAA702",
"+ c #FCC201",
/* pixels */
"oooooooooooooooooooooooooooooooooooooooooooooooooooooooooooooooo",
"oooooooooooooooooooooooooooooooooooooooooooooooooooooooooooooooo",
"oooooooooooooooooooooooooooooooooooooooooooooooooooooooooooooooo",
"oooooooooooooooooooooooooooooooooooooooooooooooooooooooooooooooo",
"oooooooooooooooooooooooooooooooooooooooooooooooooooooooooooooooo",
"oooooooooooooooooooooooooooooooooooooooooooooooooooooooooooooooo",
"oooooooooooooooooooooooooooooooooooooooooooooooooooooooooooooooo",
"oooooooooooooooooooooooooooooooooooooooooooooooooooooooooooooooo",
"oooooooooooooooooooooooooooooooooooooooooooooooooooooooooooooooo",
"oooooooooooooooooooooooooooooooooooooooooooooooooooooooooooooooo",
"oooooooooooooooooooooooooooooooooooooooooooooooooooooooooooooooo",
"oooooooooooooooooooooooooooooooooooooooooooooooooooooooooooooooo",
"oooooooooooooooooooooooooooooooooooooooooooooooooooooooooooooooo",
"oooooooooooooooooooooooooooooooooooooooooooooooooooooooooooooooo",
"oooooooooooooooooooooooooo++++++++++++oooooooooooooooooooooooooo",
"oooooooooooooooooooooooooo++++++++++++oooooooooooooooooooooooooo",
"oooooooooooooooooooooo++++++++++++++++++++oooooooooooooooooooooo",
"oooooooooooooooooooooo++++++++++++++++++++oooooooooooooooooooooo",
"oooooooooooooooooooo++++++++++++++++++++++++oooooooooooooooooooo",
"oooooooooooooooooooo++++++++++++++++++++++++oooooooooooooooooooo",
"oooooooooooooooooo++++++++OOOOOOOOOOOO++++++++oooooooooooooooooo",
"oooooooooooooooooo++++++++OOOOOOOOOOOO++++++++oooooooooooooooooo",
"oooooooooooooooo++++++++OOOO........OOOO++++++++oooooooooooooooo",
"oooooooooooooooo++++++++OOOO........OOOO++++++++oooooooooooooooo",
"oooooooooooooooo++++++OOOO....    ....OOOO++++++oooooooooooooooo",
"oooooooooooooooo++++++OOOO....    ....OOOO++++++oooooooooooooooo",
"oooooooooooooo++++++OOOO....        ....OOOO++++++oooooooooooooo",
"oooooooooooooo++++++OOOO....        ....OOOO++++++oooooooooooooo",
"oooooooooooooo++++++OO....    XXXX    ....OO++++++oooooooooooooo",
"oooooooooooooo++++++OO....    XXXX    ....OO++++++oooooooooooooo",
"oooooooooooooo++++++OO..    XXXXXXXX    ..OO++++++oooooooooooooo",
"oooooooooooooo++++++OO..    XXXXXXXX    ..OO++++++oooooooooooooo",
"oooooooooooooo++++++OO..    XXXXXXXX    ..OO++++++oooooooooooooo",
"oooooooooooooo++++++OO..    XXXXXXXX    ..OO++++++oooooooooooooo",
"oooooooooooooo++++++OO....    XXXX    ....OO++++++oooooooooooooo",
"oooooooooooooo++++++OO....    XXXX    ....OO++++++oooooooooooooo",
"oooooooooooooo++++++OOOO....        ....OOOO++++++oooooooooooooo",
"oooooooooooooo++++++OOOO....        ....OOOO++++++oooooooooooooo",
"oooooooooooooooo++++++OOOO....    ....OOOO++++++oooooooooooooooo",
"oooooooooooooooo++++++OOOO....    ....OOOO++++++oooooooooooooooo",
"oooooooooooooooo++++++++OOOO........OOOO++++++++oooooooooooooooo",
"oooooooooooooooo++++++++OOOO........OOOO++++++++oooooooooooooooo",
"oooooooooooooooooo++++++++OOOOOOOOOOOO++++++++oooooooooooooooooo",
"oooooooooooooooooo++++++++OOOOOOOOOOOO++++++++oooooooooooooooooo",
"oooooooooooooooooooo++++++++++++++++++++++++oooooooooooooooooooo",
"oooooooooooooooooooo++++++++++++++++++++++++oooooooooooooooooooo",
"oooooooooooooooooooooo++++++++++++++++++++oooooooooooooooooooooo",
"oooooooooooooooooooooo++++++++++++++++++++oooooooooooooooooooooo",
"oooooooooooooooooooooooooo++++++++++++oooooooooooooooooooooooooo",
"oooooooooooooooooooooooooo++++++++++++oooooooooooooooooooooooooo",
"oooooooooooooooooooooooooooooooooooooooooooooooooooooooooooooooo",
"oooooooooooooooooooooooooooooooooooooooooooooooooooooooooooooooo",
"oooooooooooooooooooooooooooooooooooooooooooooooooooooooooooooooo",
"oooooooooooooooooooooooooooooooooooooooooooooooooooooooooooooooo",
"oooooooooooooooooooooooooooooooooooooooooooooooooooooooooooooooo",
"oooooooooooooooooooooooooooooooooooooooooooooooooooooooooooooooo",
"oooooooooooooooooooooooooooooooooooooooooooooooooooooooooooooooo",
"oooooooooooooooooooooooooooooooooooooooooooooooooooooooooooooooo",
"oooooooooooooooooooooooooooooooooooooooooooooooooooooooooooooooo",
"oooooooooooooooooooooooooooooooooooooooooooooooooooooooooooooooo",
"oooooooooooooooooooooooooooooooooooooooooooooooooooooooooooooooo",
"oooooooooooooooooooooooooooooooooooooooooooooooooooooooooooooooo",
"oooooooooooooooooooooooooooooooooooooooooooooooooooooooooooooooo",
"oooooooooooooooooooooooooooooooooooooooooooooooooooooooooooooooo"
};
