/* XPM */
static char *xpm_[] = {
/* columns rows colors chars-per-pixel */
"64 64 65 1 ",
"  c black",
". c #000101",
"X c #030000",
"o c #000201",
"O c #000301",
"+ c #040200",
"@ c #190C00",
"# c #1B0D00",
"$ c #1D0E00",
"% c #1E0F00",
"& c #1F0F00",
"* c #1E0F01",
"= c #1F0F01",
"- c #1D0E04",
"; c #031108",
": c #031208",
"> c #041308",
", c #041409",
"< c #041509",
"1 c #3A1D00",
"2 c #3A1C01",
"3 c #3A1D01",
"4 c #072610",
"5 c #082811",
"6 c #C56100",
"7 c #C56200",
"8 c #DE6E04",
"9 c #D2651E",
"0 c #E06F00",
"q c #E06E04",
"w c #E26F04",
"e c #E27000",
"r c #E47100",
"t c #E67200",
"y c #E47004",
"u c #FB7C00",
"i c #FF7E00",
"p c #FF7F00",
"a c #FF7E01",
"s c #FF7F01",
"d c #FD7D04",
"f c #FF7E04",
"g c #FF7F04",
"h c #FB7B08",
"j c #FF7D08",
"k c #ED731E",
"l c #F1741E",
"z c #F1751E",
"x c #F3751E",
"c c #F3761E",
"v c #1A893B",
"b c #1A8A3B",
"n c #1B8B3C",
"m c #1B8D3C",
"M c #1E9C43",
"N c #1E9D43",
"B c #1E9E44",
"V c #1F9F44",
"C c #1FA145",
"Z c #22B04B",
"A c #22B24D",
"S c #22B34D",
"D c #23B44D",
"F c #FF8000",
"G c None",
/* pixels */
"GGGGGGGGGGGGGGGGGGGGGGGGGGGGGGGGGGGGGGGGGGGGGGGGGGGGGGGGGGGGGGGG",
"GGGGGGGGGGGGGGGGGGGGGGGGGGGGGGGGGGGGGGGGGGGGGGGGGGGGGGGGGGGGGGGG",
"GGGGGGGGGGGGGGGGGGGGGGGGGGGGGGGGGGGGGGGGGGGGGGGGGGGGGGGGGGGGGGGG",
"GGGGGGGGGGGGGGGGGGGGGGGGGGGGGGGGGGGGGGGGGGGGGGGGGGGGGGGGGGGGGGGG",
"GGGGGGGGGGGGGGGGGGGGGGGGGGGGGGGGGGGGGGGGGGGGGGGGGGGGGGGGGGGGGGGG",
"GGGGGGGGGGGGGGGGGGGGGGGGGGGGGGGGGGGGGGGGGGGGGGGGGGGGGGGGGGGGGGGG",
"GGGGGGGGGGGGGGGGGGGGGGGGGGGGGGGGGGGGGGGGGGGGGGGGGGGGGGGGGGGGGGGG",
"GGGGGGGGGGGGGGGGGGGGGGGGGGGGGGGGGGGGGGGGGGGGGGGGGGGGGGGGGGGGGGGG",
"GGGGGGGGGGGGGGGGGGGGGGGGGGGGGGGGGGGGGGGGGGGGGGGGGGGGGGGGGGGGGGGG",
"GGGGGGGGGGGGGGGGGGGGGGGGGGGGGGGGGGGGGGGGGGGGGGGGGGGGGGGGGGGGGGGG",
"GGGGGGGGGGGGGGGGGGGGGGGGGGGGGGGGGGGGGGGGGGGGGGGGGGGGGGGGGGGGGGGG",
"GGGGGGGGGGGGGGGGGGGGGGGGGGGGGGGGGGGGGGGGGGGGGGGGGGGGGGGGGGGGGGGG",
"GGGGGGGGGGGGGGGGGGGGGGGGGGGGGGGGGGGG        GGGGGGGGGGGGGGGGGGGG",
"GGGGGGGGGGGGGGGGGGGGGGGGGGGGGGGGGGGG O><<>  GGGGGGGGGGGGGGGGGGGG",
"GGGGGGGGGGGGGGGGGGGGGGGGGGGGGGGGGGGG <vNNv> GGGGGGGGGGGGGGGGGGGG",
"GGGGGGGGGGGGGGGGGGGGGGGGGGGGGGGGGGGG <NDDN< GGGGGGGGGGGGGGGGGGGG",
"GGGGGGGGGGGGGGGGGGGGGGGGGGGGGGGGGGGG <MSSM<     GGGGGGGGGGGGGGGG",
"GGGGGGGGGGGGGGGGGGGGGGGGGGGGGGGGGGGG ,MSSN<.><. GGGGGGGGGGGGGGGG",
"GGGGGGGGGGGGGGGGGGGGGGGGGGGGGGGGGGGG <NDSM,:vm> GGGGGGGGGGGGGGGG",
"GGGGGGGGGGGGGGGGGGGGGGGGGGGGGGGGGGGG >vVZM,>nn> GGGGGGGGGGGGGGGG",
"GGGGGGGGGGGGGGGGGGGGGGGGGGGG         .:5VN<.>:.   GGGGGGGGGGGGGG",
"GGGGGGGGGGGGGGGGGGGGGGGGGGGG  &=&&&&&# >vm4,>><>O GGGGGGGGGGGGGG",
"GGGGGGGGGGGGGGGGGGGGGGGGGG   #6e8e00e6@.:4mNMMNv< GGGGGGGGGGGGGG",
"GGGGGGGGGGGGGGGGGGGGGGGGGG  #1ydFiFiit1# ,vCASDN< GGGGGGGGGGGGGG",
"GGGGGGGGGGGGGGGGGGGGGGGGGG #6ykzdiiiiut6@ :5NDDN< GGGGGGGGGGGGGG",
"GGGGGGGGGGGGGGGGGGGGGGGGGG &eizzhdiiiidy1# >vNNv< GGGGGGGGGGGGGG",
"GGGGGGGGGGGGGGGGGGGGGGGG   &8FdhlldiFdlky6& ><<>  GGGGGGGGGGGGGG",
"GGGGGGGGGGGGGGGGGGGGGGGG  @1tiidlldFidllj8&       GGGGGGGGGGGGGG",
"GGGGGGGGGGGGGGGGGGGGGG   #6tuiiiddiiiddjc9- GGGGGGGGGGGGGGGGGGGG",
"GGGGGGGGGGGGGGGGGGGGGG +#1tFiiiiiiiiiiidc9- GGGGGGGGGGGGGGGGGGGG",
"GGGGGGGGGGGGGGGGGGGGGG #6tuiiiiiiiiiiiiid8= GGGGGGGGGGGGGGGGGGGG",
"GGGGGGGGGGGGGGGGGGGGGG &0FiiiiiiiiiiiiiiFe= GGGGGGGGGGGGGGGGGGGG",
"GGGGGGGGGGGGGGGGGGGG   &8FiiiiiiiiiiiiiiFe& GGGGGGGGGGGGGGGGGGGG",
"GGGGGGGGGGGGGGGGGGGG  #1tFddiiiiiiiiiiiut6# GGGGGGGGGGGGGGGGGGGG",
"GGGGGGGGGGGGGGGGGGGG &6tudlldiiiiiiiiiFt1#+ GGGGGGGGGGGGGGGGGGGG",
"GGGGGGGGGGGGGGGGGGGG &eFidllhdiiiiiiiut6#   GGGGGGGGGGGGGGGGGGGG",
"GGGGGGGGGGGGGGGGGG   &8FiidhlzdiiiFiFt1#+ GGGGGGGGGGGGGGGGGGGGGG",
"GGGGGGGGGGGGGGGGGG +#1eiiiidzlhdiue8e6#   GGGGGGGGGGGGGGGGGGGGGG",
"GGGGGGGGGGGGGGGGGG #6tuiiiiidhzzdt1&=#  GGGGGGGGGGGGGGGGGGGGGGGG",
"GGGGGGGGGGGGGGGGGG &eFiiiiiiidzky6#     GGGGGGGGGGGGGGGGGGGGGGGG",
"GGGGGGGGGGGGGGGG   &8Fiiiiiiiidy1#  GGGGGGGGGGGGGGGGGGGGGGGGGGGG",
"GGGGGGGGGGGGGGGG +#10diiiiiiiut6#   GGGGGGGGGGGGGGGGGGGGGGGGGGGG",
"GGGGGGGGGGGGGGGG #6ykzdiiiFiit1#+ GGGGGGGGGGGGGGGGGGGGGGGGGGGGGG",
"GGGGGGGGGGGGGGGG &edzzhdiut8e6#   GGGGGGGGGGGGGGGGGGGGGGGGGGGGGG",
"GGGGGGGGGGGGGG   &8idhlzdt1&&&+ GGGGGGGGGGGGGGGGGGGGGGGGGGGGGGGG",
"GGGGGGGGGGGGGG +#1tiidzkw6#     GGGGGGGGGGGGGGGGGGGGGGGGGGGGGGGG",
"GGGGGGGGGGGGGG #6tuiiidy1@+ GGGGGGGGGGGGGGGGGGGGGGGGGGGGGGGGGGGG",
"GGGGGGGGGGGGGG &eiiiiit6#   GGGGGGGGGGGGGGGGGGGGGGGGGGGGGGGGGGGG",
"GGGGGGGGGGGGGG &eFiFFt1@  GGGGGGGGGGGGGGGGGGGGGGGGGGGGGGGGGGGGGG",
"GGGGGGGGGGGGGG #6ee8e6#   GGGGGGGGGGGGGGGGGGGGGGGGGGGGGGGGGGGGGG",
"GGGGGGGGGGGGGG +#&&&&#+ GGGGGGGGGGGGGGGGGGGGGGGGGGGGGGGGGGGGGGGG",
"GGGGGGGGGGGGGG          GGGGGGGGGGGGGGGGGGGGGGGGGGGGGGGGGGGGGGGG",
"GGGGGGGGGGGGGGGGGGGGGGGGGGGGGGGGGGGGGGGGGGGGGGGGGGGGGGGGGGGGGGGG",
"GGGGGGGGGGGGGGGGGGGGGGGGGGGGGGGGGGGGGGGGGGGGGGGGGGGGGGGGGGGGGGGG",
"GGGGGGGGGGGGGGGGGGGGGGGGGGGGGGGGGGGGGGGGGGGGGGGGGGGGGGGGGGGGGGGG",
"GGGGGGGGGGGGGGGGGGGGGGGGGGGGGGGGGGGGGGGGGGGGGGGGGGGGGGGGGGGGGGGG",
"GGGGGGGGGGGGGGGGGGGGGGGGGGGGGGGGGGGGGGGGGGGGGGGGGGGGGGGGGGGGGGGG",
"GGGGGGGGGGGGGGGGGGGGGGGGGGGGGGGGGGGGGGGGGGGGGGGGGGGGGGGGGGGGGGGG",
"GGGGGGGGGGGGGGGGGGGGGGGGGGGGGGGGGGGGGGGGGGGGGGGGGGGGGGGGGGGGGGGG",
"GGGGGGGGGGGGGGGGGGGGGGGGGGGGGGGGGGGGGGGGGGGGGGGGGGGGGGGGGGGGGGGG",
"GGGGGGGGGGGGGGGGGGGGGGGGGGGGGGGGGGGGGGGGGGGGGGGGGGGGGGGGGGGGGGGG",
"GGGGGGGGGGGGGGGGGGGGGGGGGGGGGGGGGGGGGGGGGGGGGGGGGGGGGGGGGGGGGGGG",
"GGGGGGGGGGGGGGGGGGGGGGGGGGGGGGGGGGGGGGGGGGGGGGGGGGGGGGGGGGGGGGGG",
"GGGGGGGGGGGGGGGGGGGGGGGGGGGGGGGGGGGGGGGGGGGGGGGGGGGGGGGGGGGGGGGG"
};
