/* XPM */
static char *xpm_[] = {
/* columns rows colors chars-per-pixel */
"64 64 16 1 ",
"  c #569969",
". c #559868",
"X c #589A6B",
"o c #68A479",
"O c #DBE9DF",
"+ c #66A379",
"@ c #DEEADE",
"# c #79A86E",
"$ c #DDBB23",
"% c #DAE9DE",
"& c #DCE9DD",
"* c #79A76E",
"= c #6BA57B",
"- c #EDF4EF",
"; c #68A47B",
": c white",
/* pixels */
"                                                                ",
"                                                                ",
"                                                                ",
"                                                                ",
"      ..  ..                                                    ",
"     XooXXooX                                                   ",
"    .oOO++OOo.                                      ..  ..      ",
"    .oO@##@Oo.                                     XooXXooX     ",
"     X+#$$#+X                                     .oOO++OOo.    ",
"     X+#$$#+X                                     .oO@##@Oo.    ",
"    .oO@##@Oo.                                     X+#$$#+X     ",
"    .oOO++OOo.                                     X+#$$#+X     ",
"     XooXXooX                                     .oO@##@Oo.    ",
"      ..  ..                                      .oOO++OOo.    ",
"                                                   XooXXooX     ",
"                                                    ..  ..      ",
"                                                                ",
"                                                                ",
"                                                                ",
"                                                                ",
"                                                                ",
"                                                                ",
"                                                                ",
"                                                                ",
"                                                                ",
"                                                                ",
"                                                                ",
"                                                                ",
"                                                                ",
"                                                                ",
"                                                                ",
"                                                                ",
"  ..  ..                                                        ",
" XooXXooX                                                       ",
".oOO++OOo.                                              ..  ..  ",
".oO@##@Oo.                                             XooXXooX ",
" X+#$$#+X                                             .oOO++OOo.",
" X+#$$#+X                                             .oO@##@Oo.",
".oO@##@Oo.                                             X+#$$#+X ",
".oOO++OOo.                                             X+#$$#+X ",
" XooXXooX                                             .oO@##@Oo.",
"  ..  ..                                              .oOO++OOo.",
"                                                       XooXXooX ",
"                                                        ..  ..  ",
"                                                                ",
"                                                                ",
"                                                                ",
"                                                                ",
"                                                                ",
"                                                                ",
"                                                                ",
"                                                                ",
"    ..  ..                                                      ",
"   XooXXooX                                                     ",
"  .oOO++OOo.                                            ..  ..  ",
"  .oO@##@Oo.                                           XooXXooX ",
"   X+#$$#+X                       ..  ..              .oOO++OOo.",
"   X+#$$#+X                      XooXXooX             .oO@##@Oo.",
"  .oO@##@Oo.                    .oOO++OOo.             X+#$$#+X ",
"  .oOO++OOo.                    .oO@##@Oo.             X+#$$#+X ",
"   XooXXooX                      X+#$$#+X             .oO@##@Oo.",
"    ..  ..                       X+#$$#+X             .oOO++OOo.",
"                                .o%&**&%o.             XooXXooX ",
"                                .=--;;--=.              ..  ..  "
};
