/* XPM */
static char *bc87d93522574f0ba0cd84ac9cec876fegTSXkCYrxyPuxJB[] = {
/* columns rows colors chars-per-pixel */
"64 64 16 1 ",
"  c black",
". c #0F0700",
"X c #020A04",
"o c #1B0D00",
"O c #1C0D00",
"+ c #031308",
"@ c #031408",
"# c #1A8B3B",
"$ c #1C943F",
"% c #1E9D43",
"& c #20A647",
"* c #20A748",
"= c #569969",
"- c #EB910C",
"; c #FABA19",
": c #FFCC20",
/* pixels */
"================================================================",
"================================================================",
"================================================================",
"================================================================",
"================================================================",
"================================================================",
"================================================================",
"================================================================",
"================================================================",
"================================================================",
"================================================================",
"================================================================",
"====================================  XXXX  ====================",
"====================================  XXXX  ====================",
"====================================XX%%%%XX====================",
"====================================XX%%%%XX====================",
"====================================XX****XXXX  ================",
"====================================XX****XXXX  ================",
"====================================XX%%&&++##XX================",
"====================================XX%%&&++##XX================",
"============================  ........++$$@@++XX  ==============",
"============================  ........++$$@@++XX  ==============",
"==========================  OO;;;;;;;;oo++$$**%%XX==============",
"==========================  OO;;;;;;;;oo++$$**%%XX==============",
"==========================..;;;;::::;;;;oo++%%%%XX==============",
"==========================..;;;;::::;;;;oo++%%%%XX==============",
"========================  OO;;::;;::::;;;;..XXXX  ==============",
"========================  OO;;::;;::::;;;;..XXXX  ==============",
"======================  OO;;;;::::;;::::;;..====================",
"======================  OO;;;;::::;;::::;;..====================",
"======================..;;::::::::::::::;;..====================",
"======================..;;::::::::::::::;;..====================",
"====================  OO;;::::::::::::::--..====================",
"====================  OO;;::::::::::::::--..====================",
"====================..;;::;;::::::::::;;OO  ====================",
"====================..;;::;;::::::::::;;OO  ====================",
"==================  OO;;::::;;::::;;;;OO  ======================",
"==================  OO;;::::;;::::;;;;OO  ======================",
"==================..;;::::::::;;;;OO..  ========================",
"==================..;;::::::::;;;;OO..  ========================",
"================  OO;;::::::::;;OO  ============================",
"================  OO;;::::::::;;OO  ============================",
"================..;;::::;;;;;;OO  ==============================",
"================..;;::::;;;;;;OO  ==============================",
"==============  OO;;::;;;;OO..  ================================",
"==============  OO;;::;;;;OO..  ================================",
"==============..;;::::;;oo  ====================================",
"==============..;;::::;;oo  ====================================",
"==============..;;;;;;oo  ======================================",
"==============..;;;;;;oo  ======================================",
"==============  ......  ========================================",
"==============  ......  ========================================",
"================================================================",
"================================================================",
"================================================================",
"================================================================",
"================================================================",
"================================================================",
"================================================================",
"================================================================",
"================================================================",
"================================================================",
"================================================================",
"================================================================"
};
