/* XPM */
static char *_ccf9bbab0594678fd7ed8e122d811a1f1Qz8wU9bo0BKg2U[] = {
/* columns rows colors chars-per-pixel */
"64 64 15 1 ",
"  c black",
". c gray4",
"X c gray7",
"o c #171212",
"O c #131414",
"+ c gray8",
"@ c #181213",
"# c #181314",
"$ c gray11",
"% c gray15",
"& c #BA1C24",
"* c #569969",
"= c gold",
"- c #EEA6B1",
"; c #FFA3B1",
/* pixels */
"****************************************************************",
"****************************************************************",
"****************************************************************",
"****************************************************************",
"****************************************************************",
"****************************************************************",
"**************************  ......  ****************************",
"**************************  ......  ****************************",
"************************  XX======XX  **************************",
"************************  XX======XX  **************************",
"************************..==========..**************************",
"************************..==========..**************************",
"************************..==========..**************************",
"************************..==========..**************************",
"********************  ....++++++XXXX....  **********************",
"********************  ....++++++XXXX....  **********************",
"******************  XX==================XX  ********************",
"******************  XX==================XX  ********************",
"******************XX======================XX********************",
"******************XX======================XX********************",
"****************..==========================..******************",
"****************..==========================..******************",
"**************  XX==========================XX  ****************",
"**************  XX==========================XX  ****************",
"**************..==========++XX..XX++==========..****************",
"**************..==========++XX..XX++==========..****************",
"**************..==========XX==++==XX==========..****************",
"**************..==========XX==++==XX==========..****************",
"************  XX========XX@@==++==##XX==========  **************",
"************  XX========XX@@==++==##XX==========  **************",
"************..==========oo;;==OO==;;@@==========..**************",
"************..==========oo;;==OO==;;@@==========..**************",
"************..==========##;;==XX==;;##==========..**************",
"************..==========##;;==XX==;;##==========..**************",
"************..==========oo;;==XX==;;oo==========..**************",
"************..==========oo;;==XX==;;oo==========..**************",
"************..========XX..##oo..++oo..XX========..**************",
"************..========XX..##oo..++oo..XX========..**************",
"************..======OOXX==============XXXX======..**************",
"************..======OOXX==============XXXX======..**************",
"************..======$$==================$$======..**************",
"************..======$$==================$$======..**************",
"************..====$$======================$$====..**************",
"************..====$$======================$$====..**************",
"************..====++======&&======&&======++====..**************",
"************..====++======&&======&&======++====..**************",
"**************XX==++====--==========--====XX==XX****************",
"**************XX==++====--==========--====XX==XX****************",
"**************  ....======%%==$$==%%======....  ****************",
"**************  ....======%%==$$==%%======....  ****************",
"****************  ..XX======$$..$$======XX..  ******************",
"****************  ..XX======$$..$$======XX..  ******************",
"****************..==..XX==============XX..==..******************",
"****************..==..XX==============XX..==..******************",
"****************  ..    ..............    ..  ******************",
"****************  ..    ..............    ..  ******************",
"****************************************************************",
"****************************************************************",
"****************************************************************",
"****************************************************************",
"****************************************************************",
"****************************************************************",
"****************************************************************",
"****************************************************************"
};
