/* XPM */
static char *b256777861584a7ddb9315d008cae305O6DgydkSONKxL6fb[] = {
/* columns rows colors chars-per-pixel */
"64 64 15 1 ",
"  c black",
". c gray4",
"X c #131313",
"o c #171213",
"O c #131414",
"+ c gray8",
"@ c #181213",
"# c #181314",
"$ c #1D1D1D",
"% c gray15",
"& c #BA1C24",
"* c #569969",
"= c gold",
"- c #EEA6B1",
"; c #FFA3B1",
/* pixels */
"****************************************************************",
"****************************************************************",
"****************************************************************",
"****************************************************************",
"****************************************************************",
"****************************************************************",
"****************************************************************",
"****************************************************************",
"****************************************************************",
"****************************************************************",
"****************************************************************",
"****************************************************************",
"******************................  ****************************",
"******************................  ****************************",
"**************  XX================XX....  **********************",
"**************  XX================XX....  **********************",
"********  ..  ..========================XX..********************",
"********  ..  ..========================XX..********************",
"********..==....++++$$======================XX  ****************",
"********..==....++++$$======================XX  ****************",
"********  ..XX========$$OO====================XX  **************",
"********  ..XX========$$OO====================XX  **************",
"********  XX============XXXX====================..**************",
"********  XX============XXXX====================..**************",
"********..======--========..oo##ooXX============......  ********",
"********..======--========..oo##ooXX============......  ********",
"********..====%%==&&======##;;;;;;@@XX++========++====XX  ******",
"********..====%%==&&======##;;;;;;@@XX++========++====XX  ******",
"********..==$$============oo==========XX========++======..******",
"********..==$$============oo==========XX========++======..******",
"********..==..$$==========..XXXXOO++++..========++======..******",
"********..==..$$==========..XXXXOO++++..========++======..******",
"********..==$$============++==========XX========XX======..******",
"********..==$$============++==========XX========XX======..******",
"********..====%%==&&======oo;;;;;;##XX++========XX====XX  ******",
"********..====%%==&&======oo;;;;;;##XX++========XX====XX  ******",
"********..======--========..oo##@@XX============......  ********",
"********..======--========..oo##@@XX============......  ********",
"********  XX============XXXX====================..**************",
"********  XX============XXXX====================..**************",
"********  ..XX========$$XX====================XX  **************",
"********  ..XX========$$XX====================XX  **************",
"********..==....XX++$$======================XX  ****************",
"********..==....XX++$$======================XX  ****************",
"********  ..  ..========================XX..********************",
"********  ..  ..========================XX..********************",
"**************  XX==================....  **********************",
"**************  XX==================....  **********************",
"******************................  ****************************",
"******************................  ****************************",
"****************************************************************",
"****************************************************************",
"****************************************************************",
"****************************************************************",
"****************************************************************",
"****************************************************************",
"****************************************************************",
"****************************************************************",
"****************************************************************",
"****************************************************************",
"****************************************************************",
"****************************************************************",
"****************************************************************",
"****************************************************************"
};
