/* XPM */
static char *be6b6c3855474733aec2fa3aba9d3637UFJQZB6gJVlGq92H[] = {
/* columns rows colors chars-per-pixel */
"64 64 15 1 ",
"  c black",
". c gray4",
"X c gray7",
"o c #171212",
"O c #131414",
"+ c gray8",
"@ c #181213",
"# c #181314",
"$ c #1D1D1D",
"% c gray15",
"& c #BA1C24",
"* c #569969",
"= c gold",
"- c #EEA6B1",
"; c #FFA3B1",
/* pixels */
"****************************************************************",
"****************************************************************",
"****************************************************************",
"****************************************************************",
"****************************************************************",
"****************************************************************",
"****************************************************************",
"****************************************************************",
"****************************************************************",
"****************************************************************",
"****************************************************************",
"****************************************************************",
"****************************************************************",
"****************************************************************",
"****************************  ................******************",
"****************************  ................******************",
"**********************  ....==================XX  **************",
"**********************  ....==================XX  **************",
"********************..XX========================..  ..  ********",
"********************..XX========================..  ..  ********",
"****************  XX======================$$++XX....==..********",
"****************  XX======================$$++XX....==..********",
"**************  XX====================XX$$========XX..  ********",
"**************  XX====================XX$$========XX..  ********",
"**************..====================XXXX============XX  ********",
"**************..====================XXXX============XX  ********",
"********  ......============XX@@##oo..========--======..********",
"********  ......============XX@@##oo..========--======..********",
"******  XX====XX========++XX##;;;;;;oo======&&==%%====..********",
"******  XX====XX========++XX##;;;;;;oo======&&==%%====..********",
"******..======XX========XX==========++============$$==..********",
"******..======XX========XX==========++============$$==..********",
"******..======++========..++++OOXXXX..==========$$..==..********",
"******..======++========..++++OOXXXX..==========$$..==..********",
"******..======++========XX==========oo============$$==..********",
"******..======++========XX==========oo============$$==..********",
"******  XX====++========++XX@@;;;;;;##======&&==%%====..********",
"******  XX====++========++XX@@;;;;;;##======&&==%%====..********",
"********  ......============XXoo##oo..========--======..********",
"********  ......============XXoo##oo..========--======..********",
"**************..====================XXXX============XX  ********",
"**************..====================XXXX============XX  ********",
"**************  XX====================OO$$========XX..  ********",
"**************  XX====================OO$$========XX..  ********",
"****************  XX======================$$++++....==..********",
"****************  XX======================$$++++....==..********",
"********************..XX========================..  ..  ********",
"********************..XX========================..  ..  ********",
"**********************  ....XX================XX  **************",
"**********************  ....XX================XX  **************",
"****************************  ................******************",
"****************************  ................******************",
"****************************************************************",
"****************************************************************",
"****************************************************************",
"****************************************************************",
"****************************************************************",
"****************************************************************",
"****************************************************************",
"****************************************************************",
"****************************************************************",
"****************************************************************",
"****************************************************************",
"****************************************************************"
};
