/* XPM */
static char *_71598d37d48458192adab916086b5ebWeeIHe4oZi7yEord[] = {
/* columns rows colors chars-per-pixel */
"64 64 15 1 ",
"  c black",
". c gray4",
"X c #121313",
"o c #171213",
"O c #131414",
"+ c gray8",
"@ c #181213",
"# c #191314",
"$ c gray11",
"% c #252525",
"& c #BA1C24",
"* c #569969",
"= c gold",
"- c #EEA6B1",
"; c #FFA3B1",
/* pixels */
"****************************************************************",
"****************************************************************",
"****************************************************************",
"****************************************************************",
"****************************************************************",
"****************************************************************",
"****************************************************************",
"****************************************************************",
"******************  ..    ..............    ..  ****************",
"******************  ..    ..............    ..  ****************",
"******************..==..XX==============XX..==..****************",
"******************..==..XX==============XX..==..****************",
"******************  ..XX======$$..$$======XX..  ****************",
"******************  ..XX======$$..$$======XX..  ****************",
"****************  ....======%%==$$==%%======....  **************",
"****************  ....======%%==$$==%%======....  **************",
"****************XX==XX====--==========--====++==XX**************",
"****************XX==XX====--==========--====++==XX**************",
"**************..====++======&&======&&======++====..************",
"**************..====++======&&======&&======++====..************",
"**************..====$$======================$$====..************",
"**************..====$$======================$$====..************",
"**************..======$$==================$$======..************",
"**************..======$$==================$$======..************",
"**************..======XXXX==============XXOO======..************",
"**************..======XXXX==============XXOO======..************",
"**************..========XX..oo++..oo##..XX========..************",
"**************..========XX..oo++..oo##..XX========..************",
"**************..==========oo;;==XX==;;oo==========..************",
"**************..==========oo;;==XX==;;oo==========..************",
"**************..==========##;;==XX==;;##==========..************",
"**************..==========##;;==XX==;;##==========..************",
"**************..==========@@;;==OO==;;oo==========..************",
"**************..==========@@;;==OO==;;oo==========..************",
"**************  ==========XX##==++==@@XX========XX  ************",
"**************  ==========XX##==++==@@XX========XX  ************",
"****************..==========XX==++==XX==========..**************",
"****************..==========XX==++==XX==========..**************",
"****************..==========++XX..XX++==========..**************",
"****************..==========++XX..XX++==========..**************",
"****************  XX==========================XX  **************",
"****************  XX==========================XX  **************",
"******************..==========================..****************",
"******************..==========================..****************",
"********************XX======================XX******************",
"********************XX======================XX******************",
"********************  XX==================XX  ******************",
"********************  XX==================XX  ******************",
"**********************  ....XXXX++++++....  ********************",
"**********************  ....XXXX++++++....  ********************",
"**************************..==========..************************",
"**************************..==========..************************",
"**************************..==========..************************",
"**************************..==========..************************",
"**************************  XX======XX  ************************",
"**************************  XX======XX  ************************",
"****************************  ......  **************************",
"****************************  ......  **************************",
"****************************************************************",
"****************************************************************",
"****************************************************************",
"****************************************************************",
"****************************************************************",
"****************************************************************"
};
