/* XPM */
static char *xpm_[] = {
/* columns rows colors chars-per-pixel */
"64 64 130 2 ",
"   c black",
".  c #010000",
"X  c #010101",
"o  c #020000",
"O  c #020100",
"+  c #020101",
"@  c #010102",
"#  c #010202",
"$  c #020202",
"%  c #020303",
"&  c #0E0303",
"*  c #0F0303",
"=  c #0F0403",
"-  c #0B0404",
";  c #0A0705",
":  c #0A0706",
">  c #0C0404",
",  c #0D0404",
"<  c #0D0504",
"1  c #0D0505",
"2  c #0E0505",
"3  c #0C0605",
"4  c #0C0606",
"5  c #0D0606",
"6  c #0D0706",
"7  c #0E0606",
"8  c #0E0706",
"9  c #0A0806",
"0  c #0B0806",
"q  c #0B0807",
"w  c #0B0907",
"e  c #0C0806",
"r  c #0C0807",
"t  c #0C0907",
"y  c #0D0907",
"u  c #100403",
"i  c #100404",
"p  c #110404",
"a  c #170C0A",
"s  c #190A0A",
"d  c #1A0B0A",
"f  c #18110E",
"g  c #111111",
"h  c gray7",
"j  c #121213",
"k  c #121313",
"l  c #131313",
"z  c gray8",
"x  c #151515",
"c  c #161616",
"v  c #200807",
"b  c gray14",
"n  c #252525",
"m  c gray15",
"M  c #282828",
"N  c gray16",
"B  c #591F1D",
"V  c #6C1918",
"C  c #6D1A18",
"Z  c #7B1D1B",
"A  c #7C1D1B",
"S  c #7C1D1C",
"D  c #7D1E1C",
"F  c #7E1E1C",
"G  c #5A201E",
"H  c #592B29",
"J  c #533B30",
"K  c #543B30",
"L  c #652321",
"P  c #662322",
"I  c #652523",
"U  c #672422",
"Y  c #662523",
"T  c #682422",
"R  c #712927",
"E  c #732826",
"W  c #732A27",
"Q  c #742826",
"!  c #742927",
"~  c #752927",
"^  c #732A28",
"/  c #742A28",
"(  c #752A28",
")  c #752B28",
"_  c #65302D",
"`  c #66302D",
"'  c #65312F",
"]  c #67302E",
"[  c #66322F",
"{  c #733432",
"}  c #733633",
"|  c #743532",
" . c #743734",
".. c #753734",
"X. c #5E4336",
"o. c #5E4337",
"O. c #5F4337",
"+. c #604437",
"@. c #604438",
"#. c #604538",
"$. c #694B3D",
"%. c #6A4B3E",
"&. c #6B4C3E",
"*. c #6C4D3E",
"=. c #6C4D3F",
"-. c #6D4D3F",
";. c #8A211F",
":. c #8B211F",
">. c #8C211F",
",. c #8D211F",
"<. c #8E211F",
"1. c #8B8B8B",
"2. c gray55",
"3. c #8E8E8E",
"4. c gray56",
"5. c gray62",
"6. c #9F9F9F",
"7. c #A0A0A0",
"8. c gray63",
"9. c #A2A2A2",
"0. c gray64",
"q. c #A4A4A4",
"w. c #B1B1B1",
"e. c #B2B2B2",
"r. c gray70",
"t. c #B4B4B4",
"y. c gray71",
"u. c #B6B6B6",
"i. c #B7B7B7",
"p. c None",
/* pixels */
"p.p.p.p.p.p.p.p.p.p.p.p.p.p.p.p.p.p.p.p.p.p.p.p.p.p.p.p.p.p.p.p.p.p.p.p.p.p.p.p.p.p.p.p.p.p.p.p.p.p.p.p.p.p.p.p.p.p.p.p.p.p.p.p.",
"p.p.p.p.p.p.p.p.p.p.p.p.p.p.p.p.p.p.p.p.p.p.p.p.p.p.p.p.p.p.p.p.p.p.p.p.p.p.p.p.p.p.p.p.p.p.p.p.p.p.p.p.p.p.p.p.p.p.p.p.p.p.p.p.",
"p.p.p.p.p.p.p.p.p.p.p.p.p.p.p.p.p.p.p.p.p.p.p.p.p.p.p.p.                p.p.p.p.p.p.p.p.p.p.p.p.p.p.p.p.p.p.p.p.p.p.p.p.p.p.p.p.",
"p.p.p.p.p.p.p.p.p.p.p.p.p.p.p.p.p.p.p.p.p.p.p.p.p.p.p.p.    * p p u     p.p.p.p.p.p.p.p.p.p.p.p.p.p.p.p.p.p.p.p.p.p.p.p.p.p.p.p.",
"p.p.p.p.p.p.p.p.p.p.p.p.p.p.p.p.p.p.p.p.p.p.p.p.p.p.      * V A A V *       p.p.p.p.p.p.p.p.p.p.p.p.p.p.p.p.p.p.p.p.p.p.p.p.p.p.",
"p.p.p.p.p.p.p.p.p.p.p.p.p.p.p.p.p.p.p.p.p.p.p.p.p.p.    * v F <.<.F v *     p.p.p.p.p.p.p.p.p.p.p.p.p.p.p.p.p.p.p.p.p.p.p.p.p.p.",
"p.p.p.p.p.p.p.p.p.p.p.p.p.p.p.p.p.p.p.p.p.p.p.p.      * V F :.:.<.:.F V *       p.p.p.p.p.p.p.p.p.p.p.p.p.p.p.p.p.p.p.p.p.p.p.p.",
"p.p.p.p.p.p.p.p.p.p.p.p.p.p.p.p.p.p.p.p.p.p.p.p.    * v F <.<.:.:.:.<.F v u o   p.p.p.p.p.p.p.p.p.p.p.p.p.p.p.p.p.p.p.p.p.p.p.p.",
"p.p.p.p.p.p.p.p.p.p.p.p.p.p.p.p.p.p.p.p.          = V F :.:.:.:.:.:.<.:.F V *           p.p.p.p.p.p.p.p.p.p.p.p.p.p.p.p.p.p.p.p.",
"p.p.p.p.p.p.p.p.p.p.p.p.p.p.p.p.p.p.p.p.  o u p p v F <.:.:.<.<.<.:.:.:.<.F d u p u     p.p.p.p.p.p.p.p.p.p.p.p.p.p.p.p.p.p.p.p.",
"p.p.p.p.p.p.p.p.p.p.p.p.p.p.p.p.          u V A Z F :.:.<.:.:.:.:.:.:.<.:.:.F Z A V u           p.p.p.p.p.p.p.p.p.p.p.p.p.p.p.p.",
"p.p.p.p.p.p.p.p.p.p.p.p.p.p.p.p.    u p p v F <.:.<.:.:.<.:.<.:.<.<.:.:.:.:.<.<.<.F v p p u     p.p.p.p.p.p.p.p.p.p.p.p.p.p.p.p.",
"p.p.p.p.p.p.p.p.p.p.p.p.          * V A Z F :.:.:.:.<.:.:.<.:.:.:.:.<.:.:.<.:.:.<.:.F Z Z V *           p.p.p.p.p.p.p.p.p.p.p.p.",
"p.p.p.p.p.p.p.p.p.p.p.p.    u p u d A <.<.<.:.:.<.:.<.:.:.<.:.<.:.<.:.:.:.:.<.:.<.:.<.<.<.F v 2 p u     p.p.p.p.p.p.p.p.p.p.p.p.",
"p.p.p.p.p.p.p.p.          * V A Z F :.:.:.:.:.<.:.<.:.:.:.:.<.:.:.:.<.<.<.<.:.:.:.:.:.:.:.:.S Z A V u           p.p.p.p.p.p.p.p.",
"p.p.p.p.p.p.p.p.    * p p v F <.<.<.:.:.<.:.:.<.:.:.:.<.<.:.:.:.<.:.:.:.:.:.:.<.:.<.<.:.:.<.<.:.<.F v p p u     p.p.p.p.p.p.p.p.",
"p.p.p.p.          = V F A F :.<.<.<.<.<.:.<.<.:.<.<.<.<.:.<.<.<.:.<.<.<.<.:.<.<.<.:.<.<.<.:.<.<.<.:.F Z F C u           p.p.p.p.",
"p.p.p.p.          = V F F A Z Z Z Z Z Z Z Z Z Z Z Z Z Z Z Z Z Z Z Z Z Z Z Z Z Z Z Z Z Z Z Z Z Z Z Z Z F A V =           p.p.p.p.",
"p.p.                * u = 2 = u = u u p = p u u 2 u u = = = u 2 u u p 2 = u p u = u 2 u = u u u = 2 * u p 2                 p.p.",
"p.p.            2 2 2 2 2 2 e 2 2 ; 2 e 2 q 2 2 e 2 2 2 2 e 2 2 2 2 2 ; 2 2 ; 2 e 2 2 2 e 2 ; = 2 2 2 2 2 2 e 2             p.p.",
"p.p.p.p.p.p.  2 B I _ [ [ [ [ [ I I [ ' ' ' ' ' [ [ I I ' ' [ [ ' ' ' ' Y I ' [ [ ' ' ' ' ' L I I I [ [ [ ' [ H e   p.p.p.p.p.p.",
"p.p.p.p.p.p.  2 I ~ } } } } } } / E }  . . . . .} } E ^ }  . . . . .} } ) ^ } } } .. . . .} ^ E ~ E }  .} } } [ e   p.p.p.p.p.p.",
"p.p.p.p.p.p.  2 I E ^ ^ ^ ^ ^ ^ E E E ^ ^ ^ ^ ^ ^ ^ E E E E ^ ^ ^ ^ ^ ^ E E E ^ ^ ^ ^ ^ ^ ^ E E E E ^ ^ E ^ ^ I p   p.p.p.p.p.p.",
"p.p.p.p.p.p.  2 I ^ ^ ^ ^ E E E ^ ^ ^ ^ ^ ^ ^ ^ E E ^ ^ ^ ^ ^ ^ ^ E E E ^ ^ ^ ^ ^ ^ E E E ^ ^ ^ E ^ E E ^ ^ / I 2   p.p.p.p.p.p.",
"p.p.p.p.p.p.  8 [ ..} } } } E W } } } } } } } } E W } } } } } } } } W W } } } } } } E W } } } } } } ^ E { } .._ 2   p.p.p.p.p.p.",
"p.p.p.p.p.p.  2 [ } } } } } E W } } } } }  .} } E W } } }  .} } } } W E } } } } } } E E } } }  .} } E ^ { } } _ 8   p.p.p.p.p.p.",
"p.p.p.p.p.p.  2 I / ^ ^ ^ W E E E ^ ~ ^ E E ^ E ~ E E / E E ^ ^ ~ E E E ~ E ~ E E ^ E E ~ ~ E ^ E ^ E E ^ ^ / I 2   p.p.p.p.p.p.",
"p.p.p.p.p.p.  2 I / E E W ^ ^ ^ ^ E P P L P I P P L P I L P I L I P I P I L P I P P I L P I E ^ ^ E E E E ^ ^ I 2   p.p.p.p.p.p.",
"p.p.p.p.p.p.  2 _ } E ^ } } } }  .[ d 2 2 - 2 2 = - 2 2 = ; 2 2 2 2 2 2 = 2 2 = 2 * ; 2 = d [ .. .} E E { } .._ 8   p.p.p.p.p.p.",
"p.p.p.p.p.p.  2 _ } ^ E } } } } } [ 2   9 9 e 9 e 9 e 9 e e 8 9 9 e 9 9 9 9 9 9 9 9 2 9   2 [ ..} } W W } } } [ 8   p.p.p.p.p.p.",
"p.p.p.p.p.p.  2 P / E E E ^ ^ ^ ~ I = 9 J O.O.O.o.o.o.o.o.o.o.o.o.o.o.o.o.o.o.o.O.O.O.J ; ; I ) ^ W E E ^ ^ ^ Y 2   p.p.p.p.p.p.",
"p.p.p.p.p.p.  2 I ~ ^ ^ E ^ ^ ^ I G a f @.-.-.*.-.*.*.*.-.*.*.*.-.-.*.*.*.*.-.-.-.-.-.@.f a G I E ^ ^ ^ ^ ^ / Y 2   p.p.p.p.p.p.",
"p.p.p.p.p.p.  2 [ ..} } } } } [ d a K @.$.&.&.&.$.=.$.*.*.*.-.-.*.*.*.*.-.*.*.*.=.$.=.$.@.K a d [ ..} } } } .._ 2   p.p.p.p.p.p.",
"p.p.p.p.p.p.  e [ ..} } } } } [ 2 9 O.-.&.&.&.&.=.$.*.$.*.*.o.o.o.o.o.+.*.*.*.$.$.=.$.=.=.@.9 2 _ } } } } } } _ 2   p.p.p.p.p.p.",
"p.p.p.p.p.p.  2 L E ^ ^ E ^ ~ I 2 9 o.-.&.&.&.&.$.=.$.*.*.o.f e e e t f o.=.$.*.=.$.*.$.-.O.9 > Y / ^ ^ ^ ^ ^ I 2   p.p.p.p.p.p.",
"p.p.p.p.p.p.  2 I ^ ^ E E E ~ I 2 q o.-.&.&.&.&.=.$.*.*.o.J 9         9 J o.$.$.$.=.$.*.-.O.e 2 Y ^ ^ ^ ^ ^ / I 2   p.p.p.p.p.p.",
"p.p.p.p.p.p.  2 [ } } } W W } _ 2 q o.*.&.&.&.&.&.&.=.@.f 9             9 f @.=.*.*.$.$.=.o.8 2 _ } } } } } } [ 2   p.p.p.p.p.p.",
"p.p.p.p.p.p.  2 [ } } } W E } [ 2 q o.*.&.&.&.&.&.$.@.K 9   l l     z j   q J @.$.*.*.*.=.o.q 9 [ } } } } } .._ 8   p.p.p.p.p.p.",
"p.p.p.p.p.p.  2 I / E E E E E I 2 8 o.*.=.&.*.$.=.o.f ;   j 2.2.z j 2.2.j   q f o.*.*.*.=.o.q 2 Y ^ ^ ^ ^ ^ / I 2   p.p.p.p.p.p.",
"p.p.p.p.p.p.  2 I ^ ^ ^ ^ ^ ^ I ; q o.*.$.=.$.*.-.o.8 # l N q.8.z z 8.q.N j # 8 X.*.*.*.=.o.8 2 I ^ E E ^ ^ / I 2   p.p.p.p.p.p.",
"p.p.p.p.p.p.  8 [ } } } } } ..[ 2 q o.*.*.*.*.$.*.o.e l 2.q.t.7.z z 8.t.q.1.z e o.*.*.*.*.o.9 2 [ } ^ E } } .._ 8   p.p.p.p.p.p.",
"p.p.p.p.p.p.  8 [  .} } } } } [ 8 8 o.*.*.*.*.=.*.o.e z 2.8.6.1.j j 1.7.8.1.l e o.-.*.*.*.o.e e [ } E ^ { } } _ 8   p.p.p.p.p.p.",
"p.p.p.p.p.p.  2 I ~ ^ ^ E ^ ^ I ; 8 o.*.=.$.$.=.=.@.8 o l z z l     j z z j % e O.*.*.$.-.o.9 2 I ~ E E E ^ / I 2   p.p.p.p.p.p.",
"p.p.p.p.p.p.  2 I E E E E ^ ^ I 2 q o.*.$.=.$.$.@.K e   l l z z c z z z z z   e J O.$.*.-.o.e 2 I E ^ ^ ^ ^ ^ I 2   p.p.p.p.p.p.",
"p.p.p.p.p.p.  2 P E } } } } } _ 8 8 o.*.=.$.=.@.l 9   j 1.7.7.8.7.6.8.7.7.1.j   ; f o.-.-.o.e e [ } } } } } .._ 8   p.p.p.p.p.p.",
"p.p.p.p.p.p.  2 P / } } } } ..[ q q o.*.$.=.*.O.8   j N 8.y.8.8.r.t.8.8.y.8.N j   q o.*.*.o.e e _ } } } } } } [ 8   p.p.p.p.p.p.",
"p.p.p.p.p.p.  2 P E E ^ ^ ^ / I 2 q o.*.*.$.*.O.e z 2.8.t.8.m m 0.0.m m 8.t.8.1.j 8 o.*.*.o.9 2 I / ~ ^ ^ ^ ^ Y 2   p.p.p.p.p.p.",
"p.p.p.p.p.p.  2 I ^ ^ ^ ^ ^ ^ I 2 q o.*.$.*.*.O.9 z 7.i.y.8.m b 4.4.b m 8.y.i.7.z q o.=.*.o.e 2 I ^ ^ ^ ^ ^ E P 2   p.p.p.p.p.p.",
"p.p.p.p.p.p.  8 _ ..} } } } .._ 2 8 o.=.*.*.*.o.9 z 8.i.t.e.8.4.b m 4.0.e.y.y.5.c 9 o.*.=.o.q 2 [ } } } } } E P 2   p.p.p.p.p.p.",
"p.p.p.p.p.p.  8 _ ..} } } } } _ e e o.=.*.*.=.o.e j 2.8.e.t.y.8.m m 8.y.t.e.8.1.z e o.=.=.o.8 9 [ } } } } } / I 2   p.p.p.p.p.p.",
"p.p.p.p.p.p.  2 Y ^ ^ ^ ^ ^ / Y 2 9 o.*.*.$.=.o.8   j M 8.i.y.r.8.8.r.y.y.8.M j   8 o.=.=.o.8 2 I / E ^ ^ W E P 2   p.p.p.p.p.p.",
"p.p.p.p.p.p.  2 Y ^ ^ ^ ^ ^ E P 2 9 o.*.*.$.o.J 9   j m 4.6.5.5.7.8.5.5.7.4.b g % q J o.*.o.q 2 I / E E E E ~ I 2   p.p.p.p.p.p.",
"p.p.p.p.p.p.  8 [  .} } } { ^ P ; e o.*.*.o.f 9   l 2.4.m l z z z z z z j m 4.4.l   9 f @.o.e 2 [ } W W } } } [ 2   p.p.p.p.p.p.",
"p.p.p.p.p.p.  8 [  .} } } { ^ P 2 8 o.-.*.o.8   l N 0.0.M l z z z z z z j M 8.q.N l   9 O.O.8 e _ } W E } } } [ 2   p.p.p.p.p.p.",
"p.p.p.p.p.p.  2 L E ^ ^ ^ ^ E P 2 9 o.*.*.o.e l 1.8.r.e.8.5.5.5.5.5.5.5.5.8.e.e.8.2.z e O.O.9 2 I ~ E E E ^ ^ I 2   p.p.p.p.p.p.",
"p.p.p.p.p.p.  2 I ^ ^ ^ ^ E E P 2 y o.*.*.o.e c 7.i.t.t.y.y.y.y.y.y.y.y.y.y.y.y.i.8.z 9 @.o.e 2 I ~ E ^ ^ ^ / I 2   p.p.p.p.p.p.",
"p.p.p.p.p.p.  2 [ } } } } { E I 2 9 o.*.*.o.9 z 5.y.t.t.t.t.t.t.t.t.t.t.t.t.t.t.y.5.z e o.@.q e [  .} } } } } [ 2   p.p.p.p.p.p.",
"p.p.p.p.p.p.  2 [ } } } } } ~ L 2 e o.-.*.o.e z 5.y.t.t.t.t.t.y.t.t.t.t.t.t.t.t.y.5.z 9 @.o.9 2 '  .}  .} } } [ 8   p.p.p.p.p.p.",
"p.p.p.p.p.p.  2 I ~ E ~ ~ E ~ P 2 9 @.=.-.o.e z 7.i.y.y.y.y.y.y.y.y.y.y.y.y.y.y.i.7.z e +.+.e 2 I ~ E E ~ ^ / Y 2   p.p.p.p.p.p.",
"p.p.p.p.p.p.  2 G P I I I L P B 2 9 J o.o.J 9 l 1.7.5.5.5.5.5.6.5.5.5.5.5.5.5.5.7.2.z 9 K K 9 2 B I L P P P P G 2   p.p.p.p.p.p.",
"p.p.p.p.p.p.    2 2 2 2 2 2 2 2 %   8 y y 8   % l z c c c c c c c c c c z c c c c z %   q 8     - 2 2 2 2 2 2 2     p.p.p.p.p.p.",
"p.p.p.p.p.p.                                                                                                        p.p.p.p.p.p.",
"p.p.p.p.p.p.p.p.p.p.p.p.p.p.p.p.p.p.p.p.p.p.p.p.p.p.p.p.p.p.p.p.p.p.p.p.p.p.p.p.p.p.p.p.p.p.p.p.p.p.p.p.p.p.p.p.p.p.p.p.p.p.p.p.",
"p.p.p.p.p.p.p.p.p.p.p.p.p.p.p.p.p.p.p.p.p.p.p.p.p.p.p.p.p.p.p.p.p.p.p.p.p.p.p.p.p.p.p.p.p.p.p.p.p.p.p.p.p.p.p.p.p.p.p.p.p.p.p.p."
};
