/* XPM */
static char *aa6e61c135ea49c0ac6646633cd7a16dnA9Y58fg7JA8EMGt[] = {
/* columns rows colors chars-per-pixel */
"64 64 5 1 ",
"  c #732A28",
". c black",
"X c #ED1C24",
"o c #FFA3B1",
"O c white",
/* pixels */
"                                                                ",
"                                                                ",
"                                                                ",
"                                                                ",
"                                                                ",
"                                                                ",
"                                                                ",
"                                                                ",
"                                                                ",
"                                                                ",
"                                                                ",
"                                                                ",
"                                                                ",
"                                                                ",
"              XXXXXXXXXXXX            XXXXXXXXXXXX              ",
"              XXXXXXXXXXXX            XXXXXXXXXXXX              ",
"            XXXXXXXXXXXXXXXXXX    XXXXXXXXXXXXXXXXXX            ",
"            XXXXXXXXXXXXXXXXXX    XXXXXXXXXXXXXXXXXX            ",
"            XXXXXXXXXXXXXXXXXX    XXXXXXXXXXXXXXXXXX            ",
"            XXXXXXXXXXXXXXXXXX    XXXXXXXXXXXXXXXXXX            ",
"            XXXXXXOOOOXXXXXXXXXXXXXXXXXXXXXXXXXXXXXX            ",
"            XXXXXXOOOOXXXXXXXXXXXXXXXXXXXXXXXXXXXXXX            ",
"            XXXXXXOOXXXXXXXXXXXXXXXXXXXXXXXXXXXXXXXX            ",
"            XXXXXXOOXXXXXXXXXXXXXXXXXXXXXXXXXXXXXXXX            ",
"            XXXXXXOOXXXXXXXXXXXXXXXXXXXXXXXXXXXXXXXX            ",
"            XXXXXXOOXXXXXXXXXXXXXXXXXXXXXXXXXXXXXXXX            ",
"            XXXXXXXXXXXXXXXXXXXXXXXXXXXXXXXXXXXXXXXX            ",
"            XXXXXXXXXXXXXXXXXXXXXXXXXXXXXXXXXXXXXXXX            ",
"              XXXXXXXXXXXXXXXXXXXXXXXXXXXXXXXXXXXX              ",
"              XXXXXXXXXXXXXXXXXXXXXXXXXXXXXXXXXXXX              ",
"              XXXXXXXXXXXX..XXXXXX..XXXXXXXXXXXXXX              ",
"              XXXXXXXXXXXX..XXXXXX..XXXXXXXXXXXXXX              ",
"                XXXXXXXXooXXXXXXXXXXooXXXXXXXXXX                ",
"                XXXXXXXXooXXXXXXXXXXooXXXXXXXXXX                ",
"                XXXXXXXXXX..XX..XX..XXXXXXXXXXXX                ",
"                XXXXXXXXXX..XX..XX..XXXXXXXXXXXX                ",
"                  XXXXXXXXXX..XX..XXXXXXXXXXXX                  ",
"                  XXXXXXXXXX..XX..XXXXXXXXXXXX                  ",
"                    XXXXXXXXXXXXXXXXXXXXXXXX                    ",
"                    XXXXXXXXXXXXXXXXXXXXXXXX                    ",
"                    XXXXXXXXXXXXXXXXXXXXXXXX                    ",
"                    XXXXXXXXXXXXXXXXXXXXXXXX                    ",
"                      XXXXXXXXXXXXXXXXXXXX                      ",
"                      XXXXXXXXXXXXXXXXXXXX                      ",
"                        XXXXXXXXXXXXXXXX                        ",
"                        XXXXXXXXXXXXXXXX                        ",
"                            XXXXXXXX                            ",
"                            XXXXXXXX                            ",
"                              XXXX                              ",
"                              XXXX                              ",
"                                                                ",
"                                                                ",
"                                                                ",
"                                                                ",
"                                                                ",
"                                                                ",
"                                                                ",
"                                                                ",
"                                                                ",
"                                                                ",
"                                                                ",
"                                                                ",
"                                                                ",
"                                                                "
};
