/* XPM */
static char *_c7b5c3fe57e4c92998746ab6ebe70236DicVFQsNU1EWJOD[] = {
/* columns rows colors chars-per-pixel */
"64 64 3 1 ",
"  c None",
". c black",
"X c #2F3699",
/* pixels */
"                                                                ",
"                                                                ",
"                                                                ",
"                                                                ",
"                                                                ",
"                                                                ",
"                                                                ",
"                                                                ",
"                                                                ",
"                                                                ",
"                                                                ",
"                                                                ",
"                                                                ",
"                                                                ",
"              XXXXXXXXXXXX            XXXXXXXXXXXX              ",
"              XXXXXXXXXXXX            XXXXXXXXXXXX              ",
"            XXXXXXXXXXXXXXXXXX    XXXXXXXXXXXXXXXXXX            ",
"            XXXXXXXXXXXXXXXXXX    XXXXXXXXXXXXXXXXXX            ",
"            XXXXXXXXXXXXXXXXXX    XXXXXXXXXXXXXXXXXX            ",
"            XXXXXXXXXXXXXXXXXX    XXXXXXXXXXXXXXXXXX            ",
"            XXXXXXXXXXXXXXXXXXXXXXXXXXXXXXXXXXXXXXXX            ",
"            XXXXXXXXXXXXXXXXXXXXXXXXXXXXXXXXXXXXXXXX            ",
"            XXXXXXXXXXXXXXXXXXXXXXXXXXXXXXXXXXXXXXXX            ",
"            XXXXXXXXXXXXXXXXXXXXXXXXXXXXXXXXXXXXXXXX            ",
"            XXXXXXXXXXXXXXXXXXXXXXXXXXXXXXXXXXXXXXXX            ",
"            XXXXXXXXXXXXXXXXXXXXXXXXXXXXXXXXXXXXXXXX            ",
"            XXXXXXXXXXXXXXXXXXXXXXXXXXXXXXXXXXXXXXXX            ",
"            XXXXXXXXXXXXXXXXXXXXXXXXXXXXXXXXXXXXXXXX            ",
"              XXXXXXXXXX..XX..XX..XX..XXXXXXXXXXXX              ",
"              XXXXXXXXXX..XX..XX..XX..XXXXXXXXXXXX              ",
"              XXXXXXXXXXXX..XXXXXX..XXXXXXXXXXXXXX              ",
"              XXXXXXXXXXXX..XXXXXX..XXXXXXXXXXXXXX              ",
"                XXXXXXXX..XX..XX..XX..XXXXXXXXXX                ",
"                XXXXXXXX..XX..XX..XX..XXXXXXXXXX                ",
"                XXXXXXXXXXXXXXXXXXXXXXXXXXXXXXXX                ",
"                XXXXXXXXXXXXXXXXXXXXXXXXXXXXXXXX                ",
"                  XXXXXXXXXXXX..XXXXXXXXXXXXXX                  ",
"                  XXXXXXXXXXXX..XXXXXXXXXXXXXX                  ",
"                    XXXXXXXX..XX..XXXXXXXXXX                    ",
"                    XXXXXXXX..XX..XXXXXXXXXX                    ",
"                    XXXXXXXXXXXXXXXXXXXXXXXX                    ",
"                    XXXXXXXXXXXXXXXXXXXXXXXX                    ",
"                      XXXXXXXXXXXXXXXXXXXX                      ",
"                      XXXXXXXXXXXXXXXXXXXX                      ",
"                        XXXXXXXXXXXXXXXX                        ",
"                        XXXXXXXXXXXXXXXX                        ",
"                            XXXXXXXX                            ",
"                            XXXXXXXX                            ",
"                              XXXX                              ",
"                              XXXX                              ",
"                                                                ",
"                                                                ",
"                                                                ",
"                                                                ",
"                                                                ",
"                                                                ",
"                                                                ",
"                                                                ",
"                                                                ",
"                                                                ",
"                                                                ",
"                                                                ",
"                                                                ",
"                                                                "
};
