/* XPM */
static char *xpm_[] = {
/* columns rows colors chars-per-pixel */
"64 64 73 1 ",
"  c black",
". c #010000",
"X c #010101",
"o c #020101",
"O c gray1",
"+ c #101010",
"@ c #111111",
"# c #111212",
"$ c gray7",
"% c #131313",
"& c gray8",
"* c #141514",
"= c #151515",
"- c #161414",
"; c #161616",
": c #1A1011",
"> c #1A1012",
", c #1D1214",
"< c #1C1314",
"1 c #1E1214",
"2 c gray14",
"3 c #252525",
"4 c gray15",
"5 c #272626",
"6 c #282828",
"7 c gray16",
"8 c #312729",
"9 c #C67E89",
"0 c #8B8B8B",
"q c gray55",
"w c #8D8D8D",
"e c #8E8E8E",
"r c gray56",
"t c gray62",
"y c #9E9F9F",
"u c #9F9F9F",
"i c #A79E9F",
"p c #A99FA0",
"a c #9FA0A0",
"s c #A0A0A0",
"d c #A0A1A1",
"f c gray63",
"g c #A1A2A2",
"h c #A2A2A2",
"j c #A3A2A2",
"k c gray64",
"l c #A4A4A4",
"z c #AAA0A2",
"x c #B1B1B1",
"c c #B2B2B2",
"v c gray70",
"b c #B3B4B4",
"n c #B4B4B4",
"m c #B5B4B4",
"M c gray71",
"N c #B6B6B6",
"B c #B7B7B7",
"V c #BBB1B2",
"C c #BCB2B4",
"Z c #BDB3B5",
"A c #BEB3B5",
"S c #BFB4B5",
"D c #DA929D",
"F c #E18F9C",
"G c #E3909D",
"H c #DD95A0",
"J c #C0B5B6",
"K c #EDA4AF",
"L c #EFA7B2",
"P c #F8A6B3",
"I c #FAA7B4",
"U c #FAA8B4",
"Y c None",
/* pixels */
"YYYYYYYYYYYYYYYYYYYYYYYYYYYYYYYYYYYYYYYYYYYYYYYYYYYYYYYYYYYYYYYY",
"YYYYYYYYYYYYYYYYYYYYYYYYYYYYYYYYYYYYYYYYYYYYYYYYYYYYYYYYYYYYYYYY",
"YYYYYYYYYYYYYYYYYYYYYYYYYYYYYYYYYYYYYYYYYYYYYYYYYYYYYYYYYYYYYYYY",
"YYYYYYYYYYYYYYYYYYYYYYYYYYYYYYYYYYYYYYYYYYYYYYYYYYYYYYYYYYYYYYYY",
"YYYYYYYYYYYYYYYYYYYYYYYYYYYYYYYYYYYYYYYYYYYYYYYYYYYYYYYYYYYYYYYY",
"YYYYYYYYYYYYYYYYYYYYYYYYYYYYYYYYYYYYYYYYYYYYYYYYYYYYYYYYYYYYYYYY",
"YYYYYYYYYYYYYYYYYYYYYYYYYYYYYYYYYYYYYYYYYYYYYYYYYYYYYYYYYYYYYYYY",
"YYYYYYYYYYYYYYYYYYYYYYYYYYYYYYYYYYYYYYYYYYYYYYYYYYYYYYYYYYYYYYYY",
"YYYYYYYYYYYYYYYYYYYYYYYYYYYYYYYYYYYYYYYYYYYYYYYYYYYYYYYYYYYYYYYY",
"YYYYYYYYYYYYYYYYYYYYYYYYYYYYYYYYYYYYYYYYYYYYYYYYYYYYYYYYYYYYYYYY",
"YYYYYYYYYYYYYYYYYYYYYYYYYYYYYYYYYYYYYYYYYYYYYYYYYYYYYYYYYYYYYYYY",
"YYYYYYYYYYYYYYYYYYYYYYYYYYYYYYYYYYYYYYYYYYYYYYYYYYYYYYYYYYYYYYYY",
"YYYYYYYYYYYYYYYYYYYYYYYYYYYYYYYYYYYYYYYYYYYYYYYYYYYYYYYYYYYYYYYY",
"YYYYYYYYYYYYYYYYYYYYYYYYYYYYYYYYYYYYYYYYYYYYYYYYYYYYYYYYYYYYYYYY",
"YYYYYYYYYYYYYYYYYYYYYYYYYYYY                  YYYYYYYYYYYYYYYYYY",
"YYYYYYYYYYYYYYYYYYYYYYYYYYYY O%;;;;;;;;;;;;;;;YYYYYYYYYYYYYYYYYY",
"YYYYYYYYYYYYYYYYYYYYYY       %0auuuuuuuuuuuuuq;   YYYYYYYYYYYYYY",
"YYYYYYYYYYYYYYYYYYYYYY O%;;;;6hBxBxBxBxBxBxBBh6%O YYYYYYYYYYYYYY",
"YYYYYYYYYYYYYYYYYYYY   ;0suuuixbBxBxBxBxxBxBBxh0%       YYYYYYYY",
"YYYYYYYYYYYYYYYYYYYY;;;6hBxBvBcbxBxBxBxBxxhuuuh0%  O%;  YYYYYYYY",
"YYYYYYYYYYYYYYYY   %quuhxnnnnnnnBxBxBxBxBh6%%;%%   %qq% YYYYYYYY",
"YYYYYYYYYYYYYYYY  %5hBxBnnnnnnnnxBxBxxhuhq5%%%%;;; %rr; YYYYYYYY",
"YYYYYYYYYYYYYY   %0hxxBxnnnnnnnnxBBxBh6;%5qauutuu0% ;%  YYYYYYYY",
"YYYYYYYYYYYYYY  %6hBBBxBnnnnnnnvBxBxh0% +6hBbBxBBh6%    YYYYYYYY",
"YYYYYYYYYYYYYY %0hxxBxBxBxBxnBvvxBBh6% %0hxBxBxBBxh0%   YYYYYYYY",
"YYYYYYYYYYYYYY ;hBxBxBxBxBBxhuuuuuh0% %6hBxxBvCCxxBh6;  YYYYYYYY",
"YYYYYYYY       ;uBBxBxBxBxBh6&;;%;%% %0hxBBxvZLLZBBxh0% YYYYYYYY",
"YYYYYYYY  ;;;% ;uBxBxBxxhuu0% :1>,>> ;uBxBxxhiKKiaxxBh; YYYYYYYY",
"YYYYYY   ;0uu0%%uxxBxBBh6%%% :9GFFG9:&uBBxBh55zz55hBBu; YYYYYYYY",
"YYYYYY  %6hBBu;%uBBxBxxu; %;%8DPPPUD<;unxBBu45hh55qhxu; YYYYYYYY",
"YYYYYY %0hxBBt%%uBxBxBxu%%0hahVZZZJi&%uxBxBxaaxxkr55ha; YYYYYYYY",
"YYYYYY ;uBBxBu%%txBxBxBu%%0hhuuuuuu0%%uBbbbbbBBxk0+%uh; YYYYYYYY",
"YYYYYY ;uBBxxu%%uBxBxBxu; %&&&&%%%%% ;uBxBxBxBBu5% ;uh; YYYYYYYY",
"YYYYYY ;uBxBBu;;ucBxBxBu; %%&&&%&&%% ;uvBbBxBxBh6% ;uh; YYYYYYYY",
"YYYYYY ;uBBxBu%%uxxBxBBu;%qhsauuuuu0%%uvbbbxbbxxkq%%uu; YYYYYYYY",
"YYYYYY ;0hxxxt;%uBBxBxxu%%0hshCJCJJi%%uBbbbxhhxnkq55hh; YYYYYYYY",
"YYYYYY O%5hBBu;%uBxBBxBu% %;;8DIPPKD>&ibnnBp55hh54qhbu; YYYYYYYY",
"YYYYYY   %0ah0%%txBxxBBu6%%% :9GFFFD>&uBnnnh55zz55aBBu; YYYYYYYY",
"YYYYYYYY  %;;% ;uBxBBxbxaai0% :>::>: ;aBbbbxapKKpaxBBu; YYYYYYYY",
"YYYYYYYY       ;ucBxxBbbBbBa6&;%%%%% %0hxbBbbZLLZbbxh0% YYYYYYYY",
"YYYYYYYYYYYYYY ;uBBxBxBxBxBxhuuuiuu0% %6hBxBxBVZBxBh6;O YYYYYYYY",
"YYYYYYYYYYYYYY ;0hxxxBxBxBxBBxxBxBBh6% %0hxxBxxbxxh0%   YYYYYYYY",
"YYYYYYYYYYYYYY O%6hBBxBxBxBxxBxBBxxxh0% %6hBbBxBBh6%    YYYYYYYY",
"YYYYYYYYYYYYYY   %0hxBxBxBxBBxBxxBxBBh6%%5quuuuuhq% %%  YYYYYYYY",
"YYYYYYYYYYYYYYYY  %6hBBcBxBxxBxBBxBxBxuuuq5%%%;%;% %rr; YYYYYYYY",
"YYYYYYYYYYYYYYYY   ;0uuhxxxBBxBxxBxBBxBnBh6%%;%%   %qq% YYYYYYYY",
"YYYYYYYYYYYYYYYYYYYY;;%6hBBxxBxBBxBxxBxBBxauuuhq%  O;%  YYYYYYYY",
"YYYYYYYYYYYYYYYYYYYY   %0uuuuhxBxBxBBxBxxBBxBxh0%       YYYYYYYY",
"YYYYYYYYYYYYYYYYYYYYYY  ;;;;;6hBxBxBxBxBxBxBBh6%O YYYYYYYYYYYYYY",
"YYYYYYYYYYYYYYYYYYYYYY       ;0uuuuuuuuuuuuuuq;   YYYYYYYYYYYYYY",
"YYYYYYYYYYYYYYYYYYYYYYYYYYYY  %;;;;;;;;;;;;;;;YYYYYYYYYYYYYYYYYY",
"YYYYYYYYYYYYYYYYYYYYYYYYYYYY                  YYYYYYYYYYYYYYYYYY",
"YYYYYYYYYYYYYYYYYYYYYYYYYYYYYYYYYYYYYYYYYYYYYYYYYYYYYYYYYYYYYYYY",
"YYYYYYYYYYYYYYYYYYYYYYYYYYYYYYYYYYYYYYYYYYYYYYYYYYYYYYYYYYYYYYYY",
"YYYYYYYYYYYYYYYYYYYYYYYYYYYYYYYYYYYYYYYYYYYYYYYYYYYYYYYYYYYYYYYY",
"YYYYYYYYYYYYYYYYYYYYYYYYYYYYYYYYYYYYYYYYYYYYYYYYYYYYYYYYYYYYYYYY",
"YYYYYYYYYYYYYYYYYYYYYYYYYYYYYYYYYYYYYYYYYYYYYYYYYYYYYYYYYYYYYYYY",
"YYYYYYYYYYYYYYYYYYYYYYYYYYYYYYYYYYYYYYYYYYYYYYYYYYYYYYYYYYYYYYYY",
"YYYYYYYYYYYYYYYYYYYYYYYYYYYYYYYYYYYYYYYYYYYYYYYYYYYYYYYYYYYYYYYY",
"YYYYYYYYYYYYYYYYYYYYYYYYYYYYYYYYYYYYYYYYYYYYYYYYYYYYYYYYYYYYYYYY",
"YYYYYYYYYYYYYYYYYYYYYYYYYYYYYYYYYYYYYYYYYYYYYYYYYYYYYYYYYYYYYYYY",
"YYYYYYYYYYYYYYYYYYYYYYYYYYYYYYYYYYYYYYYYYYYYYYYYYYYYYYYYYYYYYYYY",
"YYYYYYYYYYYYYYYYYYYYYYYYYYYYYYYYYYYYYYYYYYYYYYYYYYYYYYYYYYYYYYYY",
"YYYYYYYYYYYYYYYYYYYYYYYYYYYYYYYYYYYYYYYYYYYYYYYYYYYYYYYYYYYYYYYY"
};
