/* XPM */
static char *xpm_[] = {
/* columns rows colors chars-per-pixel */
"64 64 73 1 ",
"  c black",
". c #010000",
"X c #010101",
"o c #020101",
"O c gray1",
"+ c #101010",
"@ c #111111",
"# c #111212",
"$ c gray7",
"% c #131313",
"& c gray8",
"* c #141514",
"= c #151515",
"- c #161414",
"; c #161616",
": c #1A1011",
"> c #1A1012",
", c #1D1214",
"< c #1C1314",
"1 c #1E1214",
"2 c gray14",
"3 c #252525",
"4 c gray15",
"5 c #272626",
"6 c #282828",
"7 c gray16",
"8 c #312729",
"9 c #C67E89",
"0 c #8B8B8B",
"q c gray55",
"w c #8D8D8D",
"e c #8E8E8E",
"r c gray56",
"t c gray62",
"y c #9E9F9F",
"u c #9F9F9F",
"i c #A79E9F",
"p c #A99FA0",
"a c #9FA0A0",
"s c #A0A0A0",
"d c #A0A1A1",
"f c gray63",
"g c #A1A2A2",
"h c #A2A2A2",
"j c #A3A2A2",
"k c gray64",
"l c #A4A4A4",
"z c #AAA0A2",
"x c #B1B1B1",
"c c #B2B2B2",
"v c gray70",
"b c #B3B4B4",
"n c #B4B4B4",
"m c #B5B4B4",
"M c gray71",
"N c #B6B6B6",
"B c #B7B7B7",
"V c #BBB1B2",
"C c #BCB2B4",
"Z c #BDB3B5",
"A c #BEB3B5",
"S c #BFB4B5",
"D c #DA929D",
"F c #E18F9C",
"G c #E3909D",
"H c #DD95A0",
"J c #C0B5B6",
"K c #EDA4AF",
"L c #EFA7B2",
"P c #F8A6B3",
"I c #FAA7B4",
"U c #FAA8B4",
"Y c None",
/* pixels */
"YYYYYYYYYYYYYYYYYYYYYYYYYYYYYYYYYYYYYYYYYYYYYYYYYYYYYYYYYYYYYYYY",
"YYYYYYYYYYYYYYYYYYYYYYYYYYYYYYYYYYYYYYYYYYYYYYYYYYYYYYYYYYYYYYYY",
"YYYYYYYYYYYYYYYYYYYYYYYYYYYYYYYYYYYYYYYYYYYYYYYYYYYYYYYYYYYYYYYY",
"YYYYYYYYYYYYYYYYYYYYYYYYYYYYYYYYYYYYYYYYYYYYYYYYYYYYYYYYYYYYYYYY",
"YYYYYYYYYYYYYYYYYYYYYYYYYYYYYYYYYYYYYYYYYYYYYYYYYYYYYYYYYYYYYYYY",
"YYYYYYYYYYYYYYYYYYYYYYYYYYYYYYYYYYYYYYYYYYYYYYYYYYYYYYYYYYYYYYYY",
"YYYYYYYYYYYYYYYYYYYYYYYYYYYYYYYYYYYYYYYYYYYYYYYYYYYYYYYYYYYYYYYY",
"YYYYYYYYYYYYYYYYYYYYYYYYYYYYYYYYYYYYYYYYYYYYYYYYYYYYYYYYYYYYYYYY",
"YYYYYYYYYYYYYYYYYYYYYYYYYYYYYYYYYYYYYYYYYYYYYYYYYYYYYYYYYYYYYYYY",
"YYYYYYYYYYYYYYYYYYYYYYYYYYYYYYYYYYYYYYYYYYYYYYYYYYYYYYYYYYYYYYYY",
"YYYYYYYYYYYYYYYYYYYYYYYYYYYYYYYYYYYYYYYYYYYYYYYYYYYYYYYYYYYYYYYY",
"YYYYYYYYYYYYYYYYYYYYYYYYYYYYYYYYYYYYYYYYYYYYYYYYYYYYYYYYYYYYYYYY",
"YYYYYYYYYYYYYYYYYY                  YYYYYYYYYYYYYYYYYYYYYYYYYYYY",
"YYYYYYYYYYYYYYYYYY=;====;;;;===;=*O YYYYYYYYYYYYYYYYYYYYYYYYYYYY",
"YYYYYYYYYYYYYY   *wapyttttuttttth0@       YYYYYYYYYYYYYYYYYYYYYY",
"YYYYYYYYYYYYYY  @6hBbbnBnnBBnnBnBh7*=;;=O YYYYYYYYYYYYYYYYYYYYYY",
"YYYYYYYY       @qlxBBxBxxBxBxBxBxxhttth0@   YYYYYYYYYYYYYYYYYYYY",
"YYYYYYYY  =&   =qhttthxBBxBxBxBxBxBBxBBh7===YYYYYYYYYYYYYYYYYYYY",
"YYYYYYYY &qr=   @=@=@7hBBbnnxBxBxBBxBxxxhtuq=   YYYYYYYYYYYYYYYY",
"YYYYYYYY =rq& &======3qtthxbBxBxBxxBxBBxBBBl7@O YYYYYYYYYYYYYYYY",
"YYYYYYYY O=& @0ttttttq3==7hBnnnnxBxBxBxBxBxxh0@   YYYYYYYYYYYYYY",
"YYYYYYYY    @7hBBvBvBh7@ #0hxnnbBxBxBxBxBxxBBh7@O YYYYYYYYYYYYYY",
"YYYYYYYY   @qhxBxbvBBxh0# #6hBBbBBBxxBBxBxBxxxh0# YYYYYYYYYYYYYY",
"YYYYYYYY O@7hBxBVAvBxxBh7@ #0pttttthxBxBxBxBBxBt= YYYYYYYYYYYYYY",
"YYYYYYYY =qhxxBALLCBBxBxhq@ @=**@*=7hBBxxBxBxBBt;       YYYYYYYY",
"YYYYYYYY ;hBBxaiLKptxxxBBt=O>,,,,: @0hthxxBxBxBt; @==*O YYYYYYYY",
"YYYYYYYY =tBBh37zz33hbxBBt=>9GFFF9> @=&7hBBxxBBt=@0hh0@   YYYYYY",
"YYYYYYYY =txkq33hh63hbBxnt=<DUPPIH8-=@ &tBxBBxxt==tBBh7@O YYYYYY",
"YYYYYYYY =th73qlxxhpxxxBBt=-iJSSSVhthq@=txBxxBBt==tBBxhw= YYYYYY",
"YYYYYYYY =ht@@qhxBnBbbBxnt=@0sttttahhq@=tBxBBxBt=@tBxBBt= YYYYYY",
"YYYYYYYY ;hh= =7hbbnbbbBnt= @=-@=*===@ =tBxBxBxt==txbbby= YYYYYY",
"YYYYYYYY ;ht; @7aBnnbbBxBt= @=**=#@=== =txBxBxBt=@tBbbbp; YYYYYY",
"YYYYYYYY *ph&@qhxvBBxBxBBt=@0atttththw@*txBxBxBt@@tBBxBh= YYYYYY",
"YYYYYYYY *ah73rlxxihxxBxnt==iSAAJVhth0@#tBxBxBxt==tBxxhq@ YYYYYY",
"YYYYYYYY ;txhq33ag33hBxBBt*>DUPPIH8==@ =tBxBBxBt=@tBBh7=O YYYYYY",
"YYYYYYYY ;tBBh33zz33hnBxvt->9GFFG9> @==7hxBxxBBt=@0hhq@   YYYYYY",
"YYYYYYYY ;aBvxhpLKkhxxBBBu= >,,,,: @qhthxBxBxBBt= ====  YYYYYYYY",
"YYYYYYYY *0hxxBVLLAnBxxxh0= @===&==7hBxBxBBxBxBt=       YYYYYYYY",
"YYYYYYYY O#7hBBxAVvnxBBh7@ @0tttttttxxBxBxBxxBBh= YYYYYYYYYYYYYY",
"YYYYYYYY   #0hxBbnnnBxhq@ *7hBBxvBBnBBxBxBxBxxhq= YYYYYYYYYYYYYY",
"YYYYYYYY    @7hBBBBBBh7@ @0hxBxBvBxBBxBxBxBxBh7@O YYYYYYYYYYYYYY",
"YYYYYYYY  == @qhtttttq3@=7hBBxBxBxBxxBxBxBBxhq@   YYYYYYYYYYYYYY",
"YYYYYYYY =rq= ==@@=@@3qhthxxxBxBxBxBBxBxBBBh7@O YYYYYYYYYYYYYYYY",
"YYYYYYYY =qq@   @===@7hBxBBBBxBxBxBxxBxxtttq=   YYYYYYYYYYYYYYYY",
"YYYYYYYY O==   =qhttthxxBxBxBxBxxBBxBBBh7@==YYYYYYYYYYYYYYYYYYYY",
"YYYYYYYY       =qlxBBBxBxxxBxBxxxxhttth0@   YYYYYYYYYYYYYYYYYYYY",
"YYYYYYYYYYYYYY  @7hBBxBBBBxBBBBBBh7=====O YYYYYYYYYYYYYYYYYYYYYY",
"YYYYYYYYYYYYYY   =qtttttttttttthh0@       YYYYYYYYYYYYYYYYYYYYYY",
"YYYYYYYYYYYYYYYYYY====;;;;;;;;;;==O YYYYYYYYYYYYYYYYYYYYYYYYYYYY",
"YYYYYYYYYYYYYYYYYY                  YYYYYYYYYYYYYYYYYYYYYYYYYYYY",
"YYYYYYYYYYYYYYYYYYYYYYYYYYYYYYYYYYYYYYYYYYYYYYYYYYYYYYYYYYYYYYYY",
"YYYYYYYYYYYYYYYYYYYYYYYYYYYYYYYYYYYYYYYYYYYYYYYYYYYYYYYYYYYYYYYY",
"YYYYYYYYYYYYYYYYYYYYYYYYYYYYYYYYYYYYYYYYYYYYYYYYYYYYYYYYYYYYYYYY",
"YYYYYYYYYYYYYYYYYYYYYYYYYYYYYYYYYYYYYYYYYYYYYYYYYYYYYYYYYYYYYYYY",
"YYYYYYYYYYYYYYYYYYYYYYYYYYYYYYYYYYYYYYYYYYYYYYYYYYYYYYYYYYYYYYYY",
"YYYYYYYYYYYYYYYYYYYYYYYYYYYYYYYYYYYYYYYYYYYYYYYYYYYYYYYYYYYYYYYY",
"YYYYYYYYYYYYYYYYYYYYYYYYYYYYYYYYYYYYYYYYYYYYYYYYYYYYYYYYYYYYYYYY",
"YYYYYYYYYYYYYYYYYYYYYYYYYYYYYYYYYYYYYYYYYYYYYYYYYYYYYYYYYYYYYYYY",
"YYYYYYYYYYYYYYYYYYYYYYYYYYYYYYYYYYYYYYYYYYYYYYYYYYYYYYYYYYYYYYYY",
"YYYYYYYYYYYYYYYYYYYYYYYYYYYYYYYYYYYYYYYYYYYYYYYYYYYYYYYYYYYYYYYY",
"YYYYYYYYYYYYYYYYYYYYYYYYYYYYYYYYYYYYYYYYYYYYYYYYYYYYYYYYYYYYYYYY",
"YYYYYYYYYYYYYYYYYYYYYYYYYYYYYYYYYYYYYYYYYYYYYYYYYYYYYYYYYYYYYYYY",
"YYYYYYYYYYYYYYYYYYYYYYYYYYYYYYYYYYYYYYYYYYYYYYYYYYYYYYYYYYYYYYYY",
"YYYYYYYYYYYYYYYYYYYYYYYYYYYYYYYYYYYYYYYYYYYYYYYYYYYYYYYYYYYYYYYY"
};
