/* XPM */
static char *xpm_[] = {
/* columns rows colors chars-per-pixel */
"64 64 73 1 ",
"  c black",
". c #010000",
"X c #010101",
"o c #020101",
"O c gray1",
"+ c #101010",
"@ c #111111",
"# c #111212",
"$ c gray7",
"% c #131313",
"& c gray8",
"* c #141514",
"= c #151515",
"- c #161414",
"; c #161616",
": c #1A1011",
"> c #1A1012",
", c #1D1214",
"< c #1C1314",
"1 c #1E1214",
"2 c gray14",
"3 c #252525",
"4 c gray15",
"5 c #272626",
"6 c #282828",
"7 c gray16",
"8 c #312729",
"9 c #C67E89",
"0 c #8B8B8B",
"q c gray55",
"w c #8D8D8D",
"e c #8E8E8E",
"r c gray56",
"t c gray62",
"y c #9E9F9F",
"u c #9F9F9F",
"i c #A79E9F",
"p c #A99FA0",
"a c #9FA0A0",
"s c #A0A0A0",
"d c #A0A1A1",
"f c gray63",
"g c #A1A2A2",
"h c #A2A2A2",
"j c #A3A2A2",
"k c gray64",
"l c #A4A4A4",
"z c #AAA0A2",
"x c #B1B1B1",
"c c #B2B2B2",
"v c gray70",
"b c #B3B4B4",
"n c #B4B4B4",
"m c #B5B4B4",
"M c gray71",
"N c #B6B6B6",
"B c #B7B7B7",
"V c #BBB1B2",
"C c #BCB2B4",
"Z c #BDB3B5",
"A c #BEB3B5",
"S c #BFB4B5",
"D c #DA929D",
"F c #E18F9C",
"G c #E3909D",
"H c #DD95A0",
"J c #C0B5B6",
"K c #EDA4AF",
"L c #EFA7B2",
"P c #F8A6B3",
"I c #FAA7B4",
"U c #FAA8B4",
"Y c None",
/* pixels */
"YYYYYYYYYYYYYYYYYYYYYYYYYYYYYYYYYYYYYYYYYYYYYYYYYYYYYYYYYYYYYYYY",
"YYYYYYYYYYYYYYYYYYYYYYYYYYYYYYYYYYYYYYYYYYYYYYYYYYYYYYYYYYYYYYYY",
"YYYYYYYYYYYYYYYYYYYYYYYYYYYYYYYYYYYYYYYYYYYYYYYYYYYYYYYYYYYYYYYY",
"YYYYYYYYYYYYYYYYYYYYYYYYYYYYYYYYYYYYYYYYYYYYYYYYYYYYYYYYYYYYYYYY",
"YYYYYYYYYYYYYYYYYYYYYYYYYYYYYYYYYYYYYYYYYYYYYYYYYYYYYYYYYYYYYYYY",
"YYYYYYYYYYYYYYYYYYYYYYYYYYYYYYYYYYYYYYYYYYYYYYYYYYYYYYYYYYYYYYYY",
"YYYYYYYYYYYYYYYYYYYYYYYYYYYYYYYYYYYYYYYYYYYYYYYYYYYYYYYYYYYYYYYY",
"YYYYYYYYYYYYYYYYYYYYYYYYYYYYYYYYYYYYYYYYYYYYYYYYYYYYYYYYYYYYYYYY",
"YYYYYYYYYYYYYYYYYY                              YYYYYYYYYYYYYYYY",
"YYYYYYYYYYYYYYYYYY O$&O  O%;;;;;;;;;;;;$O  O$;  YYYYYYYYYYYYYYYY",
"YYYYYYYYYYYYYYYYYY $qr;  $0attaahthhttt0$  %qr; YYYYYYYYYYYYYYYY",
"YYYYYYYYYYYYYYYYYY &rq$ $7hBBvhaththvBBh7$ %rq$ YYYYYYYYYYYYYYYY",
"YYYYYYYYYYYYYYYYYY O$& $0hvvBh6%;;$6hBbvhq$ $$  YYYYYYYYYYYYYYYY",
"YYYYYYYYYYYYYYYYYY    $7hBvvgq5+  $5qhvbBh7$    YYYYYYYYYYYYYYYY",
"YYYYYYYYYYYYYYYY     &0hvvva53r0$$0r55abBvh0;     YYYYYYYYYYYYYY",
"YYYYYYYYYYYYYYYY O$& ;aBvnAz55gh77hh55pCvvBt; $;O YYYYYYYYYYYYYY",
"YYYYYYYYYYYYYYYY $qq$;tBvALKzhvvahvvazLLVvvt;$qq; YYYYYYYYYYYYYY",
"YYYYYYYYYYYYYYYY;7hh;$tvvCLKzhvvBbvvazKLCvBt$$hh7;YYYYYYYYYYYYYY",
"YYYYYYYYYYYYYY ;qhvt$;tBnnAi53aBvvbh44zZbbBt;$tvhq; YYYYYYYYYYYY",
"YYYYYYYYYYYYYY ;tBBt;$tvvvBa55hbBvBh44abvBBt$;tBBt; YYYYYYYYYYYY",
"YYYYYYYYYYYYYY ;tBvt$$aBvvnvshvnvBvvhpxbvvBt$$tvBt; YYYYYYYYYYYY",
"YYYYYYYYYYYYYY ;tvBh55qhxvnnBnvnvvvvnBxbbvhq57hBBt; YYYYYYYYYYYY",
"YYYYYYYYYYYYYY ;tvbvhq56hBnnvvnnBvvvnnvvBh75qhvvBt; YYYYYYYYYYYY",
"YYYYYYYYYYYYYY ;tBvBBa%+0hvnnnvvvvvBnnbxh0$$tBvBvt; YYYYYYYYYYYY",
"YYYYYYYYYYYYYY ;tBvvBt$ $7hBBnnBBvBvBvBh7$ ;tBvvBt; YYYYYYYYYYYY",
"YYYYYYYYYYYYYY ;tvBvvh7$ $0htttttttttti0$ $7hvvBBt; YYYYYYYYYYYY",
"YYYYYYYYYYYYYY ;tBvvvvh0$ $;&&$;;;;&%;%% $0hxvBvvt; YYYYYYYYYYYY",
"YYYYYYYYYYYYYY ;tvBvvvBh7$  :,;$  $&<:  $7hBvvvvBt; YYYYYYYYYYYY",
"YYYYYYYYYYYYYY ;tvvBvvvvhq$:9Di0$$0iDD++0hvvvvvvvt; YYYYYYYYYYYY",
"YYYYYYYYYYYYYY ;tBvvBvvvBh&,GPJa%%aSUG:+tBvvvBvBBt; YYYYYYYYYYYY",
"YYYYYYYYYYYYYY ;tBvBvBvBBt$,FPAt;%tVPF:&tBvvBvvvBt; YYYYYYYYYYYY",
"YYYYYYYYYYYYYY ;tvvvvvvvvt;,FPAt;%iCPF,&tBvBvvvvBt; YYYYYYYYYYYY",
"YYYYYYYYYYYYYY ;tBvvnnnnBt&,GISt%%tSUG,;tBvBvvvBBt; YYYYYYYYYYYY",
"YYYYYYYYYYYYYY ;0hvvnnnnnt&:9HVt%;tVH9:%tvvvBvvvh0$ YYYYYYYYYYYY",
"YYYYYYYYYYYYYY O$7sBnnnnBt; :8ha%%ah8: ;tBBvvBvt7;  YYYYYYYYYYYY",
"YYYYYYYYYYYYYY   &tBnnnnBt7$ ;at;%ha; $7tBvvvvBt;   YYYYYYYYYYYY",
"YYYYYYYYYYYYYYYY ;tBnnnnvvh0$;hh$;hh%$0hxvvvBvBt; YYYYYYYYYYYYYY",
"YYYYYYYYYYYYYYYY ;tBnnnnvnBt;$00$$0q$;tBBvvBvvvt; YYYYYYYYYYYYYY",
"YYYYYYYYYYYYYYYY ;tBvvnnvvBt; $$  $$ ;tBvvvBvvBh; YYYYYYYYYYYYYY",
"YYYYYYYYYYYYYYYY $0hvnnnnvBs7$;$;;$;$7tBBvvvvvh0$ YYYYYYYYYYYYYY",
"YYYYYYYYYYYYYYYY  $7hvvBvvvvttttttttthxvBvBvvh7$  YYYYYYYYYYYYYY",
"YYYYYYYYYYYYYYYY   ;tBvvBvBvvBvBBBvBvBvvvvvvBt$   YYYYYYYYYYYYYY",
"YYYYYYYYYYYYYYYYYY ;tBvBvvvBvvvvBvvvBvBvvvBvBh; YYYYYYYYYYYYYYYY",
"YYYYYYYYYYYYYYYYYY ;0hvvBvvvBvBvvvvBvvvvBvvvlq; YYYYYYYYYYYYYYYY",
"YYYYYYYYYYYYYYYYYYYY$7hBvvvvvvvvvvBvvvBvvvBh7$YYYYYYYYYYYYYYYYYY",
"YYYYYYYYYYYYYYYYYYYY $0hvvBvvBvvvBvvvBvvvvh0$ YYYYYYYYYYYYYYYYYY",
"YYYYYYYYYYYYYYYYYYYY  $7hBBvBBBBBvBvBvBvBh7$  YYYYYYYYYYYYYYYYYY",
"YYYYYYYYYYYYYYYYYYYY   $0tttttttttttttttt0$   YYYYYYYYYYYYYYYYYY",
"YYYYYYYYYYYYYYYYYYYYYY O;;;;;$;$;$;$;;;;;;O YYYYYYYYYYYYYYYYYYYY",
"YYYYYYYYYYYYYYYYYYYYYY      $$$;$;$$$$      YYYYYYYYYYYYYYYYYYYY",
"YYYYYYYYYYYYYYYYYYYYYYYYYY $0htttttth0$ YYYYYYYYYYYYYYYYYYYYYYYY",
"YYYYYYYYYYYYYYYYYYYYYYYYYY ;tBvBBBBBBt; YYYYYYYYYYYYYYYYYYYYYYYY",
"YYYYYYYYYYYYYYYYYYYYYYYYYY ;hBvvvvBvBh; YYYYYYYYYYYYYYYYYYYYYYYY",
"YYYYYYYYYYYYYYYYYYYYYYYYYY ;0hvBvvvvh0$ YYYYYYYYYYYYYYYYYYYYYYYY",
"YYYYYYYYYYYYYYYYYYYYYYYYYY O$7hBvBBh7$  YYYYYYYYYYYYYYYYYYYYYYYY",
"YYYYYYYYYYYYYYYYYYYYYYYYYY   $0tttt0;   YYYYYYYYYYYYYYYYYYYYYYYY",
"YYYYYYYYYYYYYYYYYYYYYYYYYYYY  ;;;;;$O YYYYYYYYYYYYYYYYYYYYYYYYYY",
"YYYYYYYYYYYYYYYYYYYYYYYYYYYY          YYYYYYYYYYYYYYYYYYYYYYYYYY",
"YYYYYYYYYYYYYYYYYYYYYYYYYYYYYYYYYYYYYYYYYYYYYYYYYYYYYYYYYYYYYYYY",
"YYYYYYYYYYYYYYYYYYYYYYYYYYYYYYYYYYYYYYYYYYYYYYYYYYYYYYYYYYYYYYYY",
"YYYYYYYYYYYYYYYYYYYYYYYYYYYYYYYYYYYYYYYYYYYYYYYYYYYYYYYYYYYYYYYY",
"YYYYYYYYYYYYYYYYYYYYYYYYYYYYYYYYYYYYYYYYYYYYYYYYYYYYYYYYYYYYYYYY",
"YYYYYYYYYYYYYYYYYYYYYYYYYYYYYYYYYYYYYYYYYYYYYYYYYYYYYYYYYYYYYYYY",
"YYYYYYYYYYYYYYYYYYYYYYYYYYYYYYYYYYYYYYYYYYYYYYYYYYYYYYYYYYYYYYYY"
};
